<?xml version="1.0" encoding="UTF-8" standalone="no"?>
<svg xmlns:sketch="http://www.bohemiancoding.com/sketch/ns" xmlns="http://www.w3.org/2000/svg" height="144px" width="672px" version="1.1" xmlns:xlink="http://www.w3.org/1999/xlink" viewBox="0 0 672 144"><!-- Generator: Sketch 3.4.2 (15855) - http://www.bohemiancoding.com/sketch -->
 <title>vexxhost-logo-01</title>
 <desc>Created with Sketch.</desc>
 <g id="Page-1" fill-rule="evenodd" sketch:type="MSPage" fill="none">
  <g id="vexxhost-logo-01" sketch:type="MSLayerGroup">
   <g id="host" sketch:type="MSShapeGroup" fill="#00A2E0" transform="translate(413 70)">
    <path id="Shape" d="m52.51 25.31h-45.38v-23.88h-6.225v55.683h6.225v-25.69h45.384v25.69h6.226v-55.68h-6.226v23.88l-0.004-0.003zm74.23-20.67c-1.59-1.394-3.69-2.391-6.31-2.99-2.61-0.597-6.54-0.896-11.79-0.896h-16.761c-5.268 0-9.212 0.298-11.833 0.896-2.621 0.599-4.73 1.596-6.328 2.991-1.771 1.571-3.051 3.724-3.835 6.466-0.788 2.741-1.182 6.426-1.182 11.059v15.188c0 4.243 0.398 7.661 1.197 10.257 0.8 2.596 2.098 4.693 3.895 6.291 1.624 1.424 3.714 2.429 6.273 3.015 2.557 0.586 6.521 0.88 11.887 0.88h16.687c5.4 0 9.37-0.294 11.9-0.88 2.54-0.586 4.61-1.591 6.2-3.015 1.72-1.521 2.98-3.63 3.79-6.325 0.81-2.696 1.21-6.216 1.21-10.559v-15.525c0-4.307-0.4-7.814-1.21-10.518-0.83-2.71-2.1-4.82-3.81-6.34l0.02 0.005zm-1.68 32.64c0 2.918-0.14 5.07-0.43 6.453-0.29 1.385-0.77 2.574-1.44 3.573-1 1.445-2.37 2.481-4.12 3.104-1.74 0.625-4.24 0.937-7.48 0.937h-22.669c-3.22 0-5.708-0.311-7.464-0.937-1.76-0.622-3.126-1.658-4.099-3.104-0.724-1.047-1.234-2.288-1.534-3.721-0.301-1.435-0.449-3.821-0.449-7.164v-14.628c0-3.34 0.148-5.728 0.449-7.161 0.3-1.435 0.811-2.676 1.534-3.723 0.973-1.447 2.339-2.482 4.099-3.105 1.756-0.622 4.244-0.936 7.464-0.936h22.669c3.24 0 5.74 0.314 7.48 0.936 1.75 0.624 3.12 1.658 4.12 3.105 0.67 0.997 1.15 2.182 1.44 3.554s0.43 3.529 0.43 6.47v16.36-0.013zm67.64-9.61c-1.2-0.796-2.8-1.368-4.78-1.718-1.99-0.349-4.94-0.523-8.86-0.523h-18c-5.55 0-9.2-0.672-10.96-2.016-1.75-1.344-2.63-3.81-2.63-7.396 0-3.535 0.91-5.964 2.71-7.283s5.3-1.98 10.47-1.98h17.1c5.1 0 8.44 0.643 10.02 1.922 1.58 1.28 2.37 3.75 2.37 7.406v0.856h6v-1.603c0-2.699-0.27-4.94-0.82-6.727s-1.4-3.23-2.54-4.331c-1.42-1.299-3.38-2.211-5.87-2.736-2.49-0.523-6.84-0.786-13.05-0.786h-11.34c-8.24 0-13.9 1.155-16.98 3.463-3.09 2.31-4.63 6.337-4.63 12.079 0 5.617 1.35 9.581 4.07 11.89 2.7 2.31 7.41 3.465 14.1 3.465h21.13c4.49 0 7.46 0.652 8.9 1.955 1.44 1.304 2.16 3.704 2.16 7.204 0 4.194-1.03 7.038-3.09 8.527-2.07 1.489-6.52 2.233-13.35 2.233h-13.06c-5.65 0-9.5-0.682-11.56-2.044-2.05-1.361-3.08-3.777-3.08-7.247 0-0.397 0.01-1.128 0.04-2.192 0.02-0.446 0.05-0.807 0.08-1.079h-6c-0.03 0.15-0.05 0.363-0.05 0.635-0.08 1.669-0.12 2.852-0.12 3.549 0 5.229 1.43 8.971 4.3 11.223 2.87 2.253 7.67 3.38 14.41 3.38h16.95c7.84 0 13.26-1.221 16.26-3.663 3-2.441 4.5-6.753 4.5-12.931 0-3.863-0.37-6.803-1.11-8.822-0.77-2.02-2-3.59-3.72-4.71h0.03zm10.22-26.24v6.225h24.79v49.458h6.22v-49.458h24.79v-6.225h-55.81 0.01z"/>
   </g>
   <g id="vexx" sketch:type="MSShapeGroup" fill="#53606A" transform="translate(97 73)">
    <path id="Shape" d="m38.17 47.83l-0.369-0.486-32.423-46.931h-4.873l35.714 53.754h3.167l35.713-53.754h-4.996l-31.93 47.42-0.003-0.003zm41.59 6.28h70.94v-5.944h-66.185v-18.031h66.185v-5.943h-66.185v-17.84h66.185v-5.944h-70.94v53.69 0.012zm76.08 0.06h9.87l27.39-22.749-4.96-4.128-32.3 26.88v-0.003zm9.88-53.75h-9.87l32.3 26.877 4.96-4.129-27.39-22.75v0.002zm54.73 53.75h9.99l-32.36-26.877-4.97 4.128 27.34 22.75v-0.001zm0-53.75l-27.34 22.749 4.97 4.129 32.36-26.877h-9.99v-0.001zm89.25 0h-9.99l-27.34 22.749 4.97 4.128 32.36-26.88v0.003zm-37.34 31l27.34 22.749h9.99l-32.36-26.877-4.97 4.13v-0.002zm-37.26 22.75h9.87l27.39-22.749-4.96-4.128-32.3 26.88v-0.003zm9.87-53.75h-9.87l32.3 26.877 4.96-4.128-27.39-22.75v0.001z"/>
   </g>
   <g id="Forme_1_copie" sketch:type="MSShapeGroup" fill="#00A2E0" transform="translate(15 26)">
    <path id="Shape" d="m132.88 0.38c-55.017 17.271-107.54 60.363-132.25 112.61 27.728-47.01 82.659-85.582 133.75-102.29l-1.5-10.32z"/>
   </g>
   <g id="Forme_1" sketch:type="MSShapeGroup" fill="#27BAE8" transform="translate(14)">
    <path id="Shape" d="m142.56 0.29c-1.83 0.534-3.67 1.126-5.5 1.792-60.746 22.003-116.84 78.577-136.5 141.71 24.614-59.373 86.905-112.65 142.84-132.91 0.38-0.134 0.76-0.259 1.13-0.39l-1.98-10.2h0.01z"/>
   </g>
   <g id="Forme_22_copie" sketch:type="MSShapeGroup" fill="#53606A" transform="translate(0 32)">
    <path id="Shape" d="m0.109 0.55l37.698 50.881 2.051-1.4-35.876-48.981-3.875-0.5h0.002zm53.371 68.08l-1.792 1.537 21.819 29.449 2.718 0.067-22.75-31.06 0.005 0.007z"/>
   </g>
   <g id="Forme_22" sketch:type="MSShapeGroup" fill="#53606A" transform="translate(7 32)">
    <path id="Shape" d="m0.031 0.55l34.911 47.119 2.072-1.415-33.11-45.204-3.869-0.51-0.004 0.01zm50.619 64.33l-1.812 1.553 24.591 33.191 2.719 0.067-25.5-34.81 0.002-0.001z"/>
   </g>
   <g id="Forme_4_copie_2" sketch:type="MSShapeGroup" fill="#53606A" transform="translate(15 32)">
    <path id="Shape" d="m0.77 0.84l30.139 40.812 10.436-12.485-20.919-28.327h-19.66 0.004zm57.61 51.39l-12.036 10.317 27.005 36.568h19.654l-34.61-46.89-0.013 0.005z"/>
   </g>
  </g>
 </g>
</svg>
