<?xml version="1.0" encoding="UTF-8" standalone="no"?>
<svg
   xmlns:dc="http://purl.org/dc/elements/1.1/"
   xmlns:cc="http://creativecommons.org/ns#"
   xmlns:rdf="http://www.w3.org/1999/02/22-rdf-syntax-ns#"
   xmlns:svg="http://www.w3.org/2000/svg"
   xmlns="http://www.w3.org/2000/svg"
   viewBox="0 0 2560.7314 1355.8423"
   height="1355.8423"
   width="2560.7314"
   id="svg2"
   version="1.1">
  <metadata
     id="metadata8">
    <rdf:RDF>
      <cc:Work
         rdf:about="">
        <dc:format>image/svg+xml</dc:format>
        <dc:type
           rdf:resource="http://purl.org/dc/dcmitype/StillImage" />
        <dc:title></dc:title>
      </cc:Work>
    </rdf:RDF>
  </metadata>
  <defs
     id="defs6" />
  <g
     transform="translate(-419.26428,30.842876)"
     id="g974">
    <g
       id="g912"
       transform="translate(40)">
      <path
         style="fill:#ef3f22"
         d="m 1079.2798,741.67538 c 36.6285,-65.82367 91.2425,-131.32952 151.6117,-181.84813 97.0787,-81.23819 214.4028,-132.95242 337.8043,-148.89778 6.875,-0.88835 13.0169,-2.15269 13.6487,-2.80964 0.6317,-0.65695 53.9266,-99.86456 118.4331,-220.46135 64.5064,-120.596803 117.6024,-218.921799 117.9911,-218.500004 0.64,0.694577 409.719,765.009454 414.807,775.016904 l 2.1607,4.25 h -33.4774 -33.4775 l -8.1925,-12.25 c -38.1355,-57.02333 -88.4845,-110.07148 -143.3932,-151.08049 -82.1821,-61.37836 -175.4389,-99.92465 -277.2663,-114.60376 -7.8464,-1.13112 -18.0839,-2.35003 -22.75,-2.70869 -4.666,-0.35867 -8.4837,-0.95377 -8.4837,-1.32246 0,-0.59124 28.7751,-55.00849 29.5469,-55.87677 0.5356,-0.60256 29.4462,3.90207 44.9531,7.00426 92.0861,18.42197 175.7076,54.00838 251.1877,106.89668 13.5943,9.52539 18.3123,11.70154 18.3123,8.4464 0,-1.60598 -230.4392,-433.143033 -232.4443,-435.291913 -0.6603,-0.70771 -1.8744,-1.0282 -2.6979,-0.71219 -0.8235,0.31601 -79.4508,146.302263 -174.7274,324.413893 -95.2766,178.11163 -173.7703,324.57635 -174.4303,325.47716 -1.0767,1.46951 -4.6049,1.61059 -34.332,1.37285 l -33.1319,-0.26497 67.9494,-127 c 81.8984,-153.07099 76.367,-142.37596 74.5667,-144.17628 -1.2079,-1.20793 -3.0402,-1.05261 -13.0093,1.10278 -50.6999,10.96166 -93.8154,25.90734 -140.243,48.61423 -26.0075,12.71983 -42.4588,22.15294 -67,38.4176 -67.6158,44.81233 -124.1764,101.18002 -168.8545,168.2784 l -10.1455,15.23673 -34.336,0.0133 -34.3361,0.0133 z"
         id="path914" />
    </g>
    <g
       id="g941"
       transform="translate(192.72422,178)">
      <path
         style="fill:#000000"
         d="m 226.55688,1145.7163 c 3.99412,-9.9993 148.38569,-329.4585 149.14897,-329.9847 0.58614,-0.4041 14.39811,-0.7416 30.69327,-0.75 22.49766,-0.012 29.87715,0.2855 30.66474,1.2347 0.79064,0.9529 141.13013,311.8344 147.84803,327.5145 l 1.39861,3.2645 -30.58462,-0.2645 -30.58463,-0.2645 -20.36894,-46.3508 c -11.20292,-25.4929 -20.66095,-46.6429 -21.01786,-47 -1.0392,-1.0397 -150.95956,-1.3011 -153.61934,-0.2679 -1.94037,0.7538 -6.01323,9.2616 -22.74797,47.5185 l -20.38441,46.6002 h -30.47258 c -23.97768,0 -30.36615,-0.2664 -29.97327,-1.25 z m 235.30531,-143.1256 c 0.29033,-0.7566 -11.79387,-29.8941 -26.85376,-64.75 -21.90683,-50.7031 -27.74678,-63.3744 -29.20791,-63.3744 -1.46688,0 -7.1155,12.4897 -28.70248,63.464 -14.7819,34.9053 -26.65413,64.0428 -26.38272,64.75 0.75639,1.9712 110.39001,1.8828 111.14687,-0.09 z m 243.87124,143.1256 c -0.26145,-0.6875 -0.35983,-75.275 -0.21862,-165.75 l 0.25675,-164.5 35.61719,-0.2625 c 27.72338,-0.2043 35.84824,0.017 36.65968,1 0.57337,0.6944 28.8242,53.9125 62.77961,118.2625 33.95542,64.35 62.19275,117.2959 62.74964,117.6575 0.55688,0.3616 1.50332,0.4632 2.1032,0.2258 0.59987,-0.2374 28.50703,-52.4064 62.0159,-115.931 33.50892,-63.5247 61.74322,-116.8445 62.74302,-118.4885 l 1.8177,-2.9891 35.7571,0.2627 35.757,0.2626 v 165.5 165.5 l -26.75,0.2663 -26.75,0.2664 -0.015,-123.2664 c -0.01,-69.6194 -0.4,-123.8737 -0.8991,-124.662 -0.4861,-0.7677 -1.5117,-1.1548 -2.2792,-0.8603 -0.7674,0.2945 -27.7863,49.9726 -60.04195,110.3958 l -58.64659,109.8602 H 904.77474 881.15972 L 822.51236,1008.6069 C 790.25631,948.1842 763.23613,898.5061 762.4675,898.2111 c -0.76862,-0.2949 -1.79518,0.092 -2.28125,0.8595 -0.49914,0.7883 -0.89043,55.0357 -0.89908,124.6457 l -0.0153,123.25 h -26.53138 c -20.30492,0 -26.64295,-0.2933 -27.00675,-1.25 z m 570.00007,0 c -0.2615,-0.6875 -0.3599,-75.275 -0.2186,-165.75 l 0.2567,-164.5 92.5,0.026 c 83.2976,0.023 93.6207,0.2011 103.7647,1.7867 38.399,6.0021 63.3288,22.1288 75.7426,48.9969 9.869,21.36 11.8242,51.3589 5.0802,77.9445 -8.2307,32.4464 -30.4507,56.0587 -62.1614,66.0566 -19.0367,6.0019 -19.1365,6.009 -92.9261,6.6233 l -68,0.5661 -0.2573,64.75 -0.2573,64.75 h -26.5241 c -20.2991,0 -26.6356,-0.2934 -26.9994,-1.25 z M 1465.4633,966.232 c 9.1879,-2.5731 12.5827,-4.2111 19.6418,-9.4775 10.6619,-7.9544 16.8661,-21.6279 17.8262,-39.2882 1.4386,-26.4608 -9.4141,-44.2754 -31.5098,-51.7228 -6.582,-2.2185 -7.3272,-2.2446 -72.9912,-2.5559 -49.5562,-0.235 -66.6978,-0.019 -67.75,0.8545 -1.9631,1.6292 -2.1163,101.8151 -0.1587,103.7768 0.9823,0.9844 14.7417,1.1793 64.25,0.9099 60.8996,-0.3314 63.2564,-0.4146 70.6917,-2.4968 z m 204.8083,14.7343 V 814.9591 l 135.25,0.2536 135.25,0.2536 v 23.5 23.5 l -108,0.5 -108,0.5 v 44 44 l 102.5,0.5 102.5,0.5 v 23.5 23.5 l -102.5,0.5 -102.5,0.5 -0.2594,49.2455 -0.2594,49.2456 108.2594,0.2544 108.2594,0.2545 v 23.5 23.5 l -135.25,0.2536 -135.25,0.2536 z m 417.247,0.2663 0.253,-165.7663 98,0.022 c 88.664,0.019 99.0731,0.1897 109.2647,1.7867 38.4207,6.0202 63.3296,22.1349 75.7426,49.0012 7.3146,15.8314 10.4406,36.7104 8.5454,57.0756 -3.5167,37.7905 -19.6208,63.9314 -49.3837,80.1623 -4.8717,2.6567 -6.7079,4.188 -6.402,5.3389 0.236,0.8875 16.4724,31.9549 36.081,69.0386 19.6086,37.0837 35.652,67.8028 35.652,68.2647 0,0.4618 -13.5718,0.7206 -30.1596,0.5751 l -30.1597,-0.2647 -34.2042,-64.5 -34.2042,-64.5 -62.6289,-0.2575 -62.6288,-0.2575 -0.2573,64.7575 -0.2573,64.7575 -26.753,0.2663 -26.7529,0.2664 z m 200.9447,-14.9959 c 9.1918,-2.5798 12.5863,-4.2185 19.6418,-9.4822 10.6619,-7.9544 16.8661,-21.6279 17.8262,-39.2882 1.4534,-26.7333 -9.6867,-44.7305 -32.0397,-51.7607 -7.1,-2.233 -7.3238,-2.2393 -79.62,-2.2393 h -72.5 l -0.2601,51.5 c -0.143,28.325 -0.036,52.0852 0.238,52.8005 0.4039,1.0546 13.5977,1.237 69.7601,0.9646 67.3823,-0.3269 69.4707,-0.3946 76.9537,-2.4947 z m 228.2702,179.4796 c -0.2615,-0.6875 -0.3599,-75.275 -0.2186,-165.75 l 0.2567,-164.5 135.25,-0.2536 135.25,-0.2536 v 23.9991 23.9992 l -108.25,0.2544 -108.25,0.2545 v 44 44 l 102.7681,0.2547 102.7681,0.2547 -0.2681,23.7453 -0.2681,23.7453 -102.5,0.5 -102.5,0.5 v 49 49 l 108.25,0.2545 108.25,0.2544 v 23.9956 23.9955 h -135.0314 c -107.1049,0 -135.1297,-0.2585 -135.5067,-1.25 z"
         id="path943" />
    </g>
  </g>
</svg>
