<svg width="15" height="12" viewBox="0 0 15 12" xmlns="http://www.w3.org/2000/svg" xmlns:xlink="http://www.w3.org/1999/xlink">
    <defs>
        <path d="M708.716 349.054l-4.805-4.806a.828.828 0 0 0-1.183 0 .828.828 0 0 0 0 1.182l3.388 3.387h-11.281a.84.84 0 0 0-.835.836.84.84 0 0 0 .835.835h11.266l-3.373 3.387a.828.828 0 0 0 0 1.182.863.863 0 0 0 .6.252c.22 0 .425-.079.599-.252l4.82-4.822a.858.858 0 0 0 .252-.598 1.069 1.069 0 0 0-.283-.583" id="a-arrow-left" />
    </defs>
    <g transform="translate(-694 -344)">
        <use xlink:href="#a-arrow-left" fill="#fff" />
    </g>
</svg>