<?xml version="1.0" encoding="UTF-8" standalone="no"?>
<svg xmlns:dc="http://purl.org/dc/elements/1.1/" xmlns:cc="http://creativecommons.org/ns#" xmlns:rdf="http://www.w3.org/1999/02/22-rdf-syntax-ns#" xmlns:svg="http://www.w3.org/2000/svg" xmlns="http://www.w3.org/2000/svg" xmlns:sodipodi="http://sodipodi.sourceforge.net/DTD/sodipodi-0.dtd" xmlns:inkscape="http://www.inkscape.org/namespaces/inkscape" id="svgRoot" viewBox="0 0 100 100" xml:space="preserve" sodipodi:version="0.32" inkscape:version="0.46" width="255.99997" height="139.95497" sodipodi:docname="China Unicom.svg" inkscape:output_extension="org.inkscape.output.svg.inkscape" version="1.0"><metadata id="metadata48"><rdf:RDF><cc:Work rdf:about=""><dc:format>image/svg+xml</dc:format><dc:type rdf:resource="http://purl.org/dc/dcmitype/StillImage"/></cc:Work></rdf:RDF></metadata><sodipodi:namedview inkscape:window-height="667" inkscape:window-width="858" inkscape:pageshadow="2" inkscape:pageopacity="0.0" guidetolerance="10.0" gridtolerance="10.0" objecttolerance="10.0" borderopacity="1.0" bordercolor="#666666" pagecolor="#ffffff" id="base" showgrid="false" inkscape:zoom="2.9765629" inkscape:cx="127.99998" inkscape:cy="69.977486" inkscape:window-x="22" inkscape:window-y="0" inkscape:current-layer="svgRoot"/>
<defs id="defs3"><inkscape:perspective sodipodi:type="inkscape:persp3d" inkscape:vp_x="0 : 526.18109 : 1" inkscape:vp_y="0 : 1000 : 0" inkscape:vp_z="744.09448 : 526.18109 : 1" inkscape:persp3d-origin="372.04724 : 350.78739 : 1" id="perspective50"/>
</defs>
<g transform="matrix(1.32117, 0, 0, -1.32117, -15.6291, 110.995)" id="g7">
<path d="M 66.65,47.7 L 71.15,52.21 L 67.56,55.79 L 71.15,59.38 L 66.65,63.88 L 63.06,60.3 C 63.06,60.3 61.78,61.58 60.69,62.67 C 56.89,66.47 50.73,66.47 46.93,62.67 C 45.04,60.77 44.09,58.28 44.09,55.79 C 44.09,53.3 45.04,50.82 46.93,48.92 C 50.73,45.12 56.89,45.12 60.69,48.92 C 61.78,50 63.06,51.29 63.06,51.29 L 66.65,47.7 M 56.18,53.42 C 54.87,52.12 52.75,52.12 51.44,53.42 C 50.79,54.08 50.46,54.93 50.46,55.79 C 50.46,56.65 50.79,57.51 51.44,58.16 C 52.75,59.47 54.87,59.47 56.18,58.16 C 57.25,57.1 58.55,55.79 58.55,55.79 C 58.55,55.79 57.25,54.49 56.18,53.42 M 116.1,62.67 C 112.3,66.47 106.1,66.47 102.3,62.67 C 101.2,61.58 99.95,60.3 99.95,60.3 L 96.37,63.88 L 91.86,59.38 L 95.45,55.79 L 91.86,52.21 L 96.37,47.7 L 99.95,51.29 C 99.95,51.29 101.2,50 102.3,48.92 C 106.1,45.12 112.3,45.12 116.1,48.92 C 118,50.82 118.9,53.3 118.9,55.79 C 118.9,58.28 118,60.77 116.1,62.67 M 111.6,53.42 C 110.3,52.12 108.1,52.12 106.8,53.42 C 105.8,54.49 104.5,55.79 104.5,55.79 C 104.5,55.79 105.8,57.1 106.8,58.16 C 108.1,59.47 110.3,59.47 111.6,58.16 C 112.2,57.51 112.5,56.65 112.5,55.79 C 112.5,54.93 112.2,54.08 111.6,53.42 M 86.06,55.79 C 86.06,55.79 96.62,66.36 97.68,67.41 C 101.5,71.21 101.5,77.37 97.68,81.17 C 93.88,84.96 87.72,84.96 83.92,81.17 C 82.43,79.68 81.56,78.8 81.56,78.8 C 81.56,78.8 80.67,79.68 79.19,81.17 C 75.38,84.96 69.23,84.96 65.43,81.17 C 61.63,77.37 61.63,71.21 65.43,67.41 C 66.48,66.36 77.05,55.79 77.05,55.79 C 77.05,55.79 66.48,45.23 65.43,44.18 C 61.63,40.38 61.63,34.22 65.43,30.42 C 69.23,26.62 75.38,26.62 79.19,30.42 C 80.67,31.91 81.56,32.79 81.56,32.79 C 81.56,32.79 82.43,31.91 83.92,30.42 C 87.72,26.62 93.88,26.62 97.68,30.42 C 101.5,34.22 101.5,40.38 97.68,44.18 C 96.62,45.23 86.06,55.79 86.06,55.79 M 69.94,71.92 C 68.63,73.23 68.63,75.35 69.94,76.66 C 71.24,77.97 73.37,77.97 74.68,76.66 C 75.94,75.4 77.05,74.29 77.05,74.29 L 73.46,70.7 L 77.97,66.2 L 81.56,69.78 L 85.14,66.2 L 89.65,70.7 L 86.06,74.29 C 86.06,74.29 87.17,75.4 88.43,76.66 C 89.74,77.97 91.86,77.97 93.17,76.66 C 94.48,75.35 94.48,73.23 93.17,71.92 C 91.8,70.54 81.51,60.25 81.51,60.25 C 81.51,60.25 71.31,70.54 69.94,71.92 M 93.17,34.93 C 91.86,33.62 89.74,33.62 88.43,34.93 C 87.17,36.19 86.06,37.3 86.06,37.3 L 89.65,40.89 L 85.14,45.39 L 81.56,41.81 L 77.97,45.39 L 73.46,40.89 L 77.05,37.3 C 77.05,37.3 75.94,36.19 74.68,34.93 C 73.37,33.62 71.24,33.62 69.94,34.93 C 68.63,36.24 68.63,38.36 69.94,39.67 C 71.31,41.04 81.51,51.34 81.51,51.34 C 81.51,51.34 91.8,41.04 93.17,39.67 C 94.48,38.36 94.48,36.24 93.17,34.93" class="ps00" id="path9" style="fill: rgb(214, 25, 32); fill-rule: nonzero; stroke: none;"/>
<path d="M 30.55,35.25 L 30.55,34 C 29.51,35.03 28.33,35.53 27.02,35.53 C 25.5,35.53 24.24,35 23.23,33.94 C 22.22,32.87 21.71,31.52 21.71,29.91 C 21.71,28.3 22.22,26.92 23.23,25.84 C 24.25,24.77 25.53,24.24 27.09,24.24 C 28.33,24.24 29.48,24.71 30.55,25.68 L 30.55,24.55 L 33.17,24.55 L 33.17,35.25 L 30.55,35.25 M 29.81,27.41 C 29.22,26.78 28.43,26.48 27.48,26.48 C 26.58,26.48 25.83,26.8 25.24,27.44 C 24.66,28.08 24.37,28.91 24.37,29.94 C 24.37,30.88 24.67,31.68 25.26,32.34 C 25.86,32.98 26.6,33.29 27.5,33.29 C 28.45,33.29 29.22,32.98 29.81,32.34 C 30.4,31.7 30.7,30.87 30.7,29.88 C 30.7,28.88 30.4,28.06 29.81,27.41" class="ps01" id="path11" style="fill: rgb(35, 31, 32); fill-rule: nonzero; stroke: none;"/>
<path d="M -5.533,40.09 L -2.816,40.09 L -2.816,34.02 C -2.816,34.02 -1.802,35.42 0.3091,35.42 C 2.263,35.42 4.041,34.12 4.041,30.85 L 4.041,24.49 L 1.566,24.49 L 1.566,31.03 C 1.566,32.15 1.112,33.57 -0.4919,33.57 C -2.021,33.57 -2.807,32.42 -2.816,31.03 L -2.816,24.49 L -5.533,24.49 L -5.533,40.09" class="ps01" id="path13" style="fill: rgb(35, 31, 32); fill-rule: nonzero; stroke: none;"/>
<path d="M -6.512,27.15 C -7.114,26.3 -7.868,25.61 -8.797,25.09 C -9.892,24.47 -11.12,24.15 -12.45,24.15 C -14.41,24.15 -16.08,24.85 -17.47,26.22 C -18.85,27.6 -19.55,29.26 -19.55,31.24 C -19.55,33.35 -18.77,35.11 -17.2,36.51 C -15.82,37.75 -14.24,38.36 -12.46,38.36 C -11.17,38.36 -9.96,38.04 -8.82,37.4 C -7.886,36.87 -7.114,36.2 -6.516,35.35 L -8.847,33.68 C -9.01,34.08 -9.248,34.42 -9.521,34.75 C -10.3,35.65 -11.28,36.09 -12.49,36.09 C -13.66,36.09 -14.64,35.65 -15.43,34.73 C -16.2,33.82 -16.59,32.67 -16.59,31.25 C -16.59,29.79 -16.21,28.62 -15.43,27.71 C -14.67,26.81 -13.69,26.36 -12.5,26.36 C -11.32,26.36 -10.33,26.82 -9.544,27.74 C -9.254,28.07 -9.02,28.43 -8.847,28.83 C -8.847,28.83 -7.114,27.59 -6.512,27.15" class="ps01" id="path15" style="fill: rgb(35, 31, 32); fill-rule: nonzero; stroke: none;"/>
<path d="M 16.7,35.42 C 14.12,35.46 13.28,34.02 13.28,34.02 L 13.15,35.28 L 10.82,35.28 L 10.82,24.5 L 13.52,24.5 L 13.52,31.04 C 13.53,32.42 14.33,33.58 15.85,33.58 C 17.46,33.58 17.93,32.15 17.93,31.04 L 17.93,24.5 L 20.43,24.5 L 20.43,30.85 C 20.43,34.13 18.65,35.41 16.7,35.42" class="ps01" id="path17" style="fill: rgb(35, 31, 32); fill-rule: nonzero; stroke: none;"/>
<path d="M 6.079,24.5 L 8.614,24.5 L 8.614,35.31 L 6.079,35.31 L 6.079,24.5 z" class="ps00" id="path19" style="fill: rgb(214, 25, 32); fill-rule: nonzero; stroke: none;"/>
<path d="M 7.33,36.41 C 6.448,36.41 5.862,37.06 5.862,37.84 C 5.862,38.67 6.475,39.29 7.352,39.29 C 8.259,39.29 8.822,38.67 8.845,37.84 C 8.845,37.06 8.259,36.41 7.352,36.41 L 7.33,36.41" class="ps00" id="path21" style="fill: rgb(214, 25, 32); fill-rule: nonzero; stroke: none;"/>
<path d="M 7.33,20.49 C 6.448,20.49 5.862,21.13 5.862,21.9 C 5.862,22.73 6.475,23.36 7.352,23.36 C 8.259,23.36 8.822,22.73 8.845,21.9 C 8.845,21.13 8.259,20.49 7.352,20.49 L 7.33,20.49" class="ps00" id="path23" style="fill: rgb(214, 25, 32); fill-rule: nonzero; stroke: none;"/>
<path d="M 45.74,19.45 C 44.13,19.49 43.01,18.82 42.07,17.78 C 41.43,18.94 40.38,19.42 39.27,19.45 C 36.99,19.51 35.99,18.06 35.99,18.06 L 35.9,19.37 L 33.45,19.37 L 33.45,8.587 L 36.18,8.587 L 36.18,15.09 C 36.19,16.48 36.92,17.61 38.32,17.61 C 39.79,17.61 40.22,16.2 40.22,15.08 L 40.22,8.587 L 42.69,8.587 C 42.69,8.587 42.69,14.92 42.69,14.95 L 42.69,14.94 C 42.7,16.75 43.54,17.61 44.79,17.61 C 46.27,17.61 46.69,16.2 46.69,15.08 L 46.69,8.587 L 49.16,8.587 L 49.16,14.9 C 49.16,18.16 47.52,19.41 45.74,19.45" class="ps01" id="path25" style="fill: rgb(35, 31, 32); fill-rule: nonzero; stroke: none;"/>
<path d="M 6.079,8.587 L 8.614,8.587 L 8.614,19.367 L 6.079,19.367 L 6.079,8.587 z" class="ps00" id="path27" style="fill: rgb(214, 25, 32); fill-rule: nonzero; stroke: none;"/>
<path d="M 26.54,19.61 C 27.55,19.61 28.5,19.35 29.38,18.85 C 30.28,18.34 30.97,17.65 31.47,16.8 C 31.97,15.93 32.22,14.99 32.22,14 C 32.22,12.99 31.97,12.04 31.46,11.16 C 30.96,10.28 30.28,9.589 29.41,9.105 C 28.55,8.598 27.59,8.359 26.55,8.359 C 25.01,8.359 23.7,8.901 22.61,10 C 21.53,11.08 20.99,12.41 20.99,13.97 C 20.99,15.64 21.61,17.04 22.83,18.15 C 23.91,19.12 25.14,19.61 26.54,19.61 M 26.74,17.73 C 25.87,17.73 25.15,17.37 24.58,16.68 C 24,15.97 23.71,15.07 23.71,13.97 C 23.71,12.86 24,11.94 24.57,11.24 C 25.14,10.55 25.85,10.2 26.72,10.2 C 27.6,10.2 28.32,10.55 28.89,11.25 C 29.48,11.96 29.76,12.87 29.76,13.97 C 29.76,15.08 29.48,15.98 28.91,16.69 C 28.34,17.37 27.62,17.73 26.74,17.73" class="ps01" id="path29" style="fill: rgb(35, 31, 32); fill-rule: nonzero; stroke: none;"/>
<path d="M 0.3091,19.51 C -2.261,19.54 -3.11,18.11 -3.11,18.11 L -3.24,19.37 L -5.572,19.37 L -5.572,8.587 L -2.859,8.587 L -2.859,15.12 C -2.853,16.51 -2.058,17.65 -0.5309,17.65 C 1.069,17.65 1.53,16.24 1.53,15.12 L 1.53,8.587 L 4.041,8.587 L 4.041,14.92 C 4.041,18.21 2.263,19.47 0.3091,19.51" class="ps01" id="path31" style="fill: rgb(35, 31, 32); fill-rule: nonzero; stroke: none;"/>
<path d="M -13.62,8.442 C -11.04,8.407 -10.19,9.845 -10.19,9.845 L -10.06,8.587 L -7.729,8.587 L -7.729,19.37 L -10.44,19.37 L -10.44,12.83 C -10.45,11.44 -11.24,10.29 -12.77,10.29 C -14.37,10.29 -15.01,11.71 -15.01,12.83 L -15.01,19.37 L -17.72,19.37 L -17.72,13.03 C -17.72,9.742 -15.57,8.467 -13.62,8.442" class="ps01" id="path33" style="fill: rgb(35, 31, 32); fill-rule: nonzero; stroke: none;"/>
<path d="M 20.79,10.7 C 20.31,10.02 19.71,9.475 18.98,9.069 C 18.1,8.566 17.13,8.331 16.08,8.331 C 14.53,8.331 13.21,8.865 12.1,9.957 C 11,11.06 10.45,12.38 10.45,13.95 C 10.45,15.61 11.07,17 12.32,18.12 C 13.4,19.09 14.65,19.58 16.07,19.58 C 17.09,19.58 18.05,19.33 18.96,18.82 C 19.7,18.41 20.31,17.87 20.78,17.21 L 18.76,15.76 C 18.64,16.05 18.47,16.31 18.27,16.54 C 17.71,17.22 17,17.55 16.13,17.55 C 15.27,17.55 14.57,17.21 14,16.54 C 13.44,15.87 13.15,15 13.15,13.95 C 13.15,12.87 13.44,11.98 13.99,11.32 C 14.55,10.64 15.26,10.32 16.12,10.32 C 16.97,10.32 17.68,10.64 18.25,11.33 C 18.46,11.58 18.64,11.85 18.76,12.15 L 20.79,10.7" class="ps01" id="path35" style="fill: rgb(35, 31, 32); fill-rule: nonzero; stroke: none;"/>
<path d="M 101.2,10.02 C 100.8,10.02 100.4,10.39 100.4,10.86 L 100.4,17.54 L 97.49,17.54 L 97.49,16.25 L 98.45,16.25 L 98.45,10.35 C 98.45,9.34 99.34,8.728 100,8.728 L 111.1,8.728 L 111.1,10.02 L 101.2,10.02 M 105.9,18.87 C 105,19.43 104.1,19.87 104.1,19.87 L 103.4,18.98 L 104.1,18.37 L 101.5,18.37 L 101.5,10.62 L 102,10.62 C 102.6,10.62 103.2,10.99 103.2,11.79 L 103.2,12.86 L 105.3,12.86 L 105.3,10.62 L 105.8,10.62 C 106.5,10.62 107,10.97 107,11.79 L 107,12.86 L 109.1,12.86 L 109.1,12.33 C 109.1,12.08 108.8,11.91 108.5,11.91 L 107.7,11.91 L 108.1,10.62 L 109.4,10.62 C 110.2,10.62 110.9,11.32 110.9,12.17 L 110.9,17.31 C 110.9,17.89 110.4,18.37 109.9,18.37 L 107.8,18.37 L 110.5,19.99 L 110.5,21.48 L 101.4,21.48 L 101.4,20.19 L 108,20.19 L 105.9,18.87 M 105.3,14.1 L 103.2,14.1 L 103.2,14.97 L 105.3,14.97 L 105.3,14.1 M 105.3,16.21 L 103.2,16.21 L 103.2,17.08 L 105.3,17.08 L 105.3,16.21 M 109.1,14.1 L 107,14.1 L 107,14.97 L 109.1,14.97 L 109.1,14.1 M 107,17.08 L 109.1,17.08 L 109.1,16.21 L 107,16.21 L 107,17.08 M 100.7,19.12 C 99.67,20.46 98.63,21.19 98.63,21.19 L 97.62,20.46 L 99.32,18.12 L 100.7,19.12" class="ps01" id="path37" style="fill: rgb(35, 31, 32); fill-rule: nonzero; stroke: none;"/>
<path d="M 89.21,13.15 L 88.34,12.91 L 88.34,20.14 C 88.34,20.94 87.85,21.43 87.25,21.43 L 82.65,21.43 L 82.65,20.14 L 86.49,20.14 L 86.49,18.14 L 84.92,18.14 L 84.92,19.47 L 83.18,19.47 L 83.18,11.46 L 82.41,11.24 L 82.41,9.791 L 86.49,10.94 L 86.49,8.322 L 87.21,8.322 C 87.82,8.322 88.2,8.682 88.34,9.37 L 88.34,11.45 L 89.21,11.7 L 89.21,13.15 M 86.49,12.39 L 84.92,11.95 L 84.92,13.97 L 86.49,13.97 L 86.49,12.39 M 86.49,15.26 L 84.92,15.26 L 84.92,16.85 L 86.49,16.85 L 86.49,15.26 M 93.6,14.28 L 95.83,14.28 L 95.83,15.57 L 93.34,15.57 L 93.34,17.56 L 95.83,17.56 L 95.83,18.84 L 94.21,18.84 L 95.69,20.69 L 94.29,21.7 L 92.44,18.84 L 91.12,18.84 L 92.2,19.62 C 91.26,20.91 90.48,21.7 90.48,21.7 L 89.45,21.09 L 90.77,18.84 L 89.15,18.84 L 89.15,17.56 L 91.3,17.56 L 91.3,15.57 L 89.15,15.57 L 89.15,14.28 L 91.06,14.28 L 88.8,8.483 L 89.77,8.483 C 90.29,8.483 90.81,8.838 91.02,9.303 L 92.4,12.76 L 94.31,8.483 L 96.2,8.483 L 93.6,14.28" class="ps01" id="path39" style="fill: rgb(35, 31, 32); fill-rule: nonzero; stroke: none;"/>
<path d="M 63.69,19.9 L 59.45,19.9 L 59.45,21.7 L 57.25,21.7 L 57.25,19.9 L 54.48,19.9 L 54.48,18.6 L 57.25,18.6 L 57.25,13.34 L 53.81,13.34 L 53.81,19.9 L 51.6,19.9 L 51.6,12.04 L 57.25,12.04 L 57.25,8.322 L 57.6,8.322 C 58.84,8.359 59.4,8.906 59.45,9.845 L 59.45,12.04 L 63.18,12.04 C 64.21,12.04 65.04,12.86 65.09,13.87 L 65.09,18.58 C 65.04,19.31 64.44,19.9 63.69,19.9 M 62.88,14.17 C 62.88,13.71 62.51,13.34 62.05,13.34 L 59.45,13.34 L 59.45,18.6 L 62.88,18.6 L 62.88,14.17" class="ps01" id="path41" style="fill: rgb(35, 31, 32); fill-rule: nonzero; stroke: none;"/>
<path d="M 78.95,21.48 L 69.79,21.48 L 69.79,20.19 L 78.32,20.19 L 78.32,10.82 C 78.32,10.36 77.94,9.982 77.48,9.982 L 69.11,9.982 L 69.11,21.48 L 67.08,21.48 L 67.08,8.69 L 78.51,8.69 C 79.53,8.69 80.35,9.514 80.35,10.53 L 80.35,20.08 C 80.35,20.85 79.72,21.48 78.95,21.48 M 77.64,12.56 L 76.66,12.56 L 77.31,13.36 C 76.43,14.14 75.77,14.57 75.77,14.57 L 74.98,13.78 L 76.09,12.56 L 74.6,12.56 L 74.6,14.72 L 77.59,14.72 L 77.59,16.01 L 74.6,16.01 L 74.6,17.61 L 77.59,17.61 L 77.59,18.9 L 69.84,18.9 L 69.84,17.61 L 72.56,17.61 L 72.56,16.01 L 69.84,16.01 L 69.84,14.72 L 72.56,14.72 L 72.56,12.56 L 69.79,12.56 L 69.79,11.27 L 77.64,11.27 L 77.64,12.56" class="ps01" id="path43" style="fill: rgb(35, 31, 32); fill-rule: nonzero; stroke: none;"/>
<g id="xfrm1" transform="scale(100)">
<g id="frm2" transform="scale(0.01)">
</g>
</g>
</g>
</svg>