<svg id="Layer_1" data-name="Layer 1" xmlns="http://www.w3.org/2000/svg" width="49.66" height="64" viewBox="0 0 49.66 64"><defs><style>.cls-1{fill:#F15B3E;}.cls-2{fill:none;}.cls-3{fill:#FFFFFF;}</style></defs><title>document</title><g id="Page-1"><g id="Software"><g id="Read-Documentation"><g id="Group-2"><g id="Group-13"><path id="Fill-1" class="cls-1" d="M6.36,64.57a3.28,3.28,0,0,1-3.26-3.3V6.73a3.28,3.28,0,0,1,3.26-3.3H46.63a3.28,3.28,0,0,1,3.26,3.3V61.27a3.28,3.28,0,0,1-3.26,3.3Z" transform="translate(-1.66 -2)"/><path class="cls-2" d="M46.63,66H6.36a4.72,4.72,0,0,1-4.7-4.73V6.73A4.72,4.72,0,0,1,6.36,2H46.63a4.71,4.71,0,0,1,4.69,4.73V61.27A4.71,4.71,0,0,1,46.63,66ZM6.36,4.87A1.84,1.84,0,0,0,4.53,6.73V61.27a1.84,1.84,0,0,0,1.83,1.86H46.63a1.84,1.84,0,0,0,1.83-1.86V6.73a1.84,1.84,0,0,0-1.83-1.86Z" transform="translate(-1.66 -2)"/><path class="cls-3" d="M43.1,16.94h-34a1.43,1.43,0,1,1,0-2.86h34a1.43,1.43,0,0,1,0,2.86Z" transform="translate(-1.66 -2)"/><path class="cls-3" d="M43.1,29h-34a1.44,1.44,0,0,1,0-2.87h34a1.44,1.44,0,0,1,0,2.87Z" transform="translate(-1.66 -2)"/><path class="cls-3" d="M43.1,41.09h-34a1.43,1.43,0,0,1,0-2.86h34a1.43,1.43,0,0,1,0,2.86Z" transform="translate(-1.66 -2)"/><path class="cls-3" d="M43.1,53.17h-34a1.44,1.44,0,0,1,0-2.87h34a1.44,1.44,0,0,1,0,2.87Z" transform="translate(-1.66 -2)"/></g></g></g></g></g></svg>