<?xml version="1.0" encoding="utf-8"?>
<!-- Generator: Adobe Illustrator 23.0.3, SVG Export Plug-In . SVG Version: 6.00 Build 0)  -->
<svg version="1.1"
	 id="Layer_1" xmlns:cc="http://creativecommons.org/ns#" xmlns:dc="http://purl.org/dc/elements/1.1/" xmlns:inkscape="http://www.inkscape.org/namespaces/inkscape" xmlns:rdf="http://www.w3.org/1999/02/22-rdf-syntax-ns#" xmlns:sodipodi="http://sodipodi.sourceforge.net/DTD/sodipodi-0.dtd" xmlns:svg="http://www.w3.org/2000/svg"
	 xmlns="http://www.w3.org/2000/svg" xmlns:xlink="http://www.w3.org/1999/xlink" x="0px" y="0px" viewBox="0 0 515 195"
	 style="enable-background:new 0 0 515 195;" xml:space="preserve">
<style type="text/css">
	.st0{fill:#394C63;}
</style>
<sodipodi:namedview  bordercolor="#666666" borderopacity="1" gridtolerance="10" guidetolerance="10" id="namedview3773" inkscape:current-layer="Layer_1" inkscape:cx="285.2126" inkscape:cy="312.85039" inkscape:pageopacity="0" inkscape:pageshadow="2" inkscape:window-height="1843" inkscape:window-maximized="0" inkscape:window-width="3830" inkscape:window-x="0" inkscape:window-y="250" inkscape:zoom="1.9242424" objecttolerance="10" pagecolor="#ffffff" showgrid="false">
	</sodipodi:namedview>
<g id="g3770" transform="translate(-49.057,-297.288)">
	<path id="path3766" inkscape:connector-curvature="0" class="st0" d="M155.5,360.9c-6.4,0-11.9,1.7-16.7,5.2
		c-2.9,2.1-5.7,5.9-8.1,9.3c-1.4-5.9-3.3-13.5-3.3-13.5l-18.2,0c-1,0-1.8,0.8-1.8,1.8v6.9c0,1,0.8,1.8,1.8,1.8l10.1,0
		c0,0,2.5,8.9,4.1,15.2c-2.1,3.8-4.2,7.1-5.9,10.5c-10,19.4-14.6,32.7-14.6,47.4c0,17.5,7.7,28.9,19.1,28.9
		c13.3,0,21.2-11.9,21.2-32.5c0-0.4,0-1.7-0.1-2.5c3.2,1.6,7.6,2.9,11.4,2.9c14.7,0,26.9-9.7,29.5-23.1c1.1-5.5,1.5-10.5,1.5-17.4
		c0-7.3-0.8-13.6-2.3-18.8C179.3,368.9,169.1,360.9,155.5,360.9L155.5,360.9z M122.1,464.1c-5.6,0-8.6-9.4-8.6-18.7
		c0-11.8,3.4-24.9,13.7-44.7c3,13.8,5.5,30.8,5.5,41C132.8,448.5,131.7,464.1,122.1,464.1L122.1,464.1z M173.8,417.1
		c-1.6,8.4-9.8,14.9-19.4,14.9c-4,0-8.2-1.4-11.8-2.6c-1.5-12.9-4.9-28.8-7.9-41.2c1.9-3.4,3.3-6,6.7-10c4.9-5.9,9.7-7,14.2-7
		c11.1,0,15.8,8.2,17.7,14.8c0.8,2.9,1.9,8,1.9,15.8C175.1,407.9,174.7,412.2,173.8,417.1z"/>
	<path id="path3768" inkscape:connector-curvature="0" class="st0" d="M513,426.4l-5.4-4.3c-0.3-0.3-0.7-0.5-1.2-0.5
		c-0.5,0-1,0.2-1.3,0.6h0c-1.7,2.1-5,5.5-5.4,5.9c-1.9,1.9-4.6,3.4-7.4,3.4c-5.1,0-8.4-1.5-8.4-10.5v-48.6h17.3c1,0,1.8-0.8,1.8-1.8
		v-6.9c0-1-0.8-1.8-1.8-1.8h-13.5v0h-3.8l0-19.9c0-1-0.8-1.8-1.8-1.8h-6.9c-1,0-1.8,0.8-1.8,1.8v19.8H465c-1,0-1.8,0.8-1.8,1.8v6.9
		c0,1,0.8,1.8,1.8,1.8h8.3v0v36.3c-2.4,2.7-9.2,9.9-12.3,13.1c-0.6,0.6-1.3,1.2-2,1.8c-3.5,3-7.3,4.9-11.8,6.3
		c-5.5,1.7-10.1,2.2-17.2,2.2c-10.7,0-16-7.2-16-7.2c0.9-0.9,13.1-13.2,13.1-13.2c10.1-10.4,18.2-20.4,19.9-22.3
		c0,0,2.1-2.2,3.8-5.4c3.7-7,3.8-14.3-2.6-19.4c-3-2.4-8.5-4-18-3.8c-14.1,0.3-28,8.5-30.9,23c-0.8,4-1.5,8.5-1.5,17.1
		c0,2.1,0,4.8,0.1,6.6c0.2,4,0.6,7.6,1.3,11.4c0.3,1.7,0.9,2.9,1.5,5c-1.5,1.9-3,3.6-5.2,5.4c-1.6,1.3-4.3,1.8-5.7,1.8l-0.5,0
		c-3.8,0-6.2-2.1-9.3-5.4l-0.5-0.5c-1.5-1.6-12.4-15.5-20.4-25.9l18-19l10-10.6c0.7-0.7,0.7-1.9-0.1-2.6l-5-4.7
		c-0.7-0.7-1.9-0.7-2.6,0.1l-1.3,1.4l0,0l-26.8,28.4l-6,6.4v-71.4c0-1-0.8-1.8-1.8-1.8h-5.1v0h-1.8c-1,0-1.8,0.8-1.8,1.8v23.5h0
		v59.1c-0.9,1-5.7,6.1-9.2,9.9c-3,3.3-7.1,7.4-11.8,9.8c-3.6,1.9-5.7,2.5-14.8,2.5c-9.5,0-17.6-6.6-19.2-14.9
		c-0.9-4.9-1.3-9.2-1.3-15.4c0-6.6,0.5-12,1.4-16.1c1.8-8.2,9.8-14.4,19.1-14.4c7.3,0,13.3,3.2,16.2,8c0.2,0.4,0.7,0.9,1.2,1.1
		c0.6,0.2,1,0,1.4-0.2l6.1-3.3c0.5-0.3,0.9-0.8,0.9-1.5c0-0.3-0.1-0.6-0.2-0.8l-0.4-0.8c-4.8-8-14.2-12.8-25.3-12.8
		c-14.3,0-26.8,9.4-29.7,22.3c-1.1,4.9-1.7,11.1-1.7,18.5c0,6.8,0.4,11.8,1.5,17.4c0.3,1.4,1,3.5,1.5,4.8c0,0-1.4,1.9-4.2,4.5
		c-3.7,3.4-7.5,3-9.3,2.6c-3-0.6-4.3-3.5-4.4-6.6c0,0,0-34.3,0-36.7c0-15.7-12.2-26.7-29.8-26.7c-9.2,0-18.2,3.9-24,10.4
		c-0.9,1.1-1.8,2.2-2.5,3.5c0,0-0.2,0.6-0.2,0.9c0,0.7,0.4,1.3,1,1.7v0l5.9,3.1h0c0.3,0.1,0.6,0.2,0.9,0.2c0.6,0,1.2-0.3,1.5-0.8
		c0,0,0.4-0.7,1.3-1.6c3.8-4.3,9.9-7.2,16.1-7.2c11.7,0,18.9,6.7,18.9,16.5c0,0.7,0,1.2,0,2.4l-10.1,0c-35.5,0-38.3,22.7-38.3,29.7
		c0,5.5,1.9,10.5,5.4,14.7c5.6,6.5,12.6,7.8,18.9,7.8c5.7,0,12.6-2.5,17.8-5.8c2.6-1.6,5-4,7.2-6.5c1.7,7.2,7.6,12.3,14.5,12.3
		c5.3,0,8.4-1,12.8-3.9c1.4-0.9,4.2-3.3,6.2-5.8c5.6,6.2,13.5,9.6,22.7,9.6c9.4,0,13.6-0.3,19.6-3.5c2.8-1.5,6.5-4,9.5-7.1
		c2.2-2.2,4.5-4.9,6.6-7.4l0,15.6c0,1,0.8,1.8,1.9,1.8h6.9c1,0,1.8-0.8,1.8-1.8v-26.3l6.5-6.8c7.3,9.3,18.3,23.4,20.1,25.5l0.5,0.5
		c3.2,3.4,8.1,9.3,16.8,9.3c0.4,0,3.3,0,5.4-0.9c6.1-2.7,10.5-7.4,11.8-8.8c0.9,0.9,2.5,2.5,3.5,3.3c5.8,4.5,12.8,6.4,21.2,6.4
		c7.9,0,13.4-0.3,19-2.2c4.7-1.6,12.7-6.2,17.2-10.8c1.5-1.5,4-3.8,5.9-6.2c0.6,12.6,6.7,19.3,19.3,19.3c7.2,0,11.1-4,13.4-6.3
		c0.3-0.3,7.1-7.1,7.1-7.1c0.3-0.3,0.4-0.7,0.4-1.1C513.6,427.3,513.4,426.8,513,426.4L513,426.4z M241.8,409.7
		c0,10.9-11.8,21.5-22.4,21.5c-7.8,0-10.8-2-12.4-3.8c-1.9-2.2-2.9-4.8-2.9-7.8c0-12.3,9.9-19.1,27.7-19.1l10,0V409.7z M409.5,414.5
		c0,0-0.7-4.4-0.8-10.4c0-2.3,0-4.9,0.1-7.7c0.1-2.6,0.5-6.3,0.9-8.8c0.9-6.2,3.8-9.6,7.2-12.3c3.7-3,9.1-4.7,17.3-4.7
		c7.8,0,9,4.9,7.6,7.5c-3.4,6.8-12,14.6-20.7,24L409.5,414.5z"/>
</g>
</svg>
