<?xml version="1.0" encoding="utf-8"?>
<!-- Generator: Adobe Illustrator 15.0.0, SVG Export Plug-In . SVG Version: 6.00 Build 0)  -->
<!DOCTYPE svg PUBLIC "-//W3C//DTD SVG 1.1//EN" "http://www.w3.org/Graphics/SVG/1.1/DTD/svg11.dtd">
<svg version="1.1" id="图层_1" xmlns="http://www.w3.org/2000/svg" xmlns:xlink="http://www.w3.org/1999/xlink" x="0px" y="0px"
	 width="612px" height="137px" viewBox="0 0 612 137" enable-background="new 0 0 612 137" xml:space="preserve">
<g>
	<g>
		<g>
			<path fill="#FFFFFF" stroke="#FFFFFF" stroke-width="2" stroke-miterlimit="10" d="M113.338,0"/>
		</g>
	</g>
	<g>
		<path fill="#F2D75D" d="M139.016,38.854c-7.602-4.393-16.555-6.926-25.846-6.926l0.169,14.359L139.016,38.854z"/>
		<polygon fill="#DB2856" points="138.847,128.216 145.435,102.201 113.169,120.783 		"/>
		<path fill="#F6907F" d="M164.692,83.619c0-9.46-2.534-18.244-6.926-25.846l-12.332,7.095L164.692,83.619z"/>
		<polygon fill="#B62748" points="113.169,120.783 145.435,102.201 113.169,83.45 		"/>
		<path fill="#D9E365" d="M87.324,38.854c-7.771,4.561-14.359,11.149-18.92,18.919l12.332,7.095L87.324,38.854z"/>
		<path fill="#41ADE2" d="M68.404,57.773c-4.392,7.602-6.926,16.386-6.926,25.846l19.257-18.751L68.404,57.773z"/>
		<path fill="#F1EC5F" d="M113,31.927c-9.46,0-18.075,2.534-25.846,6.926L113,46.286V31.927z"/>
		<path fill="#5698D2" d="M61.478,83.619c0,9.46,2.534,18.075,6.757,25.846l12.5-7.095L61.478,83.619z"/>
		<path fill="#F6C778" d="M157.766,57.773c-4.561-7.771-10.98-14.359-18.919-18.919l6.419,26.184L157.766,57.773z"/>
		<polygon fill="#F5B052" points="139.016,38.854 113.169,46.286 145.435,64.868 		"/>
		<polygon fill="#F05758" points="164.692,83.619 145.435,64.868 145.435,102.201 		"/>
		<polygon fill="#DBCF3E" points="87.324,38.854 80.735,64.868 113.169,46.286 		"/>
		<polygon fill="#2D8EA7" points="61.478,83.619 80.735,102.201 80.735,64.868 		"/>
		<polygon fill="#C2B639" points="113.169,46.117 80.735,64.868 113.169,83.45 		"/>
		<polygon fill="#D6262D" points="145.435,102.201 145.435,64.868 113.169,83.45 		"/>
		<polygon fill="#375AA9" points="87.155,128.385 113.169,120.783 80.735,102.201 		"/>
		<polygon fill="#E28D30" points="145.435,64.868 113.169,46.286 113.169,83.45 		"/>
		<polygon fill="#34419A" points="80.735,102.201 113.169,120.783 113.169,83.45 		"/>
		<polygon fill="#2B7197" points="80.735,64.868 80.735,102.201 113.169,83.45 		"/>
		<path fill="#4576BB" d="M68.235,109.296c4.561,7.771,11.149,14.358,18.92,18.92l-6.419-26.015L68.235,109.296z"/>
		<path fill="#ED6380" d="M113.169,135.311c9.46,0,17.906-2.703,25.677-6.926l-25.677-7.433V135.311z"/>
		<path fill="#F15F79" d="M138.847,128.216c7.771-4.562,14.527-10.98,19.088-18.92l-12.5-7.264L138.847,128.216z"/>
		<path fill="#5678BB" d="M87.155,128.385c7.602,4.393,16.555,6.926,26.015,6.926v-14.358L87.155,128.385z"/>
		<path fill="#F37A81" d="M145.435,102.201l12.5,7.264c4.392-7.602,6.757-16.386,6.757-25.846L145.435,102.201z"/>
		<g>
			<path fill="#FFFFFF" stroke="#FFFFFF" stroke-width="2" stroke-miterlimit="10" d="M113.338,137"/>
			<path fill="#FFFFFF" stroke="#FFFFFF" stroke-width="2" stroke-miterlimit="10" d="M113.338,31.083"/>
			<path fill="#FFFFFF" stroke="#FFFFFF" stroke-width="2" stroke-miterlimit="10" d="M159.118,110.479"/>
			<path fill="#FFFFFF" stroke="#FFFFFF" stroke-width="2" stroke-miterlimit="10" d="M67.559,57.604"/>
			<path fill="#FFFFFF" stroke="#FFFFFF" stroke-width="2" stroke-miterlimit="10" d="M159.118,57.604"/>
			<path fill="#FFFFFF" stroke="#FFFFFF" stroke-width="2" stroke-miterlimit="10" d="M67.559,110.479"/>
			<path fill="#FFFFFF" stroke="#FFFFFF" stroke-width="2" stroke-miterlimit="10" d="M79.891,103.215"/>
			<path fill="#FFFFFF" stroke="#FFFFFF" stroke-width="2" stroke-miterlimit="10" d="M86.817,129.736"/>
			<path fill="#FFFFFF" stroke="#FFFFFF" stroke-width="2" stroke-miterlimit="10" d="M113.338,122.641"/>
			<path fill="#FFFFFF" stroke="#FFFFFF" stroke-width="2" stroke-miterlimit="10" d="M86.817,129.736"/>
			<path fill="none" stroke="#FFFFFF" stroke-width="2" stroke-miterlimit="10" d="M139.691,129.736"/>
			<path fill="none" stroke="#FFFFFF" stroke-width="2" stroke-miterlimit="10" d="M113.338,122.641"/>
			<path fill="none" stroke="#FFFFFF" stroke-width="2" stroke-miterlimit="10" d="M139.691,129.736"/>
			<path fill="none" stroke="#FFFFFF" stroke-width="2" stroke-miterlimit="10" d="M146.786,103.215"/>
			<path fill="none" stroke="#FFFFFF" stroke-width="2" stroke-miterlimit="10" d="M166.213,83.957"/>
			<path fill="none" stroke="#FFFFFF" stroke-width="2" stroke-miterlimit="10" d="M146.786,103.215"/>
			<path fill="none" stroke="#FFFFFF" stroke-width="2" stroke-miterlimit="10" d="M166.213,83.957"/>
			<path fill="none" stroke="#FFFFFF" stroke-width="2" stroke-miterlimit="10" d="M146.786,64.699"/>
			<path fill="none" stroke="#FFFFFF" stroke-width="2" stroke-miterlimit="10" d="M146.786,64.699"/>
			<path fill="none" stroke="#FFFFFF" stroke-width="2" stroke-miterlimit="10" d="M139.691,38.178"/>
			<path fill="none" stroke="#FFFFFF" stroke-width="2" stroke-miterlimit="10" d="M139.691,38.178"/>
			<path fill="none" stroke="#FFFFFF" stroke-width="2" stroke-miterlimit="10" d="M113.338,45.441"/>
			<path fill="none" stroke="#FFFFFF" stroke-width="2" stroke-miterlimit="10" d="M113.338,45.441"/>
			<path fill="none" stroke="#FFFFFF" stroke-width="2" stroke-miterlimit="10" d="M86.817,38.178"/>
			<path fill="none" stroke="#FFFFFF" stroke-width="2" stroke-miterlimit="10" d="M79.891,64.699"/>
			<path fill="none" stroke="#FFFFFF" stroke-width="2" stroke-miterlimit="10" d="M86.817,38.178"/>
			<path fill="none" stroke="#FFFFFF" stroke-width="2" stroke-miterlimit="10" d="M60.464,83.957"/>
			<path fill="none" stroke="#FFFFFF" stroke-width="2" stroke-miterlimit="10" d="M79.891,64.699"/>
			<path fill="none" stroke="#FFFFFF" stroke-width="2" stroke-miterlimit="10" d="M79.891,103.215"/>
			<path fill="none" stroke="#FFFFFF" stroke-width="2" stroke-miterlimit="10" d="M60.464,83.957"/>
		</g>
		<path opacity="0.3" fill="#FFFFFF" enable-background="new    " d="M126.853,90.714"/>
		<path fill="#010100" d="M159.456,126.526h-2.872v-1.183h7.264v1.183h-2.872v8.277h-1.521V126.526z"/>
		<path fill="#010100" d="M165.368,125.344h1.858l1.858,5.068c0.169,0.676,0.507,1.352,0.676,2.027l0,0
			c0.169-0.676,0.507-1.352,0.676-2.027l1.858-5.068h1.858v9.967h-1.521v-4.898c0-0.845,0.169-2.196,0.169-3.041l0,0l-0.845,2.365
			l-1.689,4.73h-1.014l-1.858-4.73l-0.844-2.365l0,0c0,0.845,0.168,2.196,0.168,3.041v4.898h-1.52v-9.967H165.368z"/>
		<g>
			<g>
				<path fill="#FFFFFF" d="M110.298,44.597l0.169,68.247l-21.285-12.163l16.048-9.291c0,0-2.365-4.562-7.602-2.027l-19.596,11.318
					l38.009,21.792V54.226l21.116,12.163l-16.048,9.291c0,0,2.872,4.729,7.771,1.857l19.595-11.317L110.298,44.597z"/>
			</g>
		</g>
	</g>
	<path fill="#000100" d="M491.566,50.847c-0.507,1.183-0.845,2.196-1.352,3.209h22.637v3.21h-24.157
		c-0.844,1.858-1.688,3.547-2.533,5.236c0.169,0-0.169,0,0,0h18.582c3.04,0,5.743,2.534,5.743,6.082V86.66
		c0,3.209-2.534,6.081-5.574,5.912h-3.379v-3.21h3.548c1.014-0.169,1.858-1.183,1.858-2.702v-2.027h-22.637v8.446h-3.886V71.287
		c-1.52,2.027-2.702,3.041-4.392,4.73l-2.365-2.703c4.224-4.223,7.939-8.953,11.318-15.71h-9.967v-3.209h11.487
		c0.676-1.352,1.352-3.209,2.027-4.73L491.566,50.847z M484.134,68.247v3.547h22.637v-3.378c0-1.521-1.352-2.703-1.858-2.703
		l-18.751,0.169C485.485,65.882,484.134,67.233,484.134,68.247z M484.134,81.085h22.637v-5.912h-22.637V81.085L484.134,81.085z"/>
	<path fill="#000100" d="M514.879,64.699h36.657v3.378h-26.015l-4.393,20.778h22.805c0.845-0.168,2.027-0.844,1.858-4.392V74.159
		h3.717v10.136c0.338,4.729-2.027,7.602-5.068,7.771h-27.873l4.73-24.157h-6.419V64.699z M516.398,54.057h33.617v3.21h-33.617
		V54.057z"/>
	<path fill="#000100" d="M176.686,51.523c0-0.845,0.845-1.689,2.027-1.689c1.014,0,1.858,0.845,1.858,1.689v28.042
		c0,5.744,3.717,9.123,7.771,9.123h7.433c4.561-0.676,7.264-5.068,7.264-9.123V51.692c0-1.014,0.844-1.858,1.858-1.858
		s2.027,0.845,2.027,1.689v28.042c-0.338,6.758-4.392,12.332-11.149,12.67h-7.433c-5.744-0.169-11.487-4.393-11.487-12.67
		L176.686,51.523z"/>
	<path fill="#000100" d="M228.716,61.321c5.237,0,9.798,3.885,9.798,10.135v19.089c0,0.845-0.845,1.689-1.858,1.689
		s-1.858-0.845-1.858-1.689V71.456c0-4.054-2.534-6.926-6.082-6.926h-9.967v25.846c0,1.014-0.845,1.858-1.858,1.858
		c-1.183,0-1.858-0.845-1.858-1.689V64.023c0-1.352,1.014-2.703,2.872-2.703H228.716z"/>
	<path fill="#000100" d="M246.284,51.523c0-1.014,0.676-1.689,1.689-1.689c1.013,0,1.858,0.676,1.858,1.689v1.182
		c0,1.014-0.676,1.689-1.858,1.689c-1.014,0-1.689-0.676-1.689-1.689V51.523z M246.284,62.841c0-1.014,0.676-1.858,1.689-1.858
		c1.013,0,1.858,0.675,1.858,1.858v27.366c0,1.014-0.676,1.689-1.858,1.689c-1.014,0-1.689-0.676-1.689-1.689V62.841z"/>
	<path fill="#000100" d="M260.136,56.591c0-1.014,0.845-1.689,1.858-1.689c1.013,0,1.858,0.845,1.858,1.689v5.067h7.939
		c1.183,0,1.858,0.676,1.858,1.689s-0.676,1.689-1.858,1.689h-7.939v17.737c0,4.392,1.352,6.588,5.744,6.588h2.196
		c1.183,0,1.858,0.845,1.858,1.689c0,1.014-0.676,1.689-1.858,1.689h-2.196c-6.757,0-9.291-3.548-9.291-9.967V65.037h-3.209
		c-1.014,0-1.858-0.676-1.858-1.689s0.676-1.689,1.858-1.689h3.209v-5.067H260.136z"/>
	<path fill="#000100" d="M278.549,72.977c0-7.433,5.237-11.825,11.656-11.825c7.602,0,11.994,4.223,11.994,11.825v2.871
		c0,1.352-1.183,2.535-2.703,2.535h-17.23c0,7.432,1.689,10.473,7.771,10.473h10.135c1.183,0,1.858,0.676,1.858,1.689
		c0,0.845-0.676,1.689-1.689,1.689h-10.304c-9.122,0-11.487-4.73-11.487-14.359V72.977z M298.483,72.808
		c0-5.406-2.872-8.277-8.278-8.277c-4.898,0-7.939,3.209-7.939,8.277v2.702h16.217V72.808L298.483,72.808z"/>
	<path fill="#000100" d="M330.579,89.531c0,1.352-1.352,2.703-2.872,2.703h-10.643c-7.433,0-9.967-6.926-9.967-11.487v-9.291
		c0-6.419,4.562-10.135,9.799-10.135h9.966v-9.798c0-1.014,0.845-1.689,1.858-1.689s1.858,0.676,1.858,1.689V89.531z
		 M326.862,64.699h-9.966c-3.211,0-6.082,2.703-6.082,6.926v9.122c0,4.899,2.703,8.108,6.25,8.108h9.798V64.699z"/>
	<path fill="#000100" d="M339.025,92.234c-1.014,0-1.858-0.845-1.858-1.689s0.676-1.857,1.689-1.857h11.993
		c6.251,0,9.629-2.535,9.629-9.291c0-5.237-3.04-6.251-9.797-7.434c-7.096-1.352-13.515-2.703-13.515-11.487
		c0-7.771,5.237-10.812,13.515-10.812h10.473c1.858,0,2.027,1.014,2.027,1.858c0,0.844-0.844,1.689-1.857,1.689H350.85
		c-6.419,0-9.967,1.858-9.967,7.264c0,6.081,4.055,6.926,10.475,8.108c7.939,1.351,12.669,3.378,12.669,10.98
		c0,8.953-4.729,12.67-13.177,12.67H339.025z"/>
	<path fill="#000100" d="M372.642,56.591c0-1.014,0.845-1.689,1.858-1.689s1.858,0.845,1.858,1.689v5.067h7.939
		c1.183,0,1.858,0.676,1.858,1.689s-0.676,1.689-1.689,1.689h-8.108v17.568c0,4.393,1.688,6.588,5.912,6.588h2.196
		c1.014,0,1.689,0.845,1.689,1.689s-0.676,1.689-1.689,1.689h-2.196c-6.588,0.169-9.629-3.548-9.629-9.967V65.037h-3.378
		c-1.014,0-1.689-0.676-1.689-1.689s0.676-1.689,1.689-1.689h3.378V56.591z"/>
	<path fill="#000100" d="M393.758,64.699c-1.183,0-1.689-0.676-1.689-1.689c0-0.845,0.676-1.689,1.689-1.689H404.4
		c5.912,0,9.122,3.885,9.122,8.785V89.7c0,1.521-0.845,2.534-3.379,2.534h-10.98c-5.067,0.169-8.615-4.055-8.615-8.784
		s3.21-8.953,8.784-8.784h10.643v-4.055c0-3.209-1.858-5.743-5.574-5.743L393.758,64.699z M409.806,88.688V77.875h-10.812
		c-2.702,0-5.236,2.534-5.236,5.406c0,2.871,2.365,5.236,5.236,5.236L409.806,88.688z"/>
	<path fill="#000100" d="M439.199,61.321c1.014,0,1.689,1.013,1.689,1.858c0,0.676-0.676,1.352-1.689,1.352h-6.757
		c-5.068-0.676-8.953,3.547-8.784,9.291v5.743c0,6.42,3.378,9.629,8.784,9.291h6.588c1.014,0,1.689,0.676,1.689,1.689
		c0,0.845-0.676,1.689-1.689,1.689h-6.588c-8.446,0.507-12.501-4.223-12.501-12.838v-5.575c-0.507-8.446,4.898-13.007,12.501-12.5
		H439.199z"/>
	<path fill="#000100" d="M446.294,51.523c0-1.014,0.676-1.689,1.858-1.689c1.014,0,1.858,0.676,1.858,1.689v22.298h4.223
		c0.507,0,0.845-0.338,1.014-0.507l8.953-10.812c0.338-0.507,1.014-1.182,1.689-1.182c0.507,0,1.014,0.337,1.352,0.675
		s0.338,0.845,0.338,1.352c0,0.338-0.338,1.183-0.676,1.521l-9.291,10.812l10.474,13.852c0.169,0.338,0.338,0.676,0.338,1.014
		c0,0.507-0.169,0.845-0.676,1.352c-0.338,0.338-0.845,0.507-1.183,0.507c-0.507,0-1.183-0.338-1.521-0.676l-9.291-12.669
		c-0.507-0.676-0.845-1.352-1.521-1.352h-4.223v12.838c0,1.014-0.845,1.858-1.858,1.858s-1.858-0.845-1.858-1.689V51.523
		L446.294,51.523z"/>
	<g>
		<path fill="#241A16" d="M183.781,125.344c-3.21,0-5.744-2.365-5.744-5.912v-5.236c0-3.548,2.534-6.251,5.744-6.251h2.027
			c3.379,0,5.744,2.703,5.744,6.251v5.236c0,3.547-2.534,5.912-5.744,5.912H183.781z M185.808,123.654
			c2.196,0,3.716-1.689,3.716-4.054v-5.575c0-2.364-1.52-4.392-3.716-4.392h-2.027c-2.196,0-3.716,2.027-3.716,4.392v5.575
			c0,2.364,1.52,4.054,3.716,4.054H185.808z"/>
		<path fill="#241A16" d="M195.944,109.296c0-0.845,0.676-1.521,1.521-1.521h5.912c4.055,0,5.575,4.055,5.575,6.588v5.237
			c0,3.548-2.534,5.743-5.406,5.743h-5.574v5.574c0,0.508-0.507,1.014-1.014,1.014s-1.014-0.338-1.014-1.014V109.296
			L195.944,109.296z M197.971,123.316h5.574c1.858,0,3.379-1.52,3.379-3.885v-5.068c0-2.702-1.521-4.561-3.548-4.561h-5.405V123.316
			L197.971,123.316z"/>
		<path fill="#241A16" d="M212.499,114.363c0-4.223,2.872-6.588,6.588-6.588c4.223,0,6.757,2.365,6.757,6.588v1.689
			c0,0.845-0.676,1.352-1.521,1.352h-9.629c0,4.223,1.014,5.912,4.392,5.912h5.237c0.676,0,1.014,0.338,1.014,1.014
			c0,0.508-0.338,0.846-1.014,0.846h-5.237c-5.068,0-6.419-2.703-6.419-8.109L212.499,114.363z M223.479,114.363
			c0-3.04-1.521-4.561-4.561-4.561c-2.703,0-4.392,1.858-4.392,4.561v1.521h9.122v-1.521H223.479z"/>
		<path fill="#241A16" d="M236.993,107.775c2.872,0,5.406,2.196,5.406,5.744v10.811c0,0.508-0.507,1.014-1.014,1.014
			c-0.676,0-1.014-0.506-1.014-1.014V113.52c0-2.365-1.351-3.886-3.378-3.886h-5.575v14.528c0,0.676-0.507,1.014-1.013,1.014
			c-0.676,0-1.014-0.508-1.014-1.014v-15.035c0-0.845,0.507-1.521,1.52-1.521L236.993,107.775z"/>
		<path fill="#241A16" d="M257.096,107.775c0.676,0,1.013,0.338,1.013,0.845s-0.506,1.014-1.013,1.014h-5.237
			c-2.196,0-3.885,0.845-3.885,2.872c0,1.857,1.182,2.533,4.223,2.871l1.182,0.17c3.379,0.506,5.406,1.857,5.406,4.729
			c0,3.886-2.703,5.067-6.588,5.067h-4.73c-0.507,0-1.014-0.338-1.014-0.844c0-0.508,0.338-1.014,1.014-1.014h4.73
			c2.703,0,4.561-0.846,4.561-3.041c0-1.521-1.352-2.534-3.716-2.872l-1.521-0.169c-3.378-0.338-5.575-1.52-5.575-4.73
			c0-3.378,2.703-4.729,5.913-4.729h5.237V107.775z"/>
		<path fill="#241A16" d="M263.853,104.904c0-0.508,0.507-1.014,1.014-1.014c0.676,0,1.014,0.506,1.014,1.014v2.871h4.392
			c0.676,0,1.014,0.507,1.014,1.014s-0.338,1.014-1.014,1.014h-4.392v10.136c0,2.534,0.676,3.716,3.209,3.716h1.352
			c0.676,0,1.014,0.508,1.014,1.014c0,0.508-0.338,1.014-1.014,1.014h-1.352c-3.716,0-5.237-2.027-5.237-5.743v-10.136h-1.858
			c-0.676,0-1.014-0.338-1.014-1.014c0-0.507,0.338-1.014,1.014-1.014h1.858V104.904z"/>
		<path fill="#241A16" d="M275.847,109.634c-0.676,0-1.014-0.338-1.014-1.014c0-0.507,0.338-0.845,1.014-0.845h6.081
			c2.703,0,4.73,2.196,4.73,5.068v10.98c0,0.844-0.676,1.52-1.52,1.52h-6.419c-2.872,0-5.068-2.195-5.068-4.898
			s2.196-5.068,5.068-5.068h5.744v-2.365c0-1.857-1.183-3.209-2.872-3.209L275.847,109.634z M284.8,123.316v-6.081h-5.744
			c-1.689,0-3.041,1.352-3.041,3.041c0,1.688,1.351,3.04,3.041,3.04H284.8L284.8,123.316z"/>
		<path fill="#241A16" d="M301.186,107.775c0.676,0,1.014,0.507,1.014,0.845c0,0.507-0.338,1.014-1.014,1.014H297.3
			c-3.378,0-4.73,1.689-4.73,5.067v3.21c0,3.716,1.521,5.405,4.73,5.405h3.885c0.676,0,1.014,0.338,1.014,1.014
			c0,0.508-0.338,0.846-1.014,0.846H297.3c-4.561,0-6.757-2.365-6.757-7.265v-3.04c0-4.562,2.196-7.096,6.757-7.096H301.186z"/>
		<path fill="#241A16" d="M306.084,102.201c0-0.507,0.338-1.014,1.013-1.014c0.676,0,1.014,0.507,1.014,1.014v12.67h2.365
			c0.338,0,0.507-0.17,0.507-0.338l5.067-6.082c0.17-0.338,0.508-0.338,0.846-0.338c0.168,0,0.506,0,0.675,0.169
			s0.338,0.507,0.338,0.676s-0.169,0.507-0.338,0.676l-5.236,6.081l5.912,7.771c0.169,0.168,0.169,0.338,0.169,0.506
			c0,0.338-0.169,0.508-0.338,0.676c-0.169,0.17-0.507,0.338-0.676,0.338c-0.338,0-0.676-0.168-0.844-0.506l-5.237-7.096
			c-0.338-0.338-0.507-0.676-0.845-0.676h-2.365v7.264c0,0.676-0.506,1.014-1.014,1.014c-0.675,0-1.013-0.506-1.013-1.014V102.201z"
			/>
		<path fill="#808285" d="M332.438,101.356c0-0.845,0.676-1.521,1.52-1.521h4.393c0.676,0,1.014,0.338,1.014,1.014
			c0,0.507-0.338,1.014-1.014,1.014h-3.885v25.677h3.716c0.676,0,1.014,0.338,1.014,0.845s-0.338,1.014-1.014,1.014h-4.392
			c-0.846,0-1.521-0.676-1.521-1.521v-26.521H332.438z"/>
		<path fill="#808285" d="M353.385,107.775c0.675,0,1.013,0.507,1.013,0.845c0,0.507-0.338,1.014-1.013,1.014h-3.887
			c-3.378,0-4.729,1.689-4.729,5.067v3.21c0,3.716,1.521,5.405,4.729,5.405h3.887c0.675,0,1.013,0.338,1.013,1.014
			c0,0.508-0.338,0.846-1.013,0.846h-3.887c-4.561,0-6.756-2.365-6.756-7.265v-3.04c0-4.562,2.195-7.096,6.756-7.096H353.385z"/>
		<path fill="#808285" d="M358.283,102.201c0-0.507,0.338-1.014,1.014-1.014c0.506,0,1.014,0.507,1.014,1.014v21.961
			c0,0.676-0.508,1.014-1.014,1.014c-0.676,0-1.014-0.508-1.014-1.014V102.201z"/>
		<path fill="#808285" d="M369.77,125.344c-3.209,0-5.743-2.365-5.743-5.912v-5.236c0-3.548,2.534-6.251,5.743-6.251h2.027
			c3.379,0,5.744,2.703,5.744,6.251v5.236c0,3.547-2.534,5.912-5.744,5.912H369.77z M371.966,123.654
			c2.196,0,3.717-1.689,3.717-4.054v-5.575c0-2.364-1.521-4.392-3.717-4.392h-2.026c-2.197,0-3.717,2.027-3.717,4.392v5.575
			c0,2.364,1.52,4.054,3.717,4.054H371.966z"/>
		<path fill="#808285" d="M392.575,108.789c0-0.507,0.338-1.014,1.014-1.014s1.014,0.507,1.014,1.014v15.035
			c0,0.844-0.676,1.52-1.521,1.52H387c-2.871,0-5.405-2.195-5.405-5.743v-10.812c0-0.507,0.507-1.014,1.014-1.014
			c0.676,0,1.014,0.507,1.014,1.014v10.812c0,2.364,1.689,3.886,3.378,3.886h5.575V108.789L392.575,108.789z"/>
		<path fill="#808285" d="M411.326,123.654c0,0.846-0.676,1.521-1.521,1.521h-5.912c-4.055,0-5.575-3.887-5.575-6.42v-5.236
			c0-3.548,2.534-5.744,5.406-5.744h5.574v-5.574c0-0.507,0.507-1.014,1.014-1.014s1.014,0.338,1.014,1.014V123.654z
			 M409.299,109.634h-5.574c-1.858,0-3.379,1.521-3.379,3.886v5.067c0,2.702,1.521,4.562,3.548,4.562h5.405V109.634z"/>
		<path fill="#808285" d="M422.138,127.878c0,0.845-0.676,1.521-1.521,1.521h-4.393c-0.506,0-1.013-0.338-1.013-1.014
			c0-0.507,0.507-0.845,1.013-0.845h3.717v-25.846h-3.886c-0.507,0-1.013-0.507-1.013-1.014s0.506-1.014,1.013-1.014h4.393
			c0.845,0,1.521,0.676,1.521,1.521v26.69H422.138z"/>
		<path fill="#241A16" d="M447.983,107.775c0.676,0,1.014,0.338,1.014,0.845s-0.507,1.014-1.014,1.014h-5.237
			c-2.195,0-3.885,0.845-3.885,2.872c0,1.857,1.183,2.533,4.223,2.871l1.183,0.17c3.379,0.506,5.406,1.857,5.406,4.729
			c0,3.886-2.703,5.067-6.589,5.067h-4.729c-0.507,0-1.014-0.338-1.014-0.844c0-0.508,0.338-1.014,1.014-1.014h4.729
			c2.703,0,4.562-0.846,4.562-3.041c0-1.521-1.352-2.534-3.717-2.872l-1.52-0.169c-3.379-0.338-5.575-1.52-5.575-4.73
			c0-3.378,2.703-4.729,5.912-4.729h5.237V107.775z"/>
		<path fill="#241A16" d="M452.713,114.363c0-4.223,2.872-6.588,6.589-6.588c4.223,0,6.757,2.365,6.757,6.588v1.689
			c0,0.845-0.676,1.352-1.521,1.352h-9.629c0,4.223,1.014,5.912,4.393,5.912h5.236c0.676,0,1.014,0.338,1.014,1.014
			c0,0.508-0.338,0.846-1.014,0.846h-5.405c-5.068,0-6.42-2.703-6.42-8.109V114.363z M463.862,114.363
			c0-3.04-1.521-4.561-4.561-4.561c-2.703,0-4.393,1.858-4.393,4.561v1.521h9.122v-1.521H463.862z"/>
		<path fill="#241A16" d="M477.546,107.438c0.676,0,1.014,0.507,1.014,0.845c0,0.507-0.338,0.845-1.014,0.845h-1.183
			c-3.21,0-4.73,1.858-4.73,4.898v10.137c0,0.506-0.507,1.014-1.014,1.014c-0.675,0-1.013-0.338-1.013-1.014v-16.049
			c0-0.507,0.337-0.845,0.844-0.845s0.845,0.338,0.845,0.845v1.352c1.014-1.521,2.534-2.365,5.068-2.365L477.546,107.438z"/>
		<path fill="#241A16" d="M491.735,108.451c0.169-0.507,0.507-0.845,1.014-0.676c0.676,0,1.014,0.507,1.014,1.014
			c0,0.169,0,0.338,0,0.338l-4.224,14.189c-0.338,1.014-1.351,1.859-2.533,1.859s-2.196-0.846-2.534-1.859l-4.224-14.527v-0.169
			c0-0.507,0.338-0.845,1.014-0.845c0.507,0,1.014,0.338,1.014,0.676l4.055,14.189c0.169,0.338,0.338,0.676,0.845,0.676
			s0.676-0.168,0.845-0.676L491.735,108.451z"/>
		<path fill="#241A16" d="M497.142,102.37c0-0.507,0.338-1.014,1.013-1.014c0.507,0,1.014,0.338,1.014,1.014v0.675
			c0,0.508-0.338,1.014-1.014,1.014c-0.675,0-1.013-0.338-1.013-1.014V102.37z M497.142,108.789c0-0.507,0.338-1.014,1.013-1.014
			c0.507,0,1.014,0.507,1.014,1.014v15.541c0,0.508-0.507,1.014-1.014,1.014c-0.675,0-1.013-0.338-1.013-1.014V108.789z"/>
		<path fill="#241A16" d="M513.865,107.775c0.676,0,1.014,0.507,1.014,0.845c0,0.507-0.338,1.014-1.014,1.014h-3.886
			c-3.378,0-4.729,1.689-4.729,5.067v3.21c0,3.716,1.521,5.405,4.729,5.405h3.886c0.676,0,1.014,0.338,1.014,1.014
			c0,0.508-0.338,0.846-1.014,0.846h-3.886c-4.561,0-6.757-2.365-6.757-7.265v-3.04c0-4.562,2.196-7.096,6.757-7.096H513.865z"/>
		<path fill="#241A16" d="M517.919,114.363c0-4.223,2.872-6.588,6.589-6.588c4.223,0,6.757,2.365,6.757,6.588v1.689
			c0,0.845-0.676,1.352-1.521,1.352h-9.798c0,4.223,1.014,5.912,4.393,5.912h5.236c0.676,0,1.014,0.338,1.014,1.014
			c0,0.508-0.338,0.846-1.014,0.846h-5.236c-5.068,0-6.42-2.703-6.42-8.109V114.363L517.919,114.363z M529.068,114.363
			c0-3.04-1.521-4.561-4.561-4.561c-2.703,0-4.393,1.858-4.393,4.561v1.521h9.122v-1.521H529.068z"/>
		<path fill="#241A16" d="M545.116,107.775c0.676,0,1.014,0.338,1.014,0.845s-0.507,1.014-1.014,1.014h-5.236
			c-2.196,0-3.886,0.845-3.886,2.872c0,1.857,1.183,2.533,4.224,2.871l1.183,0.17c3.378,0.506,5.405,1.857,5.405,4.729
			c0,3.886-2.703,5.067-6.588,5.067h-4.73c-0.506,0-1.013-0.338-1.013-0.844c0-0.508,0.338-1.014,1.013-1.014h4.73
			c2.703,0,4.561-0.846,4.561-3.041c0-1.521-1.351-2.534-3.716-2.872l-1.521-0.169c-3.379-0.338-5.574-1.52-5.574-4.73
			c0-3.378,2.702-4.729,5.912-4.729h5.236V107.775z"/>
	</g>
</g>
</svg>
