<?xml version="1.0" encoding="utf-8"?>
<!-- Generator: Adobe Illustrator 15.0.0, SVG Export Plug-In . SVG Version: 6.00 Build 0)  -->
<!DOCTYPE svg PUBLIC "-//W3C//DTD SVG 1.1//EN" "http://www.w3.org/Graphics/SVG/1.1/DTD/svg11.dtd">
<svg version="1.1" id="Layer_1" xmlns="http://www.w3.org/2000/svg" xmlns:xlink="http://www.w3.org/1999/xlink" x="0px" y="0px"
	 width="612px" height="137px" viewBox="0 0 612 137" enable-background="new 0 0 612 137" xml:space="preserve">
<path fill="#1569B3" d="M569.324,52.134c-5.48,1.595-8.838,16.754,0.875,20.911l21.648,0.056c3.283-0.484,3.123-6.843,0.021-6.618
	l-13.054,0.005c-4.791-0.141-4.944-8.118-0.069-8.485l11.956,0.001l1.807,0.031c11.488,0.383,11.122,22.7,1.088,23.767l-1.995,0.002
	l-22.354,0.018c-1.051-0.07-3.229-0.949-4.467-1.909c-12.878-9.973-9.412-27.992-0.119-34.383c0.934-0.643,2.396-2,4.896-2.097
	h35.38V33.303c0-6.489-5.294-11.798-11.767-11.798h-42.608c-6.471,0-11.766,5.309-11.766,11.798v42.723
	c0,6.488,5.295,11.798,11.766,11.798h42.608c6.473,0,11.767-5.31,11.767-11.798V52.134H569.324z M557.913,29.938
	c0-0.93,0.667-1.692,1.484-1.692h39.865c0.816,0,1.483,0.762,1.483,1.692v5.576c0,0.93-0.667,1.691-1.483,1.691h-39.865
	c-0.817,0-1.484-0.761-1.484-1.691V29.938z M544.95,52.069c-4.439-0.696-4.05-8.158,0-8.655h16.407
	c-2.895,1.815-5.116,4.608-6.445,8.698L544.95,52.069z"/>
<g>
	<path fill="#1569B3" d="M306.312,86.199l19.58,0.004c2.19-13.776,4.381-27.76,6.572-41.536c0.477-2.802,1.693-3.995,2.887-4.914
		c1.179-0.905,2.445-1.365,4.205-1.402l14.033,0.009l6.99-11.875c-8.776,0-17.573,0.006-26.352,0.006
		c-3.911,0.057-9.59,1.613-14.041,5.315c-3.929,3.266-6.531,8.11-7.218,12.583L306.312,86.199L306.312,86.199z M13.911,26.481
		l-1.89,11.875l10.757,7.325L9.753,52.591L4.411,86.204l19.541-0.006l9.521-59.718L13.911,26.481L13.911,26.481z M41.422,26.492
		l42.879-0.015c7.152,0.051,15.18,6.573,14.201,16.407c-2.246,14.416-4.525,28.907-6.835,43.32l-19.54,0.001l6.618-41.621
		c0.359-2.062-0.191-3.547-1.071-4.571c-0.938-1.091-2.266-1.653-3.883-1.652c-5.081,0.001-9.64-0.014-14.723-0.012l-7.589,47.86
		l-19.549,0.001L41.422,26.492L41.422,26.492z M101.537,74.323l-1.875,11.86c14.819,0.01,28.872-0.004,43.69,0.005
		c4.283,0.016,9.109-1.75,12.638-4.569c2.529-2.019,4.463-4.372,5.9-7.206c1.008-1.988,1.785-4.432,2.06-6.586
		c0.277-2.174,0.206-4.026-0.17-5.865c-0.663-3.236-2.239-5.766-4.324-7.721c-2.562-2.403-6.024-3.857-9.499-3.874
		c-6.798,0.018-14.076-0.006-20.875,0.01c-3.354-0.019-5.082-3.05-4.977-5.01c0.066-1.223,0.409-2.411,1.013-3.451
		c1.205-2.071,3.359-3.552,5.828-3.561l36.059,0.007l1.914-11.895c-14.958,0.012-28.519,0.006-43.478,0.02
		c-6.935,0.021-14.207,3.903-18.003,10.419c-1.502,2.578-2.718,5.698-2.876,8.807c-0.14,2.721,0.11,5.212,0.995,7.388
		c2.259,5.556,7.451,9.142,13.519,9.152c7.014,0.004,13.362-0.009,20.375-0.006c1.339-0.002,2.502,0.431,3.327,1.176
		c1.286,1.161,1.837,3.085,1.633,4.533c-0.23,1.627-1.071,3.248-2.315,4.456c-1.133,1.1-2.587,1.859-4.473,1.869L101.537,74.323
		L101.537,74.323z M176.907,26.47l44.656-0.034c6.226-0.009,9.462,2.232,12.015,4.981c1.231,1.325,2.257,2.972,2.932,4.921
		c0.742,2.14,1.055,4.643,0.587,7.482c-1.307,8.557-2.667,16.622-4.028,25.179c-0.946,4.987-3.499,8.753-6.663,11.688
		c-1.456,1.351-3.147,2.465-5.019,3.387c-2.789,1.375-6.253,2.118-9.187,2.133c-5.826-0.002-10.846-0.002-16.672-0.003
		c-3.384,0.006-6.078-0.409-8.387-1.395c-1.091,7.42-2.176,14.84-3.267,22.257l-20.792,6.591l9.734-61.113l12.978-6.868
		l-10.833-7.34L176.907,26.47L176.907,26.47z M194.55,38.35l-5.712,35.934c6.075,0.046,11.843,0.011,17.805-0.002
		c0.693,0,1.384-0.066,2.001-0.242c0.9-0.262,1.681-0.727,2.381-1.274c1.423-1.113,2.383-2.704,2.687-4.305
		c1.237-7.749,2.464-15.496,3.701-23.244c0.22-1.262,0.293-2.486-0.042-3.543c-0.201-0.633-0.565-1.208-0.964-1.693
		c-0.825-1.007-2.07-1.637-3.727-1.644L194.55,38.35L194.55,38.35z M247.892,26.475l19.579,0.002l-6.412,40.042
		c-0.589,3.355-0.351,4.529,0.636,5.866c0.828,1.119,2.311,1.872,3.979,1.887c4.925-0.001,9.909,0.024,14.833,0.021l7.596-47.794
		l19.558-0.019l-9.505,59.734l-42.336-0.007c-4.907-0.013-9.09-2.34-11.642-5.599c-2.263-2.887-3.892-6.814-2.825-12.936
		C243.588,53.848,245.655,40.305,247.892,26.475z"/>
	<path fill="#1569B3" d="M377.104,22.601c4.948,2.162,11.191,5.561,16.643,9.261c-0.032,3.622,0.011,6.41-0.007,10.116
		c-5.847-3.932-11.361-6.858-16.643-9.206C377.077,29.437,377.125,25.935,377.104,22.601L377.104,22.601z M472.682,26.451
		l8.064-0.011l0.014-3.787l7.911,0.017l-0.013,3.771l8.051-0.005l-0.032,5.745l-7.998,0.028l-0.02,4.501
		c1.189,0,1.872-0.003,3.062-0.003c1.025,0.012,2.486,0.508,3.349,1.309c0.917,0.854,1.68,2.312,1.658,3.837l-0.017,22.848
		l-8.075-0.028l0.021,5.698l8.047-0.004l0.003,5.608l-8.019,0.002l-0.002,7.293l-7.945,2.902l0.013-10.227l-8.05-0.011l0.013-5.568
		l8.06,0.008l-0.023-5.685l-8.037,0.023l-0.052-28.073l8.076,0.011l0.005-4.459l-8.061,0.007L472.682,26.451L472.682,26.451z
		 M480.588,42.276l-0.01,5.653l8.166-0.016l-0.001-5.646L480.588,42.276L480.588,42.276z M480.585,53.521l0.015,5.607h8.16
		l0.006-5.611L480.585,53.521L480.585,53.521z M500.705,32.157l0.004-5.696c5.899-0.023,11.375,0.036,17.276,0.013
		c1.124,0.018,2.303,0.512,3.183,1.3c1.062,0.951,1.718,2.352,1.717,4.13c-0.007,7.815-0.032,15.495-0.019,23.168
		c0.014,8.428,0.062,16.849,0.01,25.434c-0.016,1.451-0.772,3.071-1.771,4.012c-1.061,1-2.516,1.689-3.837,1.685l-6.411-0.005
		l0.02-5.606c1.01-0.006,1.184,0.022,2.193,0.017c1.15,0.004,1.87-0.882,1.885-1.802l0.007-15.347
		c-1.957,0.001-4.441,0.004-6.398,0.005c-0.071,4.329-0.227,8.256-0.388,12.283c-0.099,2.415-0.173,4.868-0.308,7.466
		c-2.749,0.965-5.322,1.965-8.071,2.934c0.57-10.046,0.728-19.829,0.825-29.647c0.071-7.338,0.159-14.697,0.094-22.204l7.913,0.021
		l0.007,7.93l6.306,0.021l-0.003-10.118L500.705,32.157L500.705,32.157z M508.615,47.812l-0.026,10.079l6.342-0.016l0.016-10.064
		L508.615,47.812L508.615,47.812z M452.078,36.785c4.36,1.839,11.716,5.827,16.621,9.144c0.033,3.624-0.04,6.527-0.007,10.148
		c-5.125-3.505-11.85-7.042-16.631-9.188C452.073,43.557,452.066,40.119,452.078,36.785L452.078,36.785z M452.108,22.622
		c-0.023,3.333,0.011,6.848-0.009,10.183c4.356,1.883,11.202,5.374,16.619,9.219c-0.022-3.624,0.014-6.551-0.009-10.174
		C463.703,28.266,456.445,24.584,452.108,22.622L452.108,22.622z M414.432,26.458l0.008-3.786l11.78-0.01l0.008,3.792
		c3.889,0,7.078,0.032,10.969,0.032c2.722,0.046,5.634,2.457,5.641,5.797c-0.059,5.73,0.095,11.408,0.06,17.139
		c-0.011,3.685-3.145,5.869-5.732,5.872l-27.63,0.023l-0.015,2.599c2.884,0,5.056,0.004,7.939,0.004
		c2.183,2.604,4.617,5.098,6.769,7.232c2.738-2.612,4.508-4.347,6.997-7.246l12.018,0.001c-3.497,4.947-8.038,9.581-12.239,13.618
		c5.326,4.765,11.231,9.659,16.917,14.661c-5.23,0-10.317-0.055-15.549-0.055c-7.533-7.196-15.386-15.232-22.87-23.962
		c-0.014,5.851-0.068,10.881,0.001,16.649c-0.033,1.08,0.919,1.797,2.207,1.769l6.995-0.006l-2.089,5.641
		c-4.494,0-8.496,0.008-12.988,0.008c-2.45-0.025-5.854-2.034-5.844-5.918l-0.036-53.846L414.432,26.458L414.432,26.458z
		 M409.55,32.206l-0.008,5.916l18.364,0.007l-2.047,5.601l-16.338,0.001l0.012,5.836c6.717,0,13.155,0.035,19.873,0.035
		c0.781-0.015,1.746-0.556,1.749-1.856c-0.018-4.951-0.048-8.941-0.034-13.892c-0.006-0.898-0.861-1.643-1.817-1.638L409.55,32.206
		L409.55,32.206z M468.67,58.225c0.017,4.834,0.015,9.775,0.011,14.285c-1.918,1.942-3.829,3.734-5.734,5.399
		c-3.597,3.146-7.17,5.849-10.748,8.252c-0.011-4.454-0.022-8.229-0.022-12.279c1.196-0.858,2.447-1.725,3.628-2.663
		C460.328,67.613,464.645,63.28,468.67,58.225L468.67,58.225z M393.736,58.226c-0.018,5.472,0.039,9.619,0.026,14.269
		c-6.109,5.928-9.673,9.205-16.65,13.741c-0.003-4.544-0.053-8.111-0.035-12.315C383.437,69.487,387.524,65.667,393.736,58.226
		L393.736,58.226z M377.096,36.785c-0.062,3.333-0.007,6.775-0.014,10.111c5.209,2.399,10.823,5.278,16.646,9.251
		c-0.008-3.624-0.003-6.551,0.017-10.174C387.94,42.152,382.367,39.061,377.096,36.785z"/>
</g>
</svg>
