<?xml version="1.0" encoding="utf-8"?>
<!-- Generator: Adobe Illustrator 15.0.0, SVG Export Plug-In . SVG Version: 6.00 Build 0)  -->
<!DOCTYPE svg PUBLIC "-//W3C//DTD SVG 1.1//EN" "http://www.w3.org/Graphics/SVG/1.1/DTD/svg11.dtd">
<svg version="1.1" id="Layer_1" xmlns="http://www.w3.org/2000/svg" xmlns:xlink="http://www.w3.org/1999/xlink" x="0px" y="0px"
	 width="612px" height="137px" viewBox="0 0 612 137" enable-background="new 0 0 612 137" xml:space="preserve">
<metadata><?xpacket begin="﻿" id="W5M0MpCehiHzreSzNTczkc9d"?>
<x:xmpmeta xmlns:x="adobe:ns:meta/" x:xmptk="Adobe XMP Core 5.0-c060 61.134777, 2010/02/12-17:32:00        ">
   <rdf:RDF xmlns:rdf="http://www.w3.org/1999/02/22-rdf-syntax-ns#">
      <rdf:Description rdf:about=""
            xmlns:xmp="http://ns.adobe.com/xap/1.0/"
            xmlns:xmpGImg="http://ns.adobe.com/xap/1.0/g/img/">
         <xmp:CreatorTool>Adobe Illustrator CS5</xmp:CreatorTool>
         <xmp:CreateDate>2019-04-08T16:58:37-05:00</xmp:CreateDate>
         <xmp:Thumbnails>
            <rdf:Alt>
               <rdf:li rdf:parseType="Resource">
                  <xmpGImg:width>256</xmpGImg:width>
                  <xmpGImg:height>48</xmpGImg:height>
                  <xmpGImg:format>JPEG</xmpGImg:format>
                  <xmpGImg:image>/9j/4AAQSkZJRgABAgEASABIAAD/7QAsUGhvdG9zaG9wIDMuMAA4QklNA+0AAAAAABAASAAAAAEA&#xA;AQBIAAAAAQAB/+4ADkFkb2JlAGTAAAAAAf/bAIQABgQEBAUEBgUFBgkGBQYJCwgGBggLDAoKCwoK&#xA;DBAMDAwMDAwQDA4PEA8ODBMTFBQTExwbGxscHx8fHx8fHx8fHwEHBwcNDA0YEBAYGhURFRofHx8f&#xA;Hx8fHx8fHx8fHx8fHx8fHx8fHx8fHx8fHx8fHx8fHx8fHx8fHx8fHx8fHx8f/8AAEQgAMAEAAwER&#xA;AAIRAQMRAf/EAaIAAAAHAQEBAQEAAAAAAAAAAAQFAwIGAQAHCAkKCwEAAgIDAQEBAQEAAAAAAAAA&#xA;AQACAwQFBgcICQoLEAACAQMDAgQCBgcDBAIGAnMBAgMRBAAFIRIxQVEGE2EicYEUMpGhBxWxQiPB&#xA;UtHhMxZi8CRygvElQzRTkqKyY3PCNUQnk6OzNhdUZHTD0uIIJoMJChgZhJRFRqS0VtNVKBry4/PE&#xA;1OT0ZXWFlaW1xdXl9WZ2hpamtsbW5vY3R1dnd4eXp7fH1+f3OEhYaHiImKi4yNjo+Ck5SVlpeYmZ&#xA;qbnJ2en5KjpKWmp6ipqqusra6voRAAICAQIDBQUEBQYECAMDbQEAAhEDBCESMUEFURNhIgZxgZEy&#xA;obHwFMHR4SNCFVJicvEzJDRDghaSUyWiY7LCB3PSNeJEgxdUkwgJChgZJjZFGidkdFU38qOzwygp&#xA;0+PzhJSktMTU5PRldYWVpbXF1eX1RlZmdoaWprbG1ub2R1dnd4eXp7fH1+f3OEhYaHiImKi4yNjo&#xA;+DlJWWl5iZmpucnZ6fkqOkpaanqKmqq6ytrq+v/aAAwDAQACEQMRAD8A9U4q4kAVOwHU4q8785+b&#xA;zdOdP06Ui1XaeZD/AHh/lB/lH45yna3anGfDxn09T3/s+96Ts3s/gHHMeroO5JfK2pXllrVqIHbh&#xA;NKkcsQOzq7Bdx477ZruztRPHmjw9SAQ5uuwxnilfQW9H8weZrHRY09YGWeXeOBKVoP2iT0Gdbru0&#xA;IacC95Ho81pNFPOdtgOqB8v+eLPVroWkkJtbhqmIFg6tTenKi7/RmPoe14Z5cBHDLp1b9X2ZLDHi&#xA;B4gyXNu6x2KuxV2KuxV2KuxV2KuxV2KuxV2KuxV2KuxV2KuxV2KuxV2KuxV2KuxV2KuxV2KsF1b8&#xA;x5I7mSLTrdHjQlRPKSQ1O4VSu305zWp7eIkRjAIHUu+0/YwMQZk33BjuoeZ9f1b/AEeSY8JDxFvC&#xA;OIYntQfE3yJzVZ+0c+f0k7HoHZYdDhxeoDl1KMi8kyxor6rf2+mhhURyMGkp/q1Ufccvj2QQLyzj&#xA;j9/Npl2mCaxxlP7laC48qaDJ9ZtZX1XUEH7kleEKMRTlv/blkJ6XTHiiTkydOgH4+LCcNRqBwyHh&#xA;w697HNQ1C61C7ku7p+c0hqT0AHYAeAzU588sszKXMuyw4o44iMeQXaTdC01O0uSaLDMjt/qhgT+G&#xA;S02TgyRl3EIzw48co94L2vruM9DeHdirsVdiqhqE1xDYXM1tH61xHE7ww/zuqkqu3idsVebfkh54&#xA;/MXzVHrLectJ/RgtGtxYH6rNa+oZBJ6opMzcuHFOnjiksp8ofmZ5H84z3Vv5c1Rb+ayCtcoIpoiq&#xA;sSAR6yR8hUfs1xQyfFXYq7FXYq7FXYq7FVK6uoLS1murhuEFujSyvQniiAsxoKnYDFULoeu6Vrmm&#xA;x6lpU/1mymLCOXi6VKMVb4XCsKEdxiqPxV2KuxV2KuxV2KuxV2KsK/LTzjq3mX9N/pBYl/R94beD&#xA;0VK/AK/aqzVO2Ks1xV47r2gXmj3jRTKTAxPoT/suvb6fEZwOt0U8E6PLoe97PSauOaNjn1CYeRY0&#xA;/SdzccQ89rayS28Z7uKD+OZXY8R4kpczGJI97j9qE+GB0lIApBcXE9zO887mSaQ8ndtySc1mTJKc&#xA;jKRsl2EICIoCgE28ueXv0k0lzdP9X0y2Ba4uOnQV4r75m6DQ+NcpHhxx5lxNZq/CqMRc5cgjpPMv&#xA;l2FvQttChltF29SWnqsPHkVYr9+ZMu0NPE8McUTHz5uONFmO8shEvLkhPMGlWCW1tq2l8hp12Svp&#xA;P9qKQdUPXwOUa7TQEY5cX93Lp3HubtJnmZHHk+uP2hl3krzRDe2sen3Thb2FeMZJ/vUUbU/ygOo+&#xA;nN72T2iMkRjkfWPtdP2loTCRnH6T9jKs3bqXkv8Azkl5+1zyl5NtV0Oc2l/qlz9XN2gHOOFY2Z+B&#xA;P2XJ4gN1G9N8Uh5b5Y/J/wDO7zJ5bs/MEHnGSFdRi+sW8E9/e+oVfdS7KHALde+Ksh/IPzb5+fTP&#xA;OGja/cXkx0m0ea0nuy7SwTKJFaMSPVjuoIBO1NsVKK/5xP8ANHmXXF80rrerXmqC2Ngbf65PJcGP&#xA;1PrHPgZGanLgtaeGKl45+THlb8w/MGp6jD5K1pNFuoIEe7leeaD1Iy9FWsMcpND44pL0D885fzT8&#xA;lReUr5vM980r2S2uoNa3M6W73tq3MuyAor+okgFWWrcTXFAewefPzGhsvyZuPN9jL6U2o6fGdOZD&#xA;R0nvVCpx/wAqIuW/2OKsc/5xek82ah5T1DXfMGrXupJfXIisFvZ5Z+EduCHdDIzU5u5U0/lxUoD8&#xA;s9H85+dtKubjUfNOoW+l29w0aLDMxmklKIzhnJqEVStFNRU7UwoRHnzy95j8g2dr5g0nzPqF0iXC&#xA;RS2l5I0ityDMK78WX4aFSv04qyP8yvMeu3D+WNC0O7fTpfMj1nuo/wC8jiIT7JFCP7wk8SDt1wKq&#xA;N+Ts3pn0/N2tLNT4XNwSobx4ih6++KobyZ5g1fUvy98z2GsTm51HRlvbN7ht2dFhbiWb9o15Cv34&#xA;qkP5XeQtT1byjZ6hB5o1TTInklAsrSZkiXhIQaLyp8VKnbCrJNC1HUdO/OfWtFu7uaWx1K2F3YRS&#xA;yM6qwCsQisSFA/eDbwwKlP5rXev6v50tPLeiX09obTT5724+ryOgMgR3RXCFevpqoPblhVl35beZ&#xA;vr/5c2Wq30xkltIZUvJWPJq2xYFmJ6koobArCNA81+YtN/KbW/NktzLNqV/eMbJpmMiRK8iRVRXq&#xA;AFYvQUpsNsKptov5V6vqOl22oat5t1b69eRJPKkM5VEaRQ3EVLV41ptTAqn5XuPMXlT8zIvJ99q0&#xA;2raZqVq1zaPdEtIjBXbYksR/cuKVp3phVL7h/POt/mn5g0DStdn07T0Eck8nJpPRiVE2gQn4GZ33&#xA;40+fiqzLyv8Al/rmjaxHf3nmzUdWhjV1NlcPIYmLLxBYNK4+GtRtgVIPyOdETzU7sFRdRYsxNAAO&#xA;VSTirrTWdc/MDzqf0Re3Fh5O0R6T3NtI8LXkta8eSFSVbw7LvsWGFXpeo6daahaPa3SB4nH0g9mB&#xA;7EZRnwRywMZCwW3DmljkJR5vKi195a8wMEIMtq9N/sujDv8A6ynOJuekz7c4n5j+x6yoanDvyl9h&#xA;TJ5vId7IbqZbqzlb4pLaKhQt34mjbfdmYZaHIeI8cD3Dl+Pk4wjq4DhHDId5/H60FrvmNby3j07T&#xA;4fqmlQ/Zh/acjfk/+fXfMfWa/wASIx4xw4h07/e3aXR8BM5niyHr+pKbayvLpwltBJMxNKIpb9WY&#xA;OPDOZqIJcyeWMN5EBkOux/ovy3Z6NMwN88pu7iMEH0wQVVa+Jrm01kfB08cJ+sniPk67Snxc8so+&#xA;muEebGVZlYMpKspqrDYgjuM1ANbh2hFvXvKmoXN/oNrc3O8xDKz/AM3BivL6aZ3fZueWXBGUubx2&#xA;vxRx5jGPJ4t/zmDFIfK2gShT6aX0iM3YM0JKj6eJzOcQMz/K78yPISflp5fFxrun2cthp1vb3lvN&#xA;cxRyRyQRiNuSMysOTISNt+1cVSXyX+dx/MKLzbp8Wk/UrPT9PuJre79bmzoQyKHQovFmX4tiaYrT&#xA;Ef8AnDX/AKa//t3f9jWKljX/ADit5l8vaH5j1tta1O20xLi0jWGS7lSBGZZKkB5Cq1oelcVL2/8A&#xA;5yA8rp5n/KvUTbKJrjTgup2TJ8VfRBMnGnXlAz0piofLWo+e9R1z8uPLXkOBXlmsL6dvTG5k9Qj6&#xA;qoPchp5Vp8sUvtXyX5bg8s+VNK0GChXT7ZIXcbB5AKyP/s3LN9OLFg//ADjr/wAoTe/9tKX/AJMQ&#xA;YSqv/wA5Bf8AKCR/8x0P/EJMAVIfzIskudV/L2Ke5lsbe5j9D65A3CSNmEIBVv2ftDfCrJf+VO/9&#xA;/Xrn/ST/AGYFS7yRb+WovInm46FLe3C/6Wl3cX/p8nlS3PxJ6ZIKnlWp3xVN/wAjSD+XNhQ9Jbiv&#xA;/I5sVS38zh+iPPvk3zMvwp65sLuQ9o3NB/wk0mKtflv/ALmfzF84eZT8Ucci6faP2KIeJp/sYEP0&#xA;4VYidWHlfyp+YPljl6bw3gjsUP7UN6fTNP8AnilfpxVkfnvQX038i7Sy48Xso7SSdQOkkjj1P+Hl&#xA;OKvSvLVxDc+XdLngcPFJaQsjDoQYxgV57rDpc/8AOQehCFg5s9OdbkD9gmO5IB+iVfvwqu8of+Tv&#xA;82/8wyf8yMCvUsVeEflv+XvlnzVL5jm1eB5JoL+SOGRJHQqGLHopod/EYVZB+VmpXPlfXLz8vNZ4&#xA;pLE7z6Tc0CidH+Ij35Ach9K9sVer4FecfmTa+nq8FwBRZ4aE+LIxB/ArnJdv46yiXePu/Ael7GyX&#xA;jMe4/exW3t5ridIIULyyMFRB1JOaSEDOQiNyXbTmIgk8gyq7ttL8qxQpLbpqGsSr6jGXeGIVoKL3&#xA;3H+1m7yY8WiABiJ5TvvyDqcc8mrJIJhjHdzKBuvPPmGdOCTJbJ04woFoPYnkw+/MbJ2xqJCgeEeQ&#xA;ciHZeGO5HF71mkeVda1sm6rwhc1a5nJJc9yOpbI6Xs3NqPV07z1/WnUa/Fg9PXuDJbT8s7FGU3V3&#xA;JNTdlRRGD7blzm4xez8B9Uifs/W6zJ21M/TED7WX21vBbQR28CCOGJQqIOgAze48YhERiKAdNOZk&#xA;STzKV+bPKWgea9Gl0fXbUXVjKQ3GpVkda8XRlIKstf8AMZNi8kn/AOcQ/IDScodV1WNO6M9u/fsf&#xA;RXFNvQfI/wCUvk/yZo19pekxSuupKUv7u4cPPKvFlCllCKAoc0CqOuKHflz+VHlb8v1vxoTXLnUv&#xA;S+stdSLIf3HPhx4qgH962KsU1P8A5xc/K6+1Ce8CXtp67lzbW86rEpY1PAOjkCvauKbTfzr+afkL&#xA;8todN8uatHdSo1kq28EMSzf6PGPRX1GdoweXEj9eKvn38gPKNh5i/N06jYW0yeXdEkkv4VuCGdKM&#xA;RZpI6jj6gYhv9icVL7IxQknlHyfpHlTTpdP0r1fq807XDeswdubKqGhAXaiDFW/NvlLS/NOlDTNT&#xA;aVbdZVmBhYI3JAQNyG2+LFVnmHyV5e1/RotJ1KAvb24UWzqxWSMqvEFW+XjscVYz/wAqV0cQG3/x&#xA;Brv1cihh+tpwI8OPpUxVlXlvyjofl7RP0NYQk2TczP6pDtK0g4s0hoAaqKdOmKsZs/yS8n2V/HeW&#xA;k19AYplnjhS4pGrKwYD7PKm1PtV98VZH5w8n6T5r0pdM1NpUhSVZ45IGVZFdQQCCyuOjEdMVd5P8&#xA;n6V5T0ptM0xpXheVp5JJ2VpGdgFJJVUHRQOmKpN5k/KTyr5g1463evcpcv6frwwyIsUpiAVS6sjN&#xA;9kBdmG2Kst1HTrLUrGaxvoVuLS4UpNC/RlPy/XirAV/IzyzEWW11XV7SEsWW3guUWNa+AMRP3nFU&#xA;98oflt5a8rTy3Vis1xfzgrJfXTiSXiSCVFAijcdlriqN07yfpFh5l1DzFAZTqOposdxyYGMKvH7C&#xA;gCn2B1JxVPMVSLyr5N0ryz9f/R7zP+kbg3M3rMrcWP7KcVT4RXvU++KqPmvyFovmW5sby6kntL/T&#xA;n52t7aMiSrQ8gpLpICAwqNtvpOKsjxVB6ppFhqlv6F7H6iA1QgkMp8QRmPqdLDNHhmLbsGonilcS&#xA;g9I8qaNpUxnto2aelBLIeRUHrx6AZRpezcOE8URv3lv1Gvy5RUjt5JF578s6he3MeoWSGchBHLEv&#xA;2hxJIYDv1zWds9n5MkhkgL2ohz+ytbCETCZrdKvLXki+ubtZdThaCziNWjf4XkP8oHUDxOYXZ/ZE&#xA;5zvIOGA+1y9b2nCMaxm5H7HpKqqKFUBVUUVRsAB0AGdcAAKDzJNt4UOxV2KuxV2KuxV2KpNr3kvy&#xA;l5hlim1zR7TUpYFKQyXMKSMqk1KgsK0riqM0jQ9F0a2NrpGn22nWxPIwWkKQIWPcrGFFcVRuKuxV&#xA;2KuxV2KuxV2KuxV2KuxV2KuxV2KuxV2KuxV2Kv8A/9k=</xmpGImg:image>
               </rdf:li>
            </rdf:Alt>
         </xmp:Thumbnails>
         <xmp:MetadataDate>2019-04-08T16:58:37-05:00</xmp:MetadataDate>
         <xmp:ModifyDate>2019-04-08T16:58:37-05:00</xmp:ModifyDate>
      </rdf:Description>
      <rdf:Description rdf:about=""
            xmlns:dc="http://purl.org/dc/elements/1.1/">
         <dc:format>image/svg+xml</dc:format>
      </rdf:Description>
      <rdf:Description rdf:about=""
            xmlns:xmpTPg="http://ns.adobe.com/xap/1.0/t/pg/"
            xmlns:stDim="http://ns.adobe.com/xap/1.0/sType/Dimensions#"
            xmlns:xmpG="http://ns.adobe.com/xap/1.0/g/">
         <xmpTPg:MaxPageSize rdf:parseType="Resource">
            <stDim:w>612.000000</stDim:w>
            <stDim:h>137.000000</stDim:h>
            <stDim:unit>Points</stDim:unit>
         </xmpTPg:MaxPageSize>
         <xmpTPg:NPages>1</xmpTPg:NPages>
         <xmpTPg:HasVisibleTransparency>False</xmpTPg:HasVisibleTransparency>
         <xmpTPg:HasVisibleOverprint>False</xmpTPg:HasVisibleOverprint>
         <xmpTPg:PlateNames>
            <rdf:Seq>
               <rdf:li>Cyan</rdf:li>
               <rdf:li>Magenta</rdf:li>
               <rdf:li>Yellow</rdf:li>
               <rdf:li>Black</rdf:li>
            </rdf:Seq>
         </xmpTPg:PlateNames>
         <xmpTPg:SwatchGroups>
            <rdf:Seq>
               <rdf:li rdf:parseType="Resource">
                  <xmpG:groupName>Default Swatch Group</xmpG:groupName>
                  <xmpG:groupType>0</xmpG:groupType>
               </rdf:li>
            </rdf:Seq>
         </xmpTPg:SwatchGroups>
      </rdf:Description>
      <rdf:Description rdf:about=""
            xmlns:xmpMM="http://ns.adobe.com/xap/1.0/mm/"
            xmlns:stEvt="http://ns.adobe.com/xap/1.0/sType/ResourceEvent#">
         <xmpMM:DerivedFrom rdf:parseType="Resource"/>
         <xmpMM:DocumentID>xmp.did:FD7F117407206811822AE7109D0EA173</xmpMM:DocumentID>
         <xmpMM:InstanceID>xmp.iid:FD7F117407206811822AE7109D0EA173</xmpMM:InstanceID>
         <xmpMM:OriginalDocumentID>xmp.did:FD7F117407206811822AE7109D0EA173</xmpMM:OriginalDocumentID>
         <xmpMM:History>
            <rdf:Seq>
               <rdf:li rdf:parseType="Resource">
                  <stEvt:action>saved</stEvt:action>
                  <stEvt:instanceID>xmp.iid:FD7F117407206811822AE7109D0EA173</stEvt:instanceID>
                  <stEvt:when>2019-04-08T16:58:37-05:00</stEvt:when>
                  <stEvt:softwareAgent>Adobe Illustrator CS5</stEvt:softwareAgent>
                  <stEvt:changed>/</stEvt:changed>
               </rdf:li>
            </rdf:Seq>
         </xmpMM:History>
      </rdf:Description>
   </rdf:RDF>
</x:xmpmeta>
                                                                                                    
                                                                                                    
                                                                                                    
                                                                                                    
                                                                                                    
                                                                                                    
                                                                                                    
                                                                                                    
                                                                                                    
                                                                                                    
                                                                                                    
                                                                                                    
                                                                                                    
                                                                                                    
                                                                                                    
                                                                                                    
                                                                                                    
                                                                                                    
                                                                                                    
                                                                                                    
                           
<?xpacket end="w"?>
	</metadata>
<g>
	<path fill="#231F20" d="M180.293,96.117c-3.233,0-5.911-0.277-8.036-0.832c-2.125-0.554-3.787-1.57-4.988-3.048
		s-2.124-3.417-2.586-5.819c-0.462-2.4-0.739-5.634-0.739-9.42V72.01c0-3.787,0.277-6.927,0.739-9.421
		c0.462-2.494,1.293-4.434,2.586-5.912c1.201-1.478,2.863-2.401,4.988-3.048c2.125-0.554,4.803-0.831,8.036-0.831h9.144
		c8.405,0,12.562,4.064,12.562,12.284v2.309c0,1.293-0.647,1.939-2.032,1.939h-5.542c-1.293,0-1.939-0.646-1.939-1.939v-0.924
		c0-1.478-0.37-2.586-1.108-3.417c-0.739-0.832-2.217-1.293-4.434-1.293h-4.71c-1.663,0-3.048,0.092-4.064,0.37
		c-1.016,0.277-1.847,0.739-2.401,1.57c-0.554,0.739-0.924,1.847-1.016,3.325c-0.185,1.386-0.277,3.326-0.277,5.634v3.879
		c0,2.402,0.092,4.249,0.277,5.635c0.185,1.385,0.554,2.494,1.016,3.324c0.554,0.832,1.293,1.294,2.401,1.57
		c1.016,0.277,2.401,0.37,4.064,0.37h4.71c2.125,0,3.603-0.462,4.434-1.293c0.739-0.831,1.201-2.124,1.201-3.972v-0.832
		c0-1.385,0.646-2.031,2.032-2.031h5.449c1.386,0,2.032,0.646,2.032,2.031v1.201c0,9.145-4.157,13.762-12.562,13.762h-9.236V96.117z
		"/>
	<path fill="#231F20" d="M211.512,48.549c-1.293,0-1.939-0.646-1.939-1.939v-6.096c0-1.385,0.646-2.032,1.939-2.032h6.465
		c1.293,0,1.94,0.646,1.94,2.032v6.096c0,1.293-0.646,1.939-1.94,1.939H211.512z M211.512,95.747c-1.293,0-1.939-0.646-1.939-1.939
		V55.292c0-1.385,0.646-2.032,1.939-2.032h6.465c1.293,0,1.94,0.647,1.94,2.032v38.423c0,1.293-0.646,1.939-1.94,1.939h-6.465
		V95.747z"/>
	<path fill="#231F20" d="M240.884,95.747c-2.309,0-4.156-0.185-5.634-0.554c-1.478-0.369-2.586-1.016-3.417-1.848
		c-0.831-0.831-1.385-2.031-1.755-3.418c-0.277-1.385-0.462-3.232-0.462-5.356V48.365c0-1.385,0.647-2.032,1.94-2.032h6.465
		c1.293,0,1.939,0.646,1.939,2.032v5.634h9.698c1.386,0,2.032,0.646,2.032,2.032v4.526c0,1.293-0.646,1.94-2.032,1.94h-9.698V83.74
		c0,1.293,0.277,2.124,0.739,2.586s1.385,0.738,2.586,0.738h5.08c1.293,0,1.939,0.646,1.939,2.033v4.617
		c0,1.293-0.646,1.939-1.939,1.939h-7.481V95.747z"/>
	<path fill="#231F20" d="M258.618,110.617c-1.293,0-1.94-0.646-1.94-2.031v-4.618c0-1.294,0.647-1.94,1.94-1.94h7.389
		c1.385,0,2.309-0.184,2.956-0.646c0.646-0.461,1.108-1.107,1.478-2.217l1.201-3.417h-1.939c-0.462,0-0.739-0.185-0.831-0.646
		L255.2,55.107c0-1.201,0.554-1.848,1.755-1.848h7.02c0.739,0,1.386,0.093,1.755,0.37c0.37,0.277,0.646,0.739,0.832,1.386
		l8.405,28.448c0.092,0.277,0.277,0.369,0.554,0.369h0.832l9.329-28.725c0.185-0.646,0.462-1.108,0.831-1.386
		c0.37-0.277,0.924-0.369,1.663-0.369h6.465c1.293,0,1.94,0.646,1.94,1.847l-16.903,47.291c-0.554,1.478-1.201,2.771-1.847,3.879
		c-0.646,1.016-1.57,1.939-2.586,2.586c-1.016,0.646-2.217,1.108-3.695,1.386c-1.385,0.276-3.048,0.462-4.987,0.462h-7.943V110.617z
		"/>
</g>
<g>
	<path fill="#595A5C" d="M339.527,95.747c-0.923,0-1.385-0.462-1.385-1.293V66.191c0-2.679-0.555-4.618-1.755-5.819
		s-2.956-1.847-5.265-1.847h-7.112c-3.232,0-5.634,0.461-7.204,1.385s-2.863,2.494-3.787,4.803v29.648
		c0,0.924-0.462,1.293-1.293,1.293h-3.879c-0.924,0-1.293-0.461-1.293-1.293V54.646c0-0.924,0.461-1.293,1.293-1.293h3.602
		c0.924,0,1.386,0.462,1.386,1.293v2.863c0.554-0.646,1.108-1.201,1.847-1.847c0.646-0.554,1.57-1.016,2.587-1.478
		c1.016-0.462,2.216-0.739,3.694-0.924c1.385-0.277,3.141-0.369,5.172-0.369h6.373c2.217,0,4.064,0.185,5.635,0.646
		s2.863,1.201,3.879,2.217s1.756,2.401,2.217,3.972c0.462,1.663,0.739,3.694,0.739,6.096v28.54c0,0.924-0.462,1.293-1.294,1.293
		h-4.156V95.747z"/>
	<path fill="#595A5C" d="M369.453,96.117c-3.232,0-5.818-0.277-7.85-0.832c-2.033-0.554-3.695-1.57-4.896-3.048
		c-1.2-1.478-2.031-3.417-2.493-5.819c-0.462-2.4-0.739-5.634-0.739-9.42V72.01c0-3.787,0.277-6.927,0.739-9.421
		c0.462-2.494,1.293-4.434,2.493-5.912c1.201-1.478,2.771-2.401,4.803-3.048c2.033-0.554,4.619-0.831,7.76-0.831h7.111
		c4.988,0,8.59,1.201,10.807,3.694c2.125,2.401,3.232,6.373,3.232,11.915v5.357c0,2.401-1.016,3.51-2.955,3.51h-27.802v0.37
		c0,2.771,0.093,4.987,0.37,6.742c0.276,1.755,0.738,3.048,1.477,4.064c0.74,0.923,1.756,1.662,3.049,1.939
		c1.293,0.369,2.955,0.554,4.895,0.554h9.236c1.94,0,3.326-0.462,4.156-1.293c0.832-0.831,1.294-2.401,1.294-4.526v-1.754
		c0-0.555,0.093-0.832,0.369-1.017c0.277-0.185,0.646-0.277,1.017-0.277h3.14c0.277,0,0.647,0.093,0.924,0.277
		c0.277,0.185,0.462,0.554,0.462,1.108v1.478c0,7.481-3.602,11.269-10.715,11.269h-9.883V96.117z M384.602,68.038
		c0-1.847-0.093-3.417-0.369-4.618c-0.277-1.201-0.739-2.309-1.293-3.048c-0.647-0.739-1.479-1.386-2.587-1.663
		c-1.108-0.37-2.493-0.554-4.156-0.554h-6.558c-2.032,0-3.695,0.185-4.988,0.462c-1.293,0.277-2.309,0.923-3.047,1.755
		c-0.74,0.831-1.201,2.032-1.479,3.602s-0.369,3.51-0.369,5.911v2.402h23.83c0.738,0,1.107-0.462,1.107-1.293v-2.956H384.602z"/>
	<path fill="#595A5C" d="M410.647,95.747c-2.124,0-3.879-0.185-5.265-0.554c-1.385-0.369-2.493-0.924-3.232-1.848
		c-0.831-0.831-1.293-1.939-1.662-3.325c-0.277-1.386-0.462-3.048-0.462-4.987V47.626c0-0.924,0.462-1.293,1.293-1.293h3.972
		c0.831,0,1.293,0.461,1.293,1.293v6.003h12.377c0.923,0,1.293,0.462,1.293,1.386v2.771c0,0.924-0.462,1.293-1.293,1.293h-12.377
		v25.954c0,1.016,0.092,1.939,0.277,2.586c0.185,0.646,0.461,1.201,0.831,1.57c0.462,0.369,0.924,0.646,1.57,0.831
		s1.478,0.185,2.586,0.185h5.911c0.924,0,1.293,0.462,1.293,1.386v2.771c0,0.924-0.462,1.293-1.293,1.293h-7.112V95.747z"/>
	<path fill="#595A5C" d="M467.729,95.747c-1.478,0-2.31-0.646-2.679-1.847l-8.405-34.083c-0.092-0.37-0.277-0.554-0.554-0.554
		h-0.739c-0.277,0-0.462,0.185-0.554,0.554L446.023,93.9c-0.186,0.738-0.462,1.2-0.832,1.478c-0.369,0.276-0.924,0.369-1.847,0.369
		h-6.835c-0.739,0-1.386-0.093-1.755-0.369c-0.37-0.277-0.646-0.739-0.831-1.478l-9.698-39.532c0-0.277,0.092-0.554,0.276-0.831
		c0.186-0.277,0.462-0.37,0.832-0.37h3.971c0.555,0,0.832,0.092,1.017,0.277c0.185,0.185,0.369,0.462,0.462,0.923l8.312,35.468
		c0.093,0.369,0.277,0.555,0.555,0.555h0.738c0.277,0,0.462-0.186,0.555-0.555l8.682-35.283c0.185-0.924,0.831-1.386,1.848-1.386
		h8.128c0.924,0,1.57,0.462,1.847,1.386l8.405,35.283c0.093,0.369,0.277,0.555,0.555,0.555h0.738c0.277,0,0.462-0.186,0.555-0.555
		l8.497-35.468c0.185-0.831,0.646-1.201,1.478-1.201h3.51c0.277,0,0.555,0.092,0.832,0.277c0.276,0.185,0.369,0.462,0.369,0.831
		L476.872,93.9c-0.185,0.738-0.462,1.2-0.831,1.478c-0.369,0.276-0.924,0.369-1.848,0.369H467.729z"/>
	<path fill="#595A5C" d="M507.814,96.117c-3.141,0-5.727-0.277-7.759-0.832c-2.032-0.554-3.694-1.57-4.896-2.955
		c-1.2-1.386-2.032-3.325-2.494-5.727c-0.461-2.402-0.738-5.542-0.738-9.329v-5.542c0-3.787,0.277-6.834,0.738-9.329
		c0.462-2.401,1.294-4.341,2.494-5.726c1.201-1.386,2.863-2.402,4.896-2.956s4.618-0.831,7.759-0.831h6.742
		c3.141,0,5.727,0.277,7.759,0.831s3.694,1.57,4.895,2.956c1.201,1.385,2.032,3.325,2.494,5.726
		c0.462,2.402,0.739,5.542,0.739,9.329v5.542c0,3.787-0.277,6.835-0.739,9.329c-0.462,2.401-1.293,4.341-2.494,5.727
		c-1.2,1.385-2.862,2.401-4.895,2.955c-2.032,0.555-4.618,0.832-7.759,0.832H507.814z M523.978,71.825
		c0-2.956-0.092-5.357-0.369-7.112s-0.739-3.14-1.386-4.064c-0.646-0.923-1.662-1.478-2.863-1.755
		c-1.2-0.277-2.863-0.369-4.896-0.369h-6.742c-2.032,0-3.694,0.092-4.896,0.369c-1.2,0.277-2.217,0.832-2.863,1.755
		c-0.646,0.924-1.108,2.309-1.385,4.064c-0.277,1.755-0.37,4.157-0.37,7.112v5.449c0,2.956,0.093,5.357,0.37,7.112
		c0.276,1.755,0.646,3.141,1.385,4.064c0.646,0.923,1.663,1.477,2.863,1.754c1.201,0.277,2.863,0.369,4.896,0.369h6.742
		c2.032,0,3.695-0.092,4.896-0.369c1.201-0.277,2.217-0.831,2.863-1.754c0.646-0.924,1.108-2.217,1.386-4.064
		c0.277-1.755,0.369-4.156,0.369-7.112V71.825z"/>
	<path fill="#595A5C" d="M541.25,95.747c-0.555,0-0.924-0.093-1.108-0.369c-0.185-0.277-0.277-0.554-0.277-1.017V54.646
		c0-0.37,0.093-0.646,0.277-0.924c0.185-0.277,0.554-0.369,1.016-0.369h3.694c0.924,0,1.293,0.462,1.293,1.293v3.879
		c0.646-0.924,1.479-1.663,2.31-2.309s1.847-1.201,3.048-1.663c1.108-0.462,2.494-0.739,4.064-1.016
		c1.569-0.185,3.417-0.277,5.541-0.277h6.004c0.369,0,0.646,0.093,0.924,0.37c0.277,0.277,0.369,0.646,0.369,1.016v3.233
		c0,0.923-0.462,1.385-1.293,1.385h-10.16c-2.771,0-4.895,0.554-6.465,1.57c-1.57,1.016-2.863,2.771-4.064,5.172v28.355
		c0,0.924-0.462,1.293-1.293,1.293h-3.879V95.747z"/>
	<path fill="#595A5C" d="M606.089,95.747c-0.739,0-1.293-0.276-1.663-0.923l-12.931-19.582h-9.605v19.212
		c0,0.924-0.462,1.293-1.293,1.293h-3.972c-0.924,0-1.293-0.462-1.293-1.293V39.775c0-0.923,0.462-1.293,1.293-1.293h3.972
		c0.831,0,1.293,0.462,1.293,1.293v30.573h9.605l12.562-16.256c0.277-0.277,0.462-0.462,0.739-0.554
		c0.185-0.092,0.554-0.185,1.016-0.185h4.803c0.462,0,0.739,0.185,0.739,0.646c0,0.277-0.093,0.462-0.277,0.739l-13.854,17.918
		l14.594,21.798c0.185,0.277,0.277,0.462,0.277,0.739c0,0.461-0.277,0.738-0.832,0.738h-5.172V95.747z"/>
</g>
<g>
	<path fill="#F49823" d="M137.16,76.628c-1.016-1.663-2.217-3.048-3.694-4.156l0,0c0,0-3.141-2.217-6.835-5.542
		c-3.141-2.863-6.743-6.65-9.052-10.529c-2.309-3.972-3.694-8.867-4.618-13.116c-1.016-4.803-1.385-8.682-1.385-8.682l0,0
		c-0.185-1.847-0.739-3.602-1.755-5.265c-0.924-1.663-2.125-2.956-3.603-4.064c-0.739-0.554-1.478-1.016-2.217-1.385
		c-0.831-0.37-1.57-0.647-2.494-0.924c-0.831-0.185-1.663-0.37-2.586-0.462c-0.832-0.092-1.755,0-2.679,0.092
		c-1.755,0.185-3.51,0.739-5.172,1.755c-0.462,0.277-0.831,0.462-1.201,0.739c-0.092,0-0.092,0.092-0.185,0.092
		c-0.37,0.277-0.646,0.462-0.924,0.739c0,0,0,0-0.092,0c-0.646,0.646-1.293,1.293-1.847,2.032l0,0l0,0
		c0,0-7.574,10.899-16.071,15.794c-6.927,3.787-17.18,4.618-22.444,5.911c-2.586,0.646-4.064,1.478-4.618,1.847
		c-6.558,3.787-8.774,12.1-4.988,18.657c3.787,6.559,12.1,8.775,18.658,4.988c0.554-0.369,2.032-1.201,3.879-3.049
		c3.695-3.879,9.606-12.376,16.256-16.44c0.739-0.462,1.57-0.832,2.494-1.293c4.618-1.939,9.698-1.939,14.224-0.461
		c3.787,1.293,7.205,3.602,9.791,6.927c0.554,0.739,1.016,1.57,1.478,2.309c0.462,0.739,0.831,1.57,1.293,2.494
		c1.57,3.879,1.847,8.035,1.108,11.915c-1.016,4.71-3.51,8.959-7.481,12.007c-0.739,0.555-1.57,1.108-2.309,1.479
		c-6.927,3.787-17.18,4.617-22.444,5.91c-2.586,0.647-4.064,1.479-4.618,1.848c-6.558,3.787-8.774,12.1-4.987,18.658
		c3.787,6.557,12.1,8.773,18.657,4.987c1.663-1.017,3.048-2.217,4.156-3.694l0,0c0,0,7.574-10.899,16.071-15.795
		c8.498-4.895,21.706-6.004,21.706-6.004l0,0c1.847-0.184,3.602-0.738,5.265-1.754C138.73,91.498,140.947,83.186,137.16,76.628z"/>
	<path fill="#F49823" d="M89.039,87.342c0,0,3.325-0.554,5.911-2.124c6.558-3.787,8.774-12.1,4.987-18.657
		c-3.787-6.558-12.1-8.775-18.657-4.988c-2.586,1.478-4.803,4.064-4.803,4.064c-5.634,6.188-7.667,10.345-15.425,15.425
		c-0.739,0.462-1.57,0.831-2.494,1.293c-4.618,1.939-9.698,1.939-14.224,0.462c-3.787-1.293-7.205-3.602-9.791-6.928
		c-0.554-0.738-1.016-1.57-1.478-2.309c-0.461-0.739-0.831-1.57-1.293-2.494c-1.57-3.879-1.847-8.035-1.108-11.915
		c1.016-4.71,3.602-9.052,7.481-12.1c0.739-0.554,1.57-1.108,2.309-1.478c6.927-3.787,17.18-4.618,22.444-5.911
		c2.586-0.646,4.064-1.478,4.618-1.847c6.558-3.787,8.774-12.1,4.988-18.658c-3.602-6.28-11.915-8.497-18.473-4.71
		c-1.663,0.924-3.048,2.217-4.156,3.695l0,0c0,0-7.574,10.898-16.071,15.794C25.308,38.852,12.1,39.959,12.1,39.959l0,0
		c-1.847,0.185-3.602,0.739-5.265,1.755c-6.558,3.787-8.774,12.1-4.988,18.657c0.924,1.663,2.217,3.048,3.695,4.156l0,0
		c0,0,3.14,2.217,6.834,5.542c3.141,2.863,6.743,6.65,9.052,10.529c2.309,3.972,3.695,8.867,4.618,13.115
		c1.016,4.803,1.386,8.683,1.386,8.683l0,0c0,0.093,0,0.093,0,0.185c0.185,1.755,0.739,3.51,1.755,5.172
		c3.787,6.559,12.1,8.775,18.657,4.988c0.462-0.277,0.831-0.462,1.201-0.739c0.092,0,0.092-0.093,0.185-0.093
		c0.37-0.276,0.647-0.461,0.924-0.738c0,0,0,0,0.092-0.092c0.646-0.646,1.293-1.293,1.847-2.033l0,0l0,0
		c0,0,7.297-11.359,16.071-15.793C76.2,88.82,80.818,89.098,89.039,87.342z"/>
</g>
</svg>
