<?xml version="1.0" encoding="utf-8"?>
<!-- Generator: Adobe Illustrator 23.0.3, SVG Export Plug-In . SVG Version: 6.00 Build 0)  -->
<svg version="1.1" id="Layer_1" xmlns="http://www.w3.org/2000/svg" xmlns:xlink="http://www.w3.org/1999/xlink" x="0px" y="0px"
	 viewBox="0 0 300 160" style="enable-background:new 0 0 300 160;" xml:space="preserve">
<style type="text/css">
	.st0{fill:#394C63;}
</style>
<g>
	<path class="st0" d="M67.4,58.9c-3.6,0-6.7,1-9.3,3c-1.6,1.2-3.2,3.5-4.5,5.4c-0.8-3.5-1.8-7.9-1.8-7.9H41.6c-0.5,0-1,0.5-1,1.1v4
		c0,0.6,0.5,1.1,1,1.1h5.6c0,0,1.4,5.2,2.3,8.9c-1.2,2.2-2.3,4.2-3.3,6.1c-5.6,11.3-8.2,19.2-8.2,27.7c0,10.3,4.3,16.9,10.7,16.9
		c7.4,0,11.9-6.9,11.9-19c0-0.2,0-1,0-1.5c1.8,1,4.3,1.7,6.4,1.7c8.2,0,15-5.7,16.5-13.6c0.6-3.2,0.8-6.2,0.8-10.2
		c0-4.3-0.5-8-1.3-11C80.7,63.6,75.1,58.9,67.4,58.9z M48.8,119.4c-3.1,0-4.8-5.5-4.8-10.9c0-6.9,1.9-14.6,7.6-26.2
		c1.7,8.1,3.1,18,3.1,24C54.7,110.2,54.1,119.4,48.8,119.4z M77.6,91.8c-0.9,4.9-5.5,8.7-10.9,8.7c-2.3,0-4.6-0.8-6.6-1.5
		c-0.9-7.6-2.7-16.9-4.4-24.1c1.1-2,1.9-3.5,3.7-5.8c2.7-3.4,5.4-4.1,7.9-4.1c6.2,0,8.8,4.8,9.9,8.7c0.5,1.7,1,4.7,1,9.3
		C78.4,86.4,78.1,88.9,77.6,91.8z"/>
	<path class="st0" d="M267.3,97.3l-3-2.6c-0.2-0.1-0.4-0.3-0.7-0.3c-0.3,0-0.5,0.1-0.7,0.3l0,0c-1,1.2-2.8,3.2-3,3.5
		c-1.1,1.1-2.5,2-4.1,2c-2.8,0-4.7-0.9-4.7-6.2V65.6h9.7c0.5,0,1-0.5,1-1.1v-4c0-0.6-0.5-1.1-1-1.1h-7.5l0,0H251V47.7
		c0-0.6-0.5-1-1-1h-3.9c-0.5,0-1,0.5-1,1.1v11.6h-4.7c-0.5,0-1,0.5-1,1.1v4c0,0.6,0.5,1.1,1,1.1h4.7l0,0v21.3
		c-1.4,1.6-5.1,5.8-6.9,7.7c-0.4,0.4-0.7,0.7-1.1,1c-2,1.8-4.1,2.9-6.6,3.7c-3,1-5.7,1.3-9.6,1.3c-6,0-8.9-4.2-8.9-4.2
		c0.5-0.6,7.4-7.8,7.4-7.8c5.6-6.1,10.2-11.9,11.1-13c0,0,1.2-1.3,2.1-3.1c2.1-4.1,2.1-8.4-1.5-11.4c-1.7-1.4-4.8-2.4-10.1-2.2
		c-7.9,0.2-15.7,5-17.3,13.5c-0.5,2.3-0.9,5-0.9,10c0,1.2,0,2.8,0.1,3.9c0.1,2.3,0.4,4.5,0.7,6.7c0.2,1,0.5,1.7,0.9,2.9
		c-0.8,1.1-1.7,2.1-2.9,3.1c-0.9,0.8-2.4,1-3.2,1h-0.3c-2.1,0-3.5-1.2-5.2-3.1l-0.3-0.3c-0.8-1-6.9-9.1-11.4-15.2l10-11.1L197,64
		c0.4-0.4,0.4-1.1,0-1.5l-2.8-2.8c-0.4-0.4-1.1-0.4-1.5,0l-0.7,0.8l0,0l-15,16.6l-3.4,3.8V39.1c0-0.6-0.5-1.1-1-1.1h-2.9l0,0h-1
		c-0.6,0-1,0.5-1,1.1v13.7l0,0v34.6c-0.5,0.6-3.2,3.6-5.1,5.8c-1.7,1.9-4,4.3-6.6,5.8c-2,1.1-3.2,1.5-8.3,1.5
		c-5.3,0-9.9-3.9-10.8-8.7c-0.5-2.9-0.7-5.4-0.7-9c0-3.9,0.3-7,0.8-9.5c1-4.8,5.4-8.5,10.7-8.5c4.1,0,7.4,1.9,9.1,4.7
		c0.1,0.2,0.4,0.6,0.7,0.6c0.3,0.1,0.6,0,0.8-0.1l3.4-1.9c0.3-0.1,0.5-0.5,0.5-0.9c0-0.2,0-0.3-0.1-0.5l-0.2-0.5
		c-2.7-4.7-7.9-7.5-14.1-7.5c-8,0-14.9,5.5-16.6,13.1c-0.6,2.9-0.9,6.5-0.9,10.8c0,4,0.2,6.9,0.8,10.2c0.1,0.8,0.5,2,0.8,2.8
		c0,0-0.8,1.1-2.3,2.6c-2,2-4.2,1.8-5.2,1.5c-1.7-0.4-2.4-2-2.5-3.9c0,0,0-20.1,0-21.5c0-9.2-6.9-15.6-16.7-15.6
		c-5.1,0-10.2,2.3-13.4,6.1c-0.5,0.6-1,1.3-1.4,2c0,0-0.1,0.3-0.1,0.5c0,0.4,0.2,0.8,0.6,1l0,0l3.3,1.9l0,0c0.1,0.1,0.3,0.1,0.5,0.1
		c0.4,0,0.6-0.2,0.8-0.5c0,0,0.2-0.4,0.7-1c2.1-2.5,5.5-4.2,9-4.2c6.6,0,10.6,3.9,10.6,9.7c0,0.4,0,0.7,0,1.4h-5.7
		c-19.9,0-21.4,13.3-21.4,17.4c0,3.2,1,6.2,3,8.6c3.1,3.8,7,4.6,10.6,4.6c3.2,0,7-1.5,9.9-3.4c1.5-1,2.8-2.3,4-3.9
		c0.9,4.2,4.3,7.2,8.1,7.2c3,0,4.7-0.6,7.2-2.3c0.8-0.5,2.3-1.9,3.5-3.4c3.1,3.7,7.5,5.7,12.7,5.7c5.3,0,7.6-0.2,10.9-2
		c1.6-0.9,3.7-2.3,5.3-4.1c1.2-1.3,2.5-2.9,3.7-4.3v9.1c0,0.6,0.5,1.1,1,1.1h3.9c0.6,0,1-0.5,1-1.1V89.4l3.7-3.9
		c4.1,5.5,10.3,13.7,11.3,14.9l0.3,0.3c1.8,2,4.5,5.5,9.4,5.5c0.2,0,1.9,0,3-0.5c3.5-1.6,5.9-4.3,6.6-5.2c0.5,0.5,1.4,1.5,2,1.9
		c3.2,2.7,7.2,3.8,11.9,3.8c4.4,0,7.4-0.2,10.6-1.3c2.6-0.9,7.1-3.7,9.6-6.3c0.8-0.9,2.2-2.2,3.3-3.7c0.4,7.4,3.8,11.3,10.8,11.3
		c4,0,6.2-2.3,7.5-3.7c0.2-0.2,4-4.1,4-4.1c0.1-0.2,0.2-0.4,0.2-0.7C267.7,97.8,267.5,97.5,267.3,97.3z M115.7,87.5
		c0,6.4-6.6,12.6-12.5,12.6c-4.4,0-6-1.1-6.9-2.2c-1.1-1.3-1.6-2.8-1.6-4.6c0-7.2,5.5-11.2,15.5-11.2h5.6L115.7,87.5L115.7,87.5z
		 M209.4,90.3c0,0-0.4-2.6-0.5-6.1c0-1.4,0-2.9,0-4.5c0-1.5,0.3-3.7,0.5-5.1c0.5-3.6,2.1-5.6,4-7.2c2.1-1.8,5.1-2.8,9.6-2.8
		c4.4,0,5,2.9,4.3,4.4c-1.9,4-6.7,8.5-11.6,14.1L209.4,90.3z"/>
</g>
</svg>
