<?xml version="1.0" encoding="utf-8"?>
<!-- Generator: Adobe Illustrator 15.0.0, SVG Export Plug-In . SVG Version: 6.00 Build 0)  -->
<!DOCTYPE svg PUBLIC "-//W3C//DTD SVG 1.1//EN" "http://www.w3.org/Graphics/SVG/1.1/DTD/svg11.dtd">
<svg version="1.1" id="Layer_1" xmlns="http://www.w3.org/2000/svg" xmlns:xlink="http://www.w3.org/1999/xlink" x="0px" y="0px"
	 width="612px" height="137px" viewBox="0 0 612 137" enable-background="new 0 0 612 137" xml:space="preserve">
<path fill="#007DB8" d="M137.7,15.375l-53.55,41.65c-5.95-21.25-23.8-36.55-45.9-36.55H0v95.2h38.25c22.1,0,41.65-15.3,45.05-35.7
	l53.55,41.65l53.55-41.65v35.7h60.35v-19.55H210.8v-75.65h-22.1v35.7l-51,41.65l-10.2-9.351l25.5-19.55l25.5-20.4l-15.3-12.75
	l-51,39.95l-10.2-9.35l51-38.25L137.7,15.375L137.7,15.375L137.7,15.375z M20.4,40.025h16.15c3.4,0,6.8,0.85,10.2,2.55
	c3.4,1.7,5.95,3.4,8.5,5.95c2.55,2.55,4.25,5.1,5.95,9.35c1.7,3.4,2.55,7.65,2.55,11.9c0,3.399-0.85,7.649-1.7,11.05
	c-1.7,2.55-4.25,5.95-5.95,8.5c-2.55,2.55-5.1,4.25-8.5,5.95c-3.4,1.699-6.8,2.55-10.2,2.55h-17V40.025z M320.45,96.125v19.55H260.1
	v-95.2h22.1v75.65H320.45L320.45,96.125z"/>
<path fill="#808080" d="M575.45,117.375c18.7,0,34-9.35,36.55-29.75l-0.85-0.85h-5.101l-0.85,0.85
	c-2.55,14.45-11.9,22.95-28.9,22.95c-20.399,0-34.85-15.3-34.85-41.65c0-26.35,15.3-41.65,34.85-41.65c16.15,0,25.5,8.5,28.9,21.25
	v0.85h5.1l1.7-0.85c-2.55-18.7-17.85-28.9-36.55-28.9c-22.95,0-43.351,16.15-43.351,48.45
	C532.1,101.225,552.5,117.375,575.45,117.375L575.45,117.375z M515.95,114.825v-91.8l-0.851-0.85h-9.35l-0.85,0.85l-34.851,82.45
	h-0.85l-35.7-82.45l-0.85-0.85H423.3l-0.85,0.85v91.8l0.85,0.85h5.101l0.85-0.85v-78.2h0.85l34,78.2l0.851,0.85h6.8l0.85-0.85
	l34-78.2h1.7v78.2l0.851,0.85h5.1L515.95,114.825L515.95,114.825z M402.9,114.825v-4.25l-0.851-0.851H351.9l-0.851-0.85v-35.7
	l0.851-0.85h46.75l0.85-1.7v-4.25l-0.85-0.85H351.9l-0.851-0.85v-34l0.851-0.85h50.149l0.851-0.85v-5.95l-0.851-0.85h-57.8
	l-0.85,0.85v91.8l0.85,0.85h57.8L402.9,114.825L402.9,114.825z"/>
</svg>
