<?xml version="1.0" encoding="utf-8"?>
<!-- Generator: Adobe Illustrator 15.0.0, SVG Export Plug-In . SVG Version: 6.00 Build 0)  -->
<!DOCTYPE svg PUBLIC "-//W3C//DTD SVG 1.1//EN" "http://www.w3.org/Graphics/SVG/1.1/DTD/svg11.dtd">
<svg version="1.1"
	 id="Layer_1" xmlns:rdf="http://www.w3.org/1999/02/22-rdf-syntax-ns#" xmlns:cc="http://creativecommons.org/ns#" xmlns:dc="http://purl.org/dc/elements/1.1/"
	 xmlns="http://www.w3.org/2000/svg" xmlns:xlink="http://www.w3.org/1999/xlink" x="0px" y="0px" width="612px" height="137px"
	 viewBox="0 0 612 137" enable-background="new 0 0 612 137" xml:space="preserve">
<g>
	<path fill="#0067C5" d="M0,15.145v87.865h40.988V50.244h23.557v52.766h40.989V15.145H0"/>
	<g>
		<path fill="#211E1E" d="M142.988,15.145h17.667l40.518,53.709V15.145h18.845v86.924h-16.254l-41.931-54.887v54.887h-18.845V15.145
			"/>
		<path fill="#211E1E" d="M275.848,63.906c-1.178-8.245-6.125-14.134-13.898-14.134c-7.774,0-12.956,5.654-14.37,14.134H275.848z
			 M229.206,69.324v-0.235c0-18.845,13.427-34.393,32.744-34.393c22.143,0,32.272,17.196,32.272,35.806
			c0,1.414-0.235,3.299-0.235,4.947h-46.171c1.884,8.48,7.773,12.956,16.254,12.956c6.36,0,10.836-1.884,16.019-6.831l10.601,9.422
			c-6.125,7.539-15.077,12.25-27.09,12.25C243.811,103.481,229.206,89.583,229.206,69.324"/>
		<path fill="#211E1E" d="M306,83.459V52.128h-8.009V36.11H306V19.149h18.846V36.11h15.547v16.018h-15.547v28.269
			c0,4.24,1.885,6.359,6.125,6.359c3.533,0,6.596-0.941,9.422-2.355v15.076c-4.004,2.355-8.48,3.77-14.841,3.77
			C313.773,103.246,306,98.77,306,83.459"/>
		<path fill="#211E1E" d="M489.741,69.089v-0.235c0-11.072-7.538-18.375-16.254-18.375s-16.019,7.303-16.019,18.375v0.235
			c0,11.071,7.303,18.374,16.019,18.374S489.741,80.16,489.741,69.089z M439.095,36.11h18.846v9.422
			c4.476-6.125,10.836-10.601,20.729-10.601c15.547,0,30.152,12.014,30.152,34.157v0.235c0,22.144-14.369,34.157-30.152,34.157
			c-10.13,0-16.254-4.476-20.729-9.894v28.268h-18.846V36.11"/>
		<path fill="#211E1E" d="M567.007,69.089v-0.235c0-11.072-7.538-18.375-16.254-18.375s-16.019,7.303-16.019,18.375v0.235
			c0,11.071,7.303,18.374,16.019,18.374S567.007,80.16,567.007,69.089z M516.36,36.11h18.845v9.422
			c4.477-6.125,10.837-10.601,20.73-10.601c15.547,0,30.152,12.014,30.152,34.157v0.235c0,22.144-14.369,34.157-30.152,34.157
			c-10.13,0-16.254-4.476-20.73-9.894v28.268H516.36V36.11"/>
		<path fill="#211E1E" d="M400.697,66.026l-11.543-28.032l-11.542,28.032H400.697z M380.91,15.145h17.196l36.041,86.924H414.36
			l-8.009-19.316h-34.158l-8.009,19.316h-19.316L380.91,15.145"/>
		<path fill="#211E1E" d="M612,50.715h-2.355v-12.25l0,0l-4.24,12.25h-1.413l-4.24-12.25l0,0v12.25h-2.356V36.11h3.534l4.004,11.307
			l4.005-11.307h3.298L612,50.715z M594.568,37.994h-4.24v12.721h-2.355V37.994h-4.24V36.11h10.601v1.884"/>
	</g>
</g>
</svg>
