<?xml version="1.0" encoding="utf-8"?>
<!-- Generator: Adobe Illustrator 19.2.1, SVG Export Plug-In . SVG Version: 6.00 Build 0)  -->
<svg version="1.1" id="layer" xmlns="http://www.w3.org/2000/svg" xmlns:xlink="http://www.w3.org/1999/xlink" x="0px" y="0px"
	 viewBox="0 0 652 652" style="enable-background:new 0 0 652 652;" xml:space="preserve">
<style type="text/css">
	.st0{filter:url(#Adobe_OpacityMaskFilter);}
	.st1{fill:#FFFFFF;}
	.st2{mask:url(#mask-2_1_);fill:#FE5000;}
	.st3{fill:#222222;}
</style>
<g id="Page-1">
	<g id="Group-28">
		<g id="Group-3">
			<g id="Clip-2">
			</g>
			<defs>
				<filter id="Adobe_OpacityMaskFilter" filterUnits="userSpaceOnUse" x="21" y="267.7" width="116.6" height="105.7">
					<feColorMatrix  type="matrix" values="1 0 0 0 0  0 1 0 0 0  0 0 1 0 0  0 0 0 1 0"/>
				</filter>
			</defs>
			<mask maskUnits="userSpaceOnUse" x="21" y="267.7" width="116.6" height="105.7" id="mask-2_1_">
				<g class="st0">
					<polygon id="path-1_1_" class="st1" points="21,267.7 137.6,267.7 137.6,373.4 21,373.4 					"/>
				</g>
			</mask>
			<path id="Fill-1" class="st2" d="M83.4,373.4H57.6c-5.3,0-10.3-2.9-12.9-7.5L23,328c-2.6-4.6-2.6-10.4,0-15l21.7-37.8
				c2.7-4.6,7.6-7.5,12.9-7.5H101c5.3,0,10.3,2.9,12.9,7.5l21.7,37.8c2.7,4.6,2.7,10.4,0,15l-5.6,9c-2.6,4.6-7.6,7.4-12.9,7.4H91.3
				l14.1-24l-13.1-22.7H66.2l-13.1,22.8L83.4,373.4z"/>
		</g>
		<path id="Fill-4" class="st3" d="M179.7,320.7c4.6,0,7.6-1.4,7.6-6.3c0-4.8-2.5-6.1-6.9-6.1H177v12.4H179.7z M177,345.6h-12v-46.8
			H182c11,0,17.6,5.1,17.6,14.9c0,10.9-7.9,16.4-19.1,16.4H177V345.6z"/>
		<path id="Fill-6" class="st3" d="M218.4,298.8v30.1c0,5.3,2.7,6.8,6.5,6.8c3.6,0,6.2-2.1,6.2-6.5v-30.4H243v31.8
			c0,9.3-7.5,15-18.3,15c-12,0-18.1-4.8-18.1-16v-30.8H218.4z"/>
		<polygon id="Fill-8" class="st3" points="295,298.8 325.7,298.8 325.7,309.4 307.1,309.4 307.1,316.5 323.1,316.5 323.1,327 
			307.1,327 307.1,335.1 326.2,335.1 326.2,345.6 295,345.6 		"/>
		<path id="Fill-10" class="st3" d="M337.2,336.7c2.2,1.5,7.2,4,12.8,4c4.7,0,9.9-1.5,9.9-8.7c0-5.6-5-7.5-10.6-9
			c-6.8-1.8-13.5-4.4-13.5-13c0-7.8,6.1-13,14.9-13c6.4,0,12,3,15.3,6.3l-3.1,3.7c-3.7-3.2-7.8-5.2-12.2-5.2c-4,0-9.1,1.7-9.1,7.6
			c0,5.6,4.8,7.2,10.9,9c6.5,2,13.2,4.5,13.2,13.4c0,8.8-5.9,13.7-15.9,13.7c-6.8,0-13.1-2.7-15-4.3L337.2,336.7z"/>
		<polygon id="Fill-12" class="st3" points="404.2,298.8 404.2,303.6 390.3,303.6 390.3,345.6 384.9,345.6 384.9,303.6 371.3,303.6 
			371.3,298.8 		"/>
		<path id="Fill-14" class="st3" d="M427.2,340.9c10,0,13.1-9.7,13.1-19.2c0-8.3-2.7-19.8-13.2-19.8c-10.1,0-13.8,9.8-13.8,19.4
			C413.3,330.5,415.8,340.9,427.2,340.9 M426.6,345.6c-11.8,0-18.9-8.1-18.9-24.2c0-18.1,10.2-24.4,19.6-24.4
			c9.9,0,18.6,6.4,18.6,24.4C445.9,337.6,438.4,345.6,426.6,345.6"/>
		<path id="Fill-16" class="st3" d="M504.5,326.7h15.8l-8-22.9L504.5,326.7z M492.7,345.6l16.5-46.8h6.6l16.8,46.8h-5.8l-5.1-14.4
			h-18.4l-5,14.4H492.7z"/>
		<path id="Fill-18" class="st3" d="M568.8,341.3c-3.8,2.6-9.2,4.3-15.1,4.3c-12,0-19.4-7.8-19.4-24.2c0-18.3,10.3-24.4,19.4-24.4
			c4.7,0,10.6,1.5,15.3,7.6l-3.9,3.2c-3-3.7-6.6-6-11.4-6c-8.6,0-13.8,7.3-13.8,19.1c0,12.7,4.4,20.1,14.3,20.1
			c3.6,0,7.6-1.3,9.3-2.5v-13.9h-10.4v-4.8h15.8V341.3z"/>
		<polygon id="Fill-20" class="st3" points="579.4,298.8 604.9,298.8 604.9,303.6 584.8,303.6 584.8,319.4 602.1,319.4 602.1,324.1 
			584.8,324.1 584.8,340.8 605.4,340.8 605.4,345.6 579.4,345.6 		"/>
		<path id="Fill-22" class="st3" d="M467.3,323.9h-7.1v-20.5h6.2c8.1,0,13.8,0.9,13.8,10.2C480.2,321.1,474.9,323.9,467.3,323.9z
			 M480.7,330.9c-1.1-2.4-1.8-3.5-3.3-4.3c5.2-2.3,8.5-6.9,8.5-13.9c0-9.2-6-13.9-16-13.9h-15.4v46.8h5.6v-17.3h8.1
			c0.6,0,1.1,0,1.7-0.1l-0.1,0c2.9,0,4.3,1.9,5.5,4.4l6,12.8h6L480.7,330.9z"/>
		<path id="Fill-24" class="st3" d="M263.5,320.7v-12.4h3.3c4.3,0,6.8,1.3,6.8,6.1c0,4.9-2.9,6.3-7.4,6.3H263.5z M281.8,330.8
			c-0.7-1.7-1.8-3-3-3.6c4.3-2.7,7-7.2,7-13.5c0-9.7-6.5-14.9-17.3-14.9h-16.8v46.8h11.8v-15.6h3c1.6,0.1,2.6,1,3.3,2.7l5.6,12.9
			h12.7L281.8,330.8z"/>
		<path id="Fill-26" class="st3" d="M615,302.8c0.8,0,1.6-0.1,1.6-1.1c0-0.8-0.8-0.9-1.5-0.9h-1.4v2H615z M613.7,306.6h-1.1v-6.7
			h2.6c1.7,0,2.5,0.6,2.5,1.9c0,1.2-0.8,1.7-1.8,1.8l1.9,3h-1.3l-1.8-2.9h-1.1V306.6z M614.9,298.1c-2.7,0-4.8,2.1-4.8,5
			c0,2.8,1.8,5,4.8,5c2.6,0,4.7-2,4.7-5C619.7,300.2,617.6,298.1,614.9,298.1z M614.9,309.2c-3.6,0-6.1-2.6-6.1-6.1
			c0-3.7,2.8-6.1,6.1-6.1c3.2,0,6.1,2.4,6.1,6.1C621,306.8,618.2,309.2,614.9,309.2z"/>
	</g>
</g>
</svg>
