<?xml version="1.0" encoding="UTF-8"?> <svg xmlns="http://www.w3.org/2000/svg" viewBox="0 0 560.46 99.32"><title>Horizontal</title><g><g><path d="M172.92,28.88l-20.07,47.7h-7.72L125,28.88h7.11L149,70.06,165.8,28.88Z" style="fill: #2a1659"></path><path d="M219.12,28.88v5.31H192.61V44.38H186.4V28.88Zm-.52,26H186.4V49.55h32.2Zm-26,16.4h26.51v5.32H186.4V60h6.21Z" style="fill: #2a1659"></path><path d="M279.41,28.65,240.47,76.58H232.6l38.94-47.93Zm-31.31,19-15.5-19h8l11.46,14.16Zm31.38,28.91h-7.86L260,62.35l4-4.87Z" style="fill: #2a1659"></path><path d="M339.77,28.65,300.82,76.58H293L331.9,28.65Zm-31.31,19-15.5-19h8l11.46,14.16Zm31.38,28.91H332L320.37,62.35l4-4.87Z" style="fill: #2a1659"></path><path d="M395,49.4V76.58h-6.22V54.71H353.32V28.88h6.22V49.4ZM353.32,76.58V59.88h6.22v16.7Zm35.42-32.35V28.88H395V44.23Z" style="fill: #6536ff"></path><path d="M458.09,52.69c0,14.08-10.11,24.64-24.86,24.64s-24.79-10.56-24.79-24.64,10-24.64,24.79-24.64S458.09,38.61,458.09,52.69Zm-6.44,0c0-11.16-7.27-19.4-18.42-19.4s-18.35,8.24-18.35,19.4,7.11,19.4,18.35,19.4S451.65,63.77,451.65,52.69Z" style="fill: #6536ff"></path><path d="M509.16,63.4c0,6.89-4.94,14-18.42,14-8.61,0-15.05-3.14-19.17-7.56l3.74-4.57A20.94,20.94,0,0,0,491,72.16c8.91,0,11.75-4.57,11.75-8.31,0-12.28-29.58-5.39-29.58-22.39,0-7.87,7.34-13.33,17.23-13.33,7.56,0,13.48,2.47,17.67,6.66l-3.74,4.35c-3.75-4-9-5.7-14.46-5.7-5.91,0-10.26,3.07-10.26,7.57C479.58,51.72,509.16,45.58,509.16,63.4Z" style="fill: #6536ff"></path><path d="M522.57,34.19V28.88h37.89v5.31Zm15.8,42.39V39.36h6.21V76.58Z" style="fill: #6536ff"></path></g><g><g><path d="M54.39,76.45H56L45.55,62l-.95.93Z" style="fill: #2a1659"></path><path d="M21.45,28.46H19.69l18.37,25.4c.27-.39.55-.77.83-1.16Z" style="fill: #2a1659"></path><path d="M24.92,28.46H23.17l16.61,23,.85-1.13Z" style="fill: #2a1659"></path><path d="M57.83,76.45h1.59L47.61,60l-1,.91Z" style="fill: #2a1659"></path><path d="M62,76.45h9.75L55.3,53.51c-2.11,1.65-4.16,3.35-6.13,5.11Z" style="fill: #2a1659"></path><path d="M37.31,28.46H27.44L42,48.59c1.68-2.16,3.45-4.26,5.28-6.31Z" style="fill: #2a1659"></path></g><path d="M94.73,33.36A47.16,47.16,0,0,1,98,50.27,48.89,48.89,0,0,1,86.09,82.59,48.41,48.41,0,0,1,37.36,97.86a48.36,48.36,0,0,1-16.31-7.51A50.18,50.18,0,0,1,.38,43.09a50.13,50.13,0,0,1,16.49-31,48.71,48.71,0,0,1,15.2-9.13A47.38,47.38,0,0,1,49.44,0,46.31,46.31,0,0,1,81,12.87,47.3,47.3,0,0,0,49.46,2.46,45.08,45.08,0,0,0,33.27,6a46.59,46.59,0,0,0-13.78,9A47.76,47.76,0,0,0,9.73,28.05a46.27,46.27,0,0,0,2.93,46.63,45.72,45.72,0,0,0,11.22,11.7,44.9,44.9,0,0,0,14.67,6.91,45.78,45.78,0,0,0,31.92-3.08A47.25,47.25,0,0,0,92.76,66.54a48.86,48.86,0,0,0,3.89-16.31A49.59,49.59,0,0,0,94.73,33.36Z" style="fill: #2a1659"></path><g><path d="M29.9,75.44c.75-1.34,1.45-2.57,2.11-3.72C31.28,73,30.57,74.19,29.9,75.44Z" style="fill: none"></path><path d="M94.69,12.49l0-.05h-.13S94.61,12.44,94.69,12.49Z" style="fill: #9eb3e5"></path><path d="M35.7,66.39a95.58,95.58,0,0,0-5.8,9c.67-1.25,1.38-2.49,2.11-3.72h0c1.56-2.64,3.26-5.23,5.07-7.78h0c15.24-21.36,37.74-38.09,59.39-46l-1.78-5.45c-.08-.05-.14-.08-.17-.05C64,23.48,35.86,51.9,26,83.59c.48-1.16,1-2.31,1.53-3.46C41.66,57,68.79,38.07,94.05,29.81l-.75-5.18C71.08,31.61,49.68,47,35.7,66.39Z" style="fill: #6536ff"></path></g></g></g></svg> 