<svg id="Layer_1" data-name="Layer 1" xmlns="http://www.w3.org/2000/svg" width="0.21in" height="0.16in" viewBox="0 0 15 11.31"><defs><style>.cls-1{fill:#65c7c2;}</style></defs><title>arrow-left_green</title><path id="a-arrow-left" class="cls-1" d="M14.72,5.05,9.91.25a.82.82,0,0,0-1.17,0h0a.82.82,0,0,0,0,1.17h0l3.39,3.39H.84A.83.83,0,0,0,0,5.65a.85.85,0,0,0,.84.84H12.1L8.73,9.87a.84.84,0,0,0,0,1.18h0a.84.84,0,0,0,.6.25.85.85,0,0,0,.6-.25l4.82-4.83A.82.82,0,0,0,15,5.64a1.09,1.09,0,0,0-.28-.59" transform="translate(0 0)"/></svg>