<?xml version="1.0" encoding="UTF-8"?>
<svg width="50px" height="50px" viewBox="0 0 50 50" version="1.1" xmlns="http://www.w3.org/2000/svg" xmlns:xlink="http://www.w3.org/1999/xlink">
    <!-- Generator: Sketch 53.2 (72643) - https://sketchapp.com -->
    <title>Group 8</title>
    <desc>Created with Sketch.</desc>
    <defs>
        <polygon id="path-1" points="0.8337 0 30.9988482 0 30.9988482 30.1117 0.8337 30.1117"></polygon>
    </defs>
    <g id="Page-1" stroke="none" stroke-width="1" fill="none" fill-rule="evenodd">
        <g id="1_Home" transform="translate(-106.000000, -1228.000000)">
            <g id="Features" transform="translate(0.000000, 889.000000)">
                <g id="Icons" transform="translate(95.000000, 93.000000)">
                    <g id="Group-8" transform="translate(11.000000, 246.000000)">
                        <path d="M21.222,21.667 L23.612,19.277 C22.779,19 21.832,18.89 20.945,18.89 C15.332,18.89 10.722,23.444 10.722,29.11 C10.722,34.724 15.279,39.333 20.945,39.333 C26.612,39.333 31.112,34.724 31.112,29.057 C31.112,28.167 30.998,27.224 30.722,26.334 L28.332,28.777 L28.332,29.11 C28.332,33.224 24.998,36.557 20.889,36.557 C16.779,36.557 13.445,33.224 13.445,29.11 C13.499,24.89 17.055,21.5 21.222,21.667" id="Fill-1" fill="#FEFEFE"></path>
                        <path d="M36.8324,20.334 C38.3324,23.001 39.1094,26 39.1094,29.11 C39.1094,39.11 30.9424,47.277 20.9434,47.277 C10.9434,47.277 2.7764,39.11 2.7764,29.057 C2.7764,19.057 10.9434,10.891 20.9434,10.891 C23.9994,10.891 27.0564,11.667 29.7224,13.167 L31.7764,11.111 C28.4994,9.167 24.8324,8.111 20.9994,8.111 C9.3904,8.167 0.0004,17.557 0.0004,29.057 C0.0004,40.61 9.3904,50 20.9434,50 C32.4994,50 41.8894,40.61 41.8894,29.057 C41.8894,25.224 40.8324,21.501 38.8894,18.278 L36.8324,20.334 Z" id="Fill-3" fill="#FEFEFE"></path>
                        <g id="Group-7" transform="translate(19.000000, 0.000000)">
                            <mask id="mask-2" fill="white">
                                <use xlink:href="#path-1"></use>
                            </mask>
                            <g id="Clip-6"></g>
                            <path d="M30.9437,6.7227 C30.8867,6.4457 30.6667,6.2797 30.3867,6.2227 L25.6107,5.3897 L24.7767,0.5557 C24.7197,0.2797 24.5537,0.0557 24.2767,-0.0003 L24.0537,-0.0003 C23.8867,-0.0003 23.6667,0.0557 23.5537,0.2227 L20.1107,3.6667 C20.0007,3.7797 19.8867,3.9997 19.8867,4.1667 L19.8867,9.4997 L1.1677,28.2227 C0.9437,28.4457 0.8337,28.7227 0.8337,28.9987 C0.8337,29.2797 0.9437,29.6127 1.1677,29.7787 C1.6107,30.2227 2.3337,30.2227 2.7777,29.7787 L21.5007,11.1127 L26.8337,11.1127 C27.0007,11.1127 27.2197,11.0557 27.3337,10.8897 L30.7767,7.4457 C30.9997,7.2797 31.0537,6.9997 30.9437,6.7227" id="Fill-5" fill="#FEFEFE" mask="url(#mask-2)"></path>
                        </g>
                    </g>
                </g>
            </g>
        </g>
    </g>
</svg>