<svg id="Layer_1" data-name="Layer 1" xmlns="http://www.w3.org/2000/svg" viewBox="0 0 23.78 17.48"><defs><style>.cls-1{fill:#fff;}</style></defs><title>flexible</title><path class="cls-1" d="M2.39,2.8h3.2a7,7,0,0,1,6.3,3.94A7,7,0,0,1,18.18,2.8h3.21L19.78,1.19a.71.71,0,0,1,0-1,.71.71,0,0,1,1,0L23.57,3a.71.71,0,0,1,0,1l-2.8,2.8a.7.7,0,1,1-1-1l1.61-1.6H18.18a5.59,5.59,0,0,0-5.59,5.59v7a.7.7,0,0,1-.7.7.68.68,0,0,1-.7-.7v-7A5.6,5.6,0,0,0,5.59,4.2H2.39L4,5.8a.7.7,0,0,1-1,1L.2,4a.71.71,0,0,1,0-1L3,.2a.71.71,0,0,1,1,0,.71.71,0,0,1,0,1Z" transform="translate(0 0)"/></svg>