<?xml version="1.0" encoding="UTF-8"?>
<svg width="57px" height="50px" viewBox="0 0 57 50" version="1.1" xmlns="http://www.w3.org/2000/svg" xmlns:xlink="http://www.w3.org/1999/xlink">
    <!-- Generator: Sketch 53.2 (72643) - https://sketchapp.com -->
    <title>Group 12</title>
    <desc>Created with Sketch.</desc>
    <defs>
        <polygon id="path-1" points="0.5992 0.1562 4.1052 0.1562 4.1052 33 0.5992 33"></polygon>
    </defs>
    <g id="Page-1" stroke="none" stroke-width="1" fill="none" fill-rule="evenodd">
        <g id="1_Home" transform="translate(-95.000000, -1147.000000)">
            <g id="Features" transform="translate(0.000000, 889.000000)">
                <g id="Icons" transform="translate(95.000000, 93.000000)">
                    <g id="Group-12" transform="translate(0.000000, 165.000000)">
                        <path d="M10.1979,31.3955 C9.2329,31.3955 8.4449,32.1875 8.4449,33.1485 L8.4449,48.2435 C8.4449,49.2085 9.2329,49.9995 10.1979,49.9995 C11.1639,49.9995 11.9509,49.2085 11.9509,48.2435 L11.9509,33.1485 C11.9509,32.1875 11.1639,31.3955 10.1979,31.3955" id="Fill-1" fill="#FEFEFE"></path>
                        <path d="M22.2457,28.3594 C21.2797,28.3594 20.4927,29.1504 20.4927,30.1124 L20.4927,48.2354 C20.4927,49.1974 21.2797,49.9884 22.2457,49.9884 C23.2117,49.9884 23.9987,49.1974 23.9987,48.2354 L23.9987,30.1124 C23.9987,29.1504 23.2117,28.3594 22.2457,28.3594" id="Fill-3" fill="#FEFEFE"></path>
                        <path d="M34.3043,23.5029 C33.3393,23.5029 32.5513,24.2939 32.5513,25.2559 L32.5513,48.2449 C32.5513,49.2109 33.3393,49.9979 34.3043,49.9979 C35.2703,49.9979 36.0573,49.2109 36.0573,48.2449 L36.0573,25.2559 C36.0573,24.2939 35.2703,23.5029 34.3043,23.5029" id="Fill-5" fill="#FEFEFE"></path>
                        <g id="Group-9" transform="translate(44.000000, 17.000000)">
                            <mask id="mask-2" fill="white">
                                <use xlink:href="#path-1"></use>
                            </mask>
                            <g id="Clip-8"></g>
                            <path d="M2.3522,0.1562 C1.3862,0.1562 0.5992,0.9472 0.5992,1.9082 L0.5992,31.2472 C0.5992,32.2092 1.3862,33.0002 2.3522,33.0002 C3.3172,33.0002 4.1052,32.2092 4.1052,31.2472 L4.1052,1.9082 C4.1052,0.9472 3.3172,0.1562 2.3522,0.1562" id="Fill-7" fill="#FEFEFE" mask="url(#mask-2)"></path>
                        </g>
                        <path d="M56.1198,0 L40.6968,0 C40.2128,0 39.8168,0.396 39.8168,0.876 C39.8168,1.147 43.0338,4.407 46.6068,7.945 C38.7168,15.081 29.4578,20.432 19.0798,23.46 C15.0538,24.632 10.8678,25.455 6.6788,25.818 C5.0988,25.957 3.4218,26.046 1.8328,25.982 C0.8708,25.936 0.0488,26.694 0.0018,27.656 C-0.0412,28.611 0.7038,29.435 1.6688,29.477 C2.1538,29.498 2.6448,29.498 3.1258,29.498 C4.4088,29.487 5.6908,29.413 6.9628,29.303 C11.3808,28.918 15.8118,28.041 20.0628,26.802 C31.0168,23.602 40.7828,17.948 49.0948,10.396 C52.7388,13.969 56.0768,17.179 56.1198,17.179 C56.5998,17.179 56.9958,16.784 56.9958,16.303 L56.9958,0.955 L56.9958,0.876 C56.9958,0.396 56.5998,0 56.1198,0" id="Fill-10" fill="#FEFEFE"></path>
                    </g>
                </g>
            </g>
        </g>
    </g>
</svg>