<svg id="Layer_1" data-name="Layer 1" xmlns="http://www.w3.org/2000/svg" viewBox="0 0 24.1 22.06"><defs><style>.cls-1{fill:#fff;}</style></defs><title>Repeatable</title><path class="cls-1" d="M23.3,17.75H20.7a10.63,10.63,0,0,0,2.3-6.7,10.82,10.82,0,0,0-3.2-7.8A11,11,0,0,0,7.1,1.15c-.3.1-.4.5-.3.9a.8.8,0,0,0,.9.31A9.9,9.9,0,0,1,18.9,4.15a9.89,9.89,0,0,1,2.9,6.9,10.21,10.21,0,0,1-1.7,5.6v-2.2c0-.39-.3-.59-.7-.59a.66.66,0,0,0-.7.59v3.91a.69.69,0,0,0,.7.79h4a.66.66,0,0,0,.7-.59c-.1-.5-.4-.81-.8-.81" transform="translate(0 0)"/><path class="cls-1" d="M16.3,19.75A9.88,9.88,0,0,1,5.1,18a9.85,9.85,0,0,1-2.9-6.9A10.17,10.17,0,0,1,3.9,5.46V7.65c.1.4.4.71.7.71a.76.76,0,0,0,.7-.71v-4a.68.68,0,0,0-.7-.6H.6a.65.65,0,0,0-.6.6.75.75,0,0,0,.7.71H3.3A10.62,10.62,0,0,0,1,11.05a10.82,10.82,0,0,0,3.2,7.81,11,11,0,0,0,7.8,3.2A12.07,12.07,0,0,0,16.9,21a.65.65,0,0,0,.3-.89.8.8,0,0,0-.9-.31" transform="translate(0 0)"/></svg>