<svg id="Layer_1" data-name="Layer 1" xmlns="http://www.w3.org/2000/svg" viewBox="0 0 22.37 24.14"><defs><style>.cls-1{fill:#fff;}</style></defs><title>Resilient</title><path class="cls-1" d="M21.62,24.14a.76.76,0,0,1-.75-.75V.75a.75.75,0,0,1,1.5,0V23.39A.75.75,0,0,1,21.62,24.14Z" transform="translate(0 0)"/><path class="cls-1" d="M17.78,24.14h-.11a.75.75,0,0,1-.63-.85A95,95,0,0,0,17.93,12,103.74,103.74,0,0,0,17,.85.74.74,0,0,1,17.68,0a.75.75,0,0,1,.84.64A101.82,101.82,0,0,1,19.43,12a96.29,96.29,0,0,1-.91,11.47A.74.74,0,0,1,17.78,24.14Z" transform="translate(0 0)"/><path class="cls-1" d="M14,24.14a.52.52,0,0,1-.21,0,.74.74,0,0,1-.51-.93A47.24,47.24,0,0,0,15.09,12C15.09,7.5,13.28,1,13.26,1A.75.75,0,1,1,14.7.55,51.83,51.83,0,0,1,16.59,12,47.92,47.92,0,0,1,14.7,23.6.76.76,0,0,1,14,24.14Z" transform="translate(0 0)"/><path class="cls-1" d="M9.18,24.14A.79.79,0,0,1,8.79,24a.75.75,0,0,1-.25-1c0-.06,3.67-6.13,3.67-11,0-4.42-3.64-10.83-3.68-10.9A.75.75,0,1,1,9.83.38C10,.65,13.71,7.2,13.71,12c0,5.27-3.73,11.49-3.89,11.75A.74.74,0,0,1,9.18,24.14Z" transform="translate(0 0)"/><path class="cls-1" d="M10.09,12.82H.75a.75.75,0,0,1,0-1.5h9.34a.75.75,0,0,1,0,1.5Z" transform="translate(0 0)"/><path class="cls-1" d="M7.66,15.78a.75.75,0,0,1-.53-.22.74.74,0,0,1,0-1.06l2.43-2.43L7.13,9.64A.75.75,0,1,1,8.19,8.58l3,3a.75.75,0,0,1,0,1.06l-3,3A.79.79,0,0,1,7.66,15.78Z" transform="translate(0 0)"/></svg>