<svg id="Layer_1" data-name="Layer 1" xmlns="http://www.w3.org/2000/svg" viewBox="0 0 19.25 19.28"><defs><style>.cls-1{fill:#fff;}</style></defs><title>self_hosted</title><path class="cls-1" d="M19.07,8.64l-2-.69a7.22,7.22,0,0,0-1-2.41L17,3.67a.27.27,0,0,0-.06-.33l-1-1a.28.28,0,0,0-.33-.06l-1.87.9a7.27,7.27,0,0,0-2.4-1l-.7-2A.46.46,0,0,0,10.33,0H8.91a.29.29,0,0,0-.27.21L8,2.2a7.32,7.32,0,0,0-2.41,1l-1.87-.9a.27.27,0,0,0-.33.06l-1,1a.28.28,0,0,0-.06.33l.9,1.87a7.41,7.41,0,0,0-1,2.41l-2,.69A.48.48,0,0,0,0,9v1.41a.29.29,0,0,0,.21.27l2,.7a7.41,7.41,0,0,0,1,2.41l-.9,1.86a.27.27,0,0,0,.06.33l1,1a.28.28,0,0,0,.33.06l1.87-.91a7.13,7.13,0,0,0,2.41,1l.69,2a.29.29,0,0,0,.27.21h1.42a.29.29,0,0,0,.27-.21l.69-2a7.05,7.05,0,0,0,2.41-1l1.87.91a.27.27,0,0,0,.33-.06l1-1A.28.28,0,0,0,17,15.6l-.91-1.86a7.22,7.22,0,0,0,1-2.41l2-.7a.29.29,0,0,0,.21-.27V9a.28.28,0,0,0-.18-.31m-.4,1.48-2,.66a.34.34,0,0,0-.21.24,7.27,7.27,0,0,1-1,2.53.37.37,0,0,0,0,.31l.91,1.83-.7.7-1.84-.91a.28.28,0,0,0-.3,0,6.58,6.58,0,0,1-2.53,1,.4.4,0,0,0-.24.21l-.63,1.92h-1l-.67-2a.34.34,0,0,0-.24-.21,7.23,7.23,0,0,1-2.53-1,.35.35,0,0,0-.3,0l-1.84.91-.69-.7.9-1.83a.27.27,0,0,0,0-.31,6.56,6.56,0,0,1-1-2.53.35.35,0,0,0-.18-.18l-2-.69v-1l2-.67a.34.34,0,0,0,.21-.24,7.21,7.21,0,0,1,1-2.53.3.3,0,0,0,0-.3l-.9-1.84.69-.69,1.84.91a.28.28,0,0,0,.3,0,6.55,6.55,0,0,1,2.53-1,.4.4,0,0,0,.24-.21L9.16.6h1l.66,2a.34.34,0,0,0,.24.21,6.9,6.9,0,0,1,2.53,1,.37.37,0,0,0,.31,0l1.83-.91.7.69-.91,1.84a.28.28,0,0,0,0,.3,6.7,6.7,0,0,1,1,2.53.4.4,0,0,0,.21.24l1.95.67v.93Z" transform="translate(0 0)"/><path class="cls-1" d="M9.64,4.79a4.85,4.85,0,1,0,4.85,4.85A4.85,4.85,0,0,0,9.64,4.79m0,9.1a4.25,4.25,0,1,1,4.25-4.25,4.25,4.25,0,0,1-4.25,4.25" transform="translate(0 0)"/><path class="cls-1" d="M10.12,7.38a.3.3,0,0,0-.36.24l-.87,4a.31.31,0,1,0,.6.12l.87-3.95a.29.29,0,0,0-.24-.36" transform="translate(0 0)"/><path class="cls-1" d="M10.87,8.67A.31.31,0,0,0,11,9.1l1,.54-1,.54a.33.33,0,0,0-.12.42.34.34,0,0,0,.43.12l1.41-.81a.32.32,0,0,0,0-.54L11.3,8.58a.33.33,0,0,0-.43.09" transform="translate(0 0)"/><path class="cls-1" d="M8.4,8.67A.3.3,0,0,0,8,8.55l-1.41.79a.32.32,0,0,0,0,.54L8,10.69a.31.31,0,1,0,.3-.54l-1-.51,1-.54a.31.31,0,0,0,.12-.43" transform="translate(0 0)"/></svg>