<?xml version="1.0" encoding="utf-8"?>
<!-- Generator: Adobe Illustrator 22.1.0, SVG Export Plug-In . SVG Version: 6.00 Build 0)  -->
<svg version="1.1" id="Layer_1" xmlns="http://www.w3.org/2000/svg" xmlns:xlink="http://www.w3.org/1999/xlink" x="0px" y="0px"
	 viewBox="0 0 50 50" style="enable-background:new 0 0 50 50;" xml:space="preserve">
<style type="text/css">
	.st0{fill:#ED1944;}
	.st1{fill:#FFFFFF;}
</style>
<g>
	<g>
		<g>
			<g>
				<g>
					<path class="st0" d="M37.2,43.6c-1.2,0.8-2.5,1.4-3.8,2c-2.8,1.2-5.8,1.8-8.9,1.7c-3.1,0-6.1-0.6-8.9-1.9
						c-2.7-1.2-5.2-2.8-7.3-5c-2.1-2.1-3.7-4.6-4.9-7.3c-1.2-2.8-1.8-5.8-1.7-8.9c0-3.1,0.6-6.1,1.9-8.9c1.2-2.7,2.8-5.2,5-7.3
						c2.1-2.1,4.6-3.7,7.3-4.9c2.8-1.2,5.8-1.8,8.9-1.7c3.1,0,6.1,0.6,8.9,1.9c2.7,1.2,5.2,2.8,7.3,5c2.1,2.1,3.7,4.6,4.9,7.3
						c1.2,2.8,1.8,5.8,1.7,8.9c0,3.1-0.6,6.1-1.9,8.9c-1.2,2.7-2.8,5.2-5,7.3C39.6,41.8,38.4,42.7,37.2,43.6z"/>
				</g>
			</g>
		</g>
	</g>
	<g>
		<g>
			<path class="st1" d="M20.3,17.2c0-2.5,2.2-4.6,4.8-4.3c2.3,0.2,4,2.2,3.9,4.5l0,5.5l-1.3,0c-0.2,0-0.2,0.2-0.2,0.3l2.6,3.5
				c0.1,0.2,0.4,0.2,0.6,0l2.7-3.5c0.1-0.1,0-0.3-0.1-0.3l-1.3,0l0-5.5c0-4-3.1-7.5-7.2-7.6c-4.2-0.1-7.7,3.2-7.7,7.4l0,1.1
				c0,0.8,0.7,1.5,1.5,1.5l0,0c0.8,0,1.5-0.7,1.5-1.5L20.3,17.2z"/>
		</g>
		<g>
			<path class="st1" d="M28.9,31.6c0,2.5-2.2,4.6-4.8,4.3c-2.3-0.2-4-2.2-3.9-4.5l0-5.5l1.3,0c0.2,0,0.2-0.2,0.2-0.3L19,22
				c-0.1-0.2-0.4-0.2-0.6,0l-2.7,3.5c-0.1,0.1,0,0.3,0.1,0.3l1.3,0l0,5.5c0,4,3.1,7.5,7.2,7.6c4.2,0.1,7.7-3.2,7.7-7.4l0-1.1
				c0-0.8-0.7-1.5-1.5-1.5l0,0c-0.8,0-1.5,0.7-1.5,1.5L28.9,31.6z"/>
		</g>
	</g>
</g>
</svg>
