<svg id="Layer_1" data-name="Layer 1" xmlns="http://www.w3.org/2000/svg" viewBox="0 0 94.03 158.61"><defs><style>.cls-1{fill:#f15b3e;}.cls-2{fill:#2a394d;}</style></defs><title>KataContainers_Logo_Stacked_2Color_RGB</title><path class="cls-1" d="M114.6,82.51l-35,35-35-35,6.2-6.2L79.61,105.1l28.78-28.79ZM96,82l-9.1-9.1,9.05-9.05,9.1,9.1ZM82,74.81,92.56,85.36,82,95.91Zm-4.8,21.1-23-23,23-23Zm4.8-46,10.5,10.5L82,70.93ZM44.63,63.33l35-35,35,35-6.21,6.2L79.61,40.75,50.83,69.53Zm76.75,0L79.61,21.56,37.84,63.33l9.6,9.59-9.6,9.59,41.77,41.77,41.77-41.77-9.6-9.59Z" transform="translate(-32.6 -21.56)"/><polygon class="cls-1" points="13.98 115.93 5.09 124.43 5.09 103.2 0 103.2 0 140.73 5.09 140.73 5.09 131.06 6.89 129.32 14.66 140.73 20.48 140.73 10.47 125.89 20.81 115.93 13.98 115.93"/><path class="cls-1" d="M74.9,139.51a10.59,10.59,0,0,0-7.27-2.81,11.9,11.9,0,0,0-6.33,1.7,11.59,11.59,0,0,0-4.38,4.71,14.35,14.35,0,0,0-1.56,6.74A14.55,14.55,0,0,0,57,156.66a11.84,11.84,0,0,0,10.77,6.42,10.47,10.47,0,0,0,5-1.21,11.5,11.5,0,0,0,2.23-1.57v2H80v-24.8H74.9Zm-1,14.79a7.09,7.09,0,0,1-2.56,2.95,6.71,6.71,0,0,1-3.75,1.05A6.6,6.6,0,0,1,64,157.25a7,7,0,0,1-2.54-3,9.83,9.83,0,0,1-1-4.44,9.52,9.52,0,0,1,1-4.38A7.17,7.17,0,0,1,64,142.53a6.68,6.68,0,0,1,3.68-1,6.8,6.8,0,0,1,3.75,1,7.12,7.12,0,0,1,2.56,3,10.59,10.59,0,0,1,0,8.81Z" transform="translate(-32.6 -21.56)"/><polygon class="cls-1" points="60.89 108.28 55.81 108.28 55.81 115.93 51.87 115.93 51.87 120.72 55.81 120.72 55.81 140.73 60.89 140.73 60.89 120.72 66.22 120.72 66.22 115.93 60.89 115.93 60.89 108.28"/><path class="cls-1" d="M121.54,137.49v2a10.6,10.6,0,0,0-2.24-1.59,10.45,10.45,0,0,0-5-1.22,11.9,11.9,0,0,0-6.33,1.7,11.59,11.59,0,0,0-4.38,4.71,14.35,14.35,0,0,0-1.56,6.74,14.49,14.49,0,0,0,1.6,6.81,11.81,11.81,0,0,0,10.76,6.42,10.47,10.47,0,0,0,5-1.21,11.5,11.5,0,0,0,2.23-1.57v2h5.09v-24.8Zm-1,16.81a7.09,7.09,0,0,1-2.56,2.95,6.71,6.71,0,0,1-3.75,1.05,6.6,6.6,0,0,1-3.68-1.05,7,7,0,0,1-2.54-3,9.83,9.83,0,0,1-1-4.44,9.52,9.52,0,0,1,1-4.38,7.17,7.17,0,0,1,2.54-2.94,6.7,6.7,0,0,1,3.68-1,6.78,6.78,0,0,1,3.75,1,7.21,7.21,0,0,1,2.57,3,10.64,10.64,0,0,1,0,8.81Z" transform="translate(-32.6 -21.56)"/><path class="cls-2" d="M35,179.57a4.27,4.27,0,0,1-1.57-1.69,5.14,5.14,0,0,1-.57-2.44,5.29,5.29,0,0,1,.56-2.45A4.15,4.15,0,0,1,35,171.31a4.37,4.37,0,0,1,2.28-.61,3.72,3.72,0,0,1,1.88.47,5.15,5.15,0,0,1,1.47,1.31l-1,.74a2.82,2.82,0,0,0-2.4-1.34,2.9,2.9,0,0,0-1.6.45,3.05,3.05,0,0,0-1.11,1.27,4.43,4.43,0,0,0,0,3.68,3.05,3.05,0,0,0,1.11,1.27,2.9,2.9,0,0,0,1.6.45,3,3,0,0,0,1.49-.32,3.13,3.13,0,0,0,1.06-.91l1,.7a4.56,4.56,0,0,1-1.54,1.24,4.3,4.3,0,0,1-2,.46,4.37,4.37,0,0,1-2.29-.6" transform="translate(-32.6 -21.56)"/><path class="cls-2" d="M49,178.55a3.12,3.12,0,0,0,1.11-1.27,4.43,4.43,0,0,0,0-3.68A3.12,3.12,0,0,0,49,172.33a3,3,0,0,0-1.62-.45,2.89,2.89,0,0,0-1.59.45,3.21,3.21,0,0,0-1.1,1.26,4,4,0,0,0-.4,1.83,4.16,4.16,0,0,0,.4,1.86,3.17,3.17,0,0,0,1.1,1.27,2.89,2.89,0,0,0,1.59.45,3,3,0,0,0,1.62-.45m-3.85,1a4.23,4.23,0,0,1-1.57-1.7,5.51,5.51,0,0,1,0-4.88,4.09,4.09,0,0,1,1.56-1.68,4.27,4.27,0,0,1,2.26-.61,4.36,4.36,0,0,1,2.27.61A4.17,4.17,0,0,1,51.19,173a5.18,5.18,0,0,1,.58,2.45,5.25,5.25,0,0,1-.56,2.44,4.17,4.17,0,0,1-1.56,1.69,4.27,4.27,0,0,1-2.26.6,4.35,4.35,0,0,1-2.27-.6" transform="translate(-32.6 -21.56)"/><path class="cls-2" d="M60.56,171.08a2.94,2.94,0,0,1,1.25,1.12,3.18,3.18,0,0,1,.46,1.74v5.93H61v-5.36c0-1.76-.79-2.63-2.35-2.63a2.36,2.36,0,0,0-2,1,4.47,4.47,0,0,0-.68,2.6v4.43H54.62V171h1.29v1.47a3.38,3.38,0,0,1,1.2-1.31,3.23,3.23,0,0,1,1.73-.47,3.94,3.94,0,0,1,1.72.38" transform="translate(-32.6 -21.56)"/><polygon class="cls-2" points="33.71 158.31 33.71 150.62 32.2 150.62 32.2 149.45 33.71 149.45 33.71 146.51 35 146.51 35 149.45 37.05 149.45 37.05 150.62 35 150.62 35 158.31 33.71 158.31"/><path class="cls-2" d="M77.53,178.55a3.2,3.2,0,0,0,1.11-1.27,4.43,4.43,0,0,0,0-3.68,3.2,3.2,0,0,0-1.11-1.27,3,3,0,0,0-1.62-.45,2.89,2.89,0,0,0-1.59.45,3.14,3.14,0,0,0-1.1,1.26,4,4,0,0,0-.4,1.83,4.16,4.16,0,0,0,.4,1.86,3.1,3.1,0,0,0,1.1,1.27,2.89,2.89,0,0,0,1.59.45,3,3,0,0,0,1.62-.45m2.8-7.54v8.86H79v-1.3a4.12,4.12,0,0,1-1.35,1.18,3.67,3.67,0,0,1-1.74.42,4.35,4.35,0,0,1-2.27-.6,4.2,4.2,0,0,1-1.57-1.69,5.53,5.53,0,0,1,0-4.89,4.09,4.09,0,0,1,1.56-1.68,4.27,4.27,0,0,1,2.26-.61,3.65,3.65,0,0,1,1.77.43,4,4,0,0,1,1.36,1.2V171Z" transform="translate(-32.6 -21.56)"/><path class="cls-2" d="M84.45,171h1.28v8.86H84.45Zm-.09-2a1,1,0,0,1-.29-.74,1,1,0,0,1,.29-.71,1.05,1.05,0,0,1,1.45,0,1,1,0,0,1,0,1.45,1,1,0,0,1-1.45,0" transform="translate(-32.6 -21.56)"/><path class="cls-2" d="M95.8,171.08a2.88,2.88,0,0,1,1.25,1.12,3.18,3.18,0,0,1,.46,1.74v5.93H96.23v-5.36c0-1.76-.79-2.63-2.35-2.63a2.33,2.33,0,0,0-2,1,4.4,4.4,0,0,0-.69,2.6v4.43H89.86V171h1.29v1.47a3.54,3.54,0,0,1,1.2-1.31,3.23,3.23,0,0,1,1.73-.47,3.91,3.91,0,0,1,1.72.38" transform="translate(-32.6 -21.56)"/><path class="cls-2" d="M107.84,174.64a3.39,3.39,0,0,0-.93-2.07,2.81,2.81,0,0,0-2-.69,2.73,2.73,0,0,0-2,.78,3.61,3.61,0,0,0-1,2Zm-.78-3.35a4.18,4.18,0,0,1,1.52,1.6,4.64,4.64,0,0,1,.55,2.26c0,.24,0,.43,0,.56h-7.29a3.75,3.75,0,0,0,.89,2.33,2.74,2.74,0,0,0,2.21,1,3.72,3.72,0,0,0,1.89-.43,3.23,3.23,0,0,0,1.2-1.18l1,.68a4.47,4.47,0,0,1-1.65,1.55,5,5,0,0,1-2.42.55,4.37,4.37,0,0,1-2.29-.6,4.27,4.27,0,0,1-1.57-1.69,5.14,5.14,0,0,1-.57-2.44,5.29,5.29,0,0,1,.55-2.45,4.22,4.22,0,0,1,1.56-1.68,4.33,4.33,0,0,1,2.27-.61,4.06,4.06,0,0,1,2.15.59" transform="translate(-32.6 -21.56)"/><path class="cls-2" d="M117.29,170.84V172a2,2,0,0,0-.87-.19,2.68,2.68,0,0,0-1.51.46,3.11,3.11,0,0,0-1.13,1.31,4.48,4.48,0,0,0-.43,2v4.24h-1.29V171h1.29v1.78a4.23,4.23,0,0,1,1.3-1.54,3,3,0,0,1,1.77-.55,2.74,2.74,0,0,1,.87.14" transform="translate(-32.6 -21.56)"/><path class="cls-2" d="M120.39,179.62a3.6,3.6,0,0,1-1.49-1.55l1.16-.57a2.73,2.73,0,0,0,2.74,1.5,3.31,3.31,0,0,0,1.63-.36,1.2,1.2,0,0,0,.65-1.12,1.32,1.32,0,0,0-.53-1.15,3.63,3.63,0,0,0-1.82-.49,4.68,4.68,0,0,1-2.6-.82,2.17,2.17,0,0,1-.79-1.76,2.27,2.27,0,0,1,.89-1.91,3.89,3.89,0,0,1,2.44-.69,3.57,3.57,0,0,1,3.58,2.09l-1.16.56a2.21,2.21,0,0,0-.94-1.11,3,3,0,0,0-1.57-.36,2.65,2.65,0,0,0-1.51.36,1.16,1.16,0,0,0-.52,1,1.18,1.18,0,0,0,.56,1,4.17,4.17,0,0,0,1.92.49,4.67,4.67,0,0,1,2.51.83,2.17,2.17,0,0,1,.82,1.77,2.32,2.32,0,0,1-.51,1.53,3.07,3.07,0,0,1-1.36.95,5.27,5.27,0,0,1-1.84.32,4.5,4.5,0,0,1-2.26-.55" transform="translate(-32.6 -21.56)"/></svg>