<svg id="Layer_1" data-name="Layer 1" xmlns="http://www.w3.org/2000/svg" width="0.57in" height="0.5in" viewBox="0 0 40.89 36"><defs><style>.cls-1{fill:#65c7c2;}.cls-2{fill:#141f47;}</style></defs><title>Airship_Icon</title><path class="cls-1" d="M57.17,70.87l-2.34-1.33a2.78,2.78,0,0,1-1.36-1.89l-.88-4.48a40.81,40.81,0,0,1-2.47-5.59l-7.28,12.7a2.1,2.1,0,0,0,.77,2.87,2,2,0,0,0,1,.28h11.5a.74.74,0,0,0,.65-.39l1.07-1.88A3.41,3.41,0,0,1,57.17,70.87Z" transform="translate(-42.56 -37.43)"/><path class="cls-2" d="M64.83,38.48A2.1,2.1,0,0,0,62,37.72a2.05,2.05,0,0,0-.76.76L52.13,54.21a1.86,1.86,0,0,1,1.11-.75c2.95-.78,8.9-1.82,13.51.84A14.46,14.46,0,0,1,72,60h4.81a.64.64,0,0,1,.59.29Z" transform="translate(-42.56 -37.43)"/><path class="cls-1" d="M83.19,70.28,77.5,60.44a.76.76,0,0,1-.16.81l-3,3.06L83.45,71C83.37,70.73,83.29,70.51,83.19,70.28Z" transform="translate(-42.56 -37.43)"/><path class="cls-2" d="M62,62.52A42.66,42.66,0,0,1,52,54.4l-.16.29a1.49,1.49,0,0,0,0,1.24,25.13,25.13,0,0,0,2.76,6.49l.94,4.84a.68.68,0,0,0,.36.52l2.34,1.33a.72.72,0,0,0,1-.22l0-.07L60,67.56a15,15,0,0,0,6.83,1.33L69.22,73a.76.76,0,0,0,1,.29.81.81,0,0,0,.36-.45L72,68.24a6.14,6.14,0,0,0,.84-.23A1.94,1.94,0,0,0,74,67.07,42.25,42.25,0,0,1,62,62.52Z" transform="translate(-42.56 -37.43)"/><path class="cls-1" d="M82.05,73.3l-8.41-3.7-1.07,3.8h8.8A1.14,1.14,0,0,0,82.05,73.3Z" transform="translate(-42.56 -37.43)"/></svg>