<?xml version="1.0" encoding="utf-8"?>
<!-- Generator: Adobe Illustrator 17.0.0, SVG Export Plug-In . SVG Version: 6.00 Build 0)  -->
<!DOCTYPE svg PUBLIC "-//W3C//DTD SVG 1.1//EN" "http://www.w3.org/Graphics/SVG/1.1/DTD/svg11.dtd">
<svg version="1.1" id="图层_1" xmlns="http://www.w3.org/2000/svg" xmlns:xlink="http://www.w3.org/1999/xlink" x="0px" y="0px"
	 width="239.125px" height="239.449px" viewBox="0 0 239.125 239.449" enable-background="new 0 0 239.125 239.449"
	 xml:space="preserve">
<path fill="#142A45" d="M217.396,0H21.729C9.729,0,0,9.728,0,21.729V217.72c0,12,9.728,21.729,21.729,21.729h195.667
	c12,0,21.729-9.728,21.729-21.729V21.729C239.125,9.729,229.396,0,217.396,0z M112.409,129.972v43l-3.243,2.562l-3.243,2.562
	l-6.668,5.268l-4.105,3.243l-3.875,3.062v-59.753c-0.046-5.279-1.176-9.15-3.359-11.48c-2.12-2.262-5.68-3.409-10.579-3.409
	c-4.103,0-7.583,1.049-10.64,3.207c-2.932,2.069-5.291,4.791-7.02,8.098v46.791l-3.243,2.562l-3.243,2.562l-6.474,5.115
	l-4.105,3.243l-4.069,3.215v-80.437h-0.058V59.099l4.143,2.646l5.077,3.243l5.077,3.243l0.41,0.262l3.243,2.072l3.243,2.072
	l0.104,0.067v30.735c6.146-4.868,13.511-7.33,21.99-7.33C95.628,96.112,112.192,101.987,112.409,129.972z M199.262,189.614h-63.446
	l2.463-1.946l2.463-1.946l11.082-8.756l2.463-1.946l2.463-1.946h42.513L199.262,189.614L199.262,189.614z"/>
</svg>
