<?xml version="1.0" encoding="utf-8"?>
<!-- Generator: Adobe Illustrator 21.1.0, SVG Export Plug-In . SVG Version: 6.00 Build 0)  -->
<svg version="1.1" id="图层_1" xmlns="http://www.w3.org/2000/svg" xmlns:xlink="http://www.w3.org/1999/xlink" x="0px" y="0px"
	 viewBox="0 0 290.7 81.1" style="enable-background:new 0 0 290.7 81.1;" xml:space="preserve">
<style type="text/css">
	.st0{fill:#FFFFFF;stroke:#FFFFFF;stroke-width:2;stroke-miterlimit:10;}
	.st1{fill:#F2D75D;}
	.st2{fill:#DB2856;}
	.st3{fill:#F6907F;}
	.st4{fill:#B62748;}
	.st5{fill:#D9E365;}
	.st6{fill:#41ADE2;}
	.st7{fill:#F1EC5F;}
	.st8{fill:#5698D2;}
	.st9{fill:#F6C778;}
	.st10{fill:#F5B052;}
	.st11{fill:#F05758;}
	.st12{fill:#DBCF3E;}
	.st13{fill:#2D8EA7;}
	.st14{fill:#C2B639;}
	.st15{fill:#D6262D;}
	.st16{fill:#375AA9;}
	.st17{fill:#E28D30;}
	.st18{fill:#34419A;}
	.st19{fill:#2B7197;}
	.st20{fill:#4576BB;}
	.st21{fill:#ED6380;}
	.st22{fill:#F15F79;}
	.st23{fill:#5678BB;}
	.st24{fill:#F37A81;}
	.st25{fill:none;stroke:#FFFFFF;stroke-width:2;stroke-miterlimit:10;}
	.st26{opacity:0.3;fill:#FFFFFF;}
	.st27{fill:#010100;}
	.st28{fill:#FFFFFF;}
	.st29{fill:#000100;}
	.st30{fill:#241A16;}
	.st31{fill:#808285;}
</style>
<g>
	<g>
		<g>
			<path class="st0" d="M31.3,0"/>
		</g>
	</g>
	<g>
		<path class="st1" d="M46.5,23c-4.5-2.6-9.8-4.1-15.3-4.1l0.1,8.5L46.5,23z"/>
		<polygon class="st2" points="46.4,75.9 50.3,60.5 31.2,71.5 		"/>
		<path class="st3" d="M61.7,49.5c0-5.6-1.5-10.8-4.1-15.3l-7.3,4.2L61.7,49.5z"/>
		<polygon class="st4" points="31.2,71.5 50.3,60.5 31.2,49.4 		"/>
		<path class="st5" d="M15.9,23c-4.6,2.7-8.5,6.6-11.2,11.2l7.3,4.2L15.9,23z"/>
		<path class="st6" d="M4.7,34.2c-2.6,4.5-4.1,9.7-4.1,15.3L12,38.4L4.7,34.2z"/>
		<path class="st7" d="M31.1,18.9c-5.6,0-10.7,1.5-15.3,4.1l15.3,4.4L31.1,18.9z"/>
		<path class="st8" d="M0.6,49.5c0,5.6,1.5,10.7,4,15.3l7.4-4.2L0.6,49.5z"/>
		<path class="st9" d="M57.6,34.2c-2.7-4.6-6.5-8.5-11.2-11.2l3.8,15.5L57.6,34.2z"/>
		<polygon class="st10" points="46.5,23 31.2,27.4 50.3,38.4 		"/>
		<polygon class="st11" points="61.7,49.5 50.3,38.4 50.3,60.5 		"/>
		<polygon class="st12" points="15.9,23 12,38.4 31.2,27.4 		"/>
		<polygon class="st13" points="0.6,49.5 12,60.5 12,38.4 		"/>
		<polygon class="st14" points="31.2,27.3 12,38.4 31.2,49.4 		"/>
		<polygon class="st15" points="50.3,60.5 50.3,38.4 31.2,49.4 		"/>
		<polygon class="st16" points="15.8,76 31.2,71.5 12,60.5 		"/>
		<polygon class="st17" points="50.3,38.4 31.2,27.4 31.2,49.4 		"/>
		<polygon class="st18" points="12,60.5 31.2,71.5 31.2,49.4 		"/>
		<polygon class="st19" points="12,38.4 12,60.5 31.2,49.4 		"/>
		<path class="st20" d="M4.6,64.7c2.7,4.6,6.6,8.5,11.2,11.2L12,60.5L4.6,64.7z"/>
		<path class="st21" d="M31.2,80.1c5.6,0,10.6-1.6,15.2-4.1l-15.2-4.4V80.1z"/>
		<path class="st22" d="M46.4,75.9c4.6-2.7,8.6-6.5,11.3-11.2l-7.4-4.3L46.4,75.9z"/>
		<path class="st23" d="M15.8,76c4.5,2.6,9.8,4.1,15.4,4.1v-8.5L15.8,76z"/>
		<path class="st24" d="M50.3,60.5l7.4,4.3c2.6-4.5,4-9.7,4-15.3L50.3,60.5z"/>
		<g>
			<path class="st0" d="M31.3,81.1"/>
			<path class="st0" d="M31.3,18.4"/>
			<path class="st0" d="M58.4,65.4"/>
			<path class="st0" d="M4.2,34.1"/>
			<path class="st0" d="M58.4,34.1"/>
			<path class="st0" d="M4.2,65.4"/>
			<path class="st0" d="M11.5,61.1"/>
			<path class="st0" d="M15.6,76.8"/>
			<path class="st0" d="M31.3,72.6"/>
			<path class="st0" d="M15.6,76.8"/>
			<path class="st25" d="M46.9,76.8"/>
			<path class="st25" d="M31.3,72.6"/>
			<path class="st25" d="M46.9,76.8"/>
			<path class="st25" d="M51.1,61.1"/>
			<path class="st25" d="M62.6,49.7"/>
			<path class="st25" d="M51.1,61.1"/>
			<path class="st25" d="M62.6,49.7"/>
			<path class="st25" d="M51.1,38.3"/>
			<path class="st25" d="M51.1,38.3"/>
			<path class="st25" d="M46.9,22.6"/>
			<path class="st25" d="M46.9,22.6"/>
			<path class="st25" d="M31.3,26.9"/>
			<path class="st25" d="M31.3,26.9"/>
			<path class="st25" d="M15.6,22.6"/>
			<path class="st25" d="M11.5,38.3"/>
			<path class="st25" d="M15.6,22.6"/>
			<path class="st25" d="M0,49.7"/>
			<path class="st25" d="M11.5,38.3"/>
			<path class="st25" d="M11.5,61.1"/>
			<path class="st25" d="M0,49.7"/>
		</g>
		<path class="st26" d="M39.3,53.7"/>
		<path class="st27" d="M58.6,74.9h-1.7v-0.7h4.3v0.7h-1.7v4.9h-0.9V74.9z"/>
		<path class="st27" d="M62.1,74.2h1.1l1.1,3c0.1,0.4,0.3,0.8,0.4,1.2h0c0.1-0.4,0.3-0.8,0.4-1.2l1.1-3h1.1v5.9h-0.9v-2.9
			c0-0.5,0.1-1.3,0.1-1.8h0l-0.5,1.4L65,79.6h-0.6l-1.1-2.8l-0.5-1.4h0c0,0.5,0.1,1.3,0.1,1.8v2.9h-0.9V74.2z"/>
		<g>
			<g>
				<path class="st28" d="M29.5,26.4l0.1,40.4l-12.6-7.2l9.5-5.5c0,0-1.4-2.7-4.5-1.2l-11.6,6.7l22.5,12.9V32.1l12.5,7.2l-9.5,5.5
					c0,0,1.7,2.8,4.6,1.1l11.6-6.7L29.5,26.4z"/>
			</g>
		</g>
	</g>
	<path class="st29" d="M255.2,30.1c-0.3,0.7-0.5,1.3-0.8,1.9h13.4v1.9h-14.3c-0.5,1.1-1,2.1-1.5,3.1c0.1,0-0.1,0,0,0l11,0
		c1.8,0,3.4,1.5,3.4,3.6l0,10.7c0,1.9-1.5,3.6-3.3,3.5h-2l0-1.9l2.1,0c0.6-0.1,1.1-0.7,1.1-1.6v-1.2l-13.4,0v5h-2.3l0-12.9
		c-0.9,1.2-1.6,1.8-2.6,2.8l-1.4-1.6c2.5-2.5,4.7-5.3,6.7-9.3l-5.9,0l0-1.9l6.8,0c0.4-0.8,0.8-1.9,1.2-2.8L255.2,30.1z M250.8,40.4
		v2.1l13.4,0l0-2c0-0.9-0.8-1.6-1.1-1.6L252,39C251.6,39,250.8,39.8,250.8,40.4z M250.8,48l13.4,0l0-3.5l-13.4,0V48z"/>
	<path class="st29" d="M269,38.3l21.7,0v2l-15.4,0l-2.6,12.3l13.5,0c0.5-0.1,1.2-0.5,1.1-2.6l0-6.1l2.2,0l0,6c0.2,2.8-1.2,4.5-3,4.6
		H270l2.8-14.3l-3.8,0L269,38.3z M269.9,32h19.9l0,1.9l-19.9,0L269.9,32z"/>
	<path class="st29" d="M68.8,30.5c0-0.5,0.5-1,1.2-1c0.6,0,1.1,0.5,1.1,1v16.6c0,3.4,2.2,5.4,4.6,5.4h4.4c2.7-0.4,4.3-3,4.3-5.4
		V30.6c0-0.6,0.5-1.1,1.1-1.1c0.6,0,1.2,0.5,1.2,1v16.6c-0.2,4-2.6,7.3-6.6,7.5h-4.4c-3.4-0.1-6.8-2.6-6.8-7.5L68.8,30.5z"/>
	<path class="st29" d="M99.6,36.3c3.1,0,5.8,2.3,5.8,6v11.3c0,0.5-0.5,1-1.1,1c-0.6,0-1.1-0.5-1.1-1V42.3c0-2.4-1.5-4.1-3.6-4.1
		h-5.9v15.3c0,0.6-0.5,1.1-1.1,1.1c-0.7,0-1.1-0.5-1.1-1V37.9c0-0.8,0.6-1.6,1.7-1.6L99.6,36.3z"/>
	<path class="st29" d="M110,30.5c0-0.6,0.4-1,1-1c0.6,0,1.1,0.4,1.1,1v0.7c0,0.6-0.4,1-1.1,1c-0.6,0-1-0.4-1-1V30.5z M110,37.2
		c0-0.6,0.4-1.1,1-1.1c0.6,0,1.1,0.4,1.1,1.1v16.2c0,0.6-0.4,1-1.1,1c-0.6,0-1-0.4-1-1V37.2z"/>
	<path class="st29" d="M118.2,33.5c0-0.6,0.5-1,1.1-1c0.6,0,1.1,0.5,1.1,1v3h4.7c0.7,0,1.1,0.4,1.1,1c0,0.6-0.4,1-1.1,1h-4.7v10.5
		c0,2.6,0.8,3.9,3.4,3.9h1.3c0.7,0,1.1,0.5,1.1,1c0,0.6-0.4,1-1.1,1h-1.3c-4,0-5.5-2.1-5.5-5.9V38.5h-1.9c-0.6,0-1.1-0.4-1.1-1
		c0-0.6,0.4-1,1.1-1h1.9V33.5z"/>
	<path class="st29" d="M129.1,43.2c0-4.4,3.1-7,6.9-7c4.5,0,7.1,2.5,7.1,7v1.7c0,0.8-0.7,1.5-1.6,1.5h-10.2c0,4.4,1,6.2,4.6,6.2h6
		c0.7,0,1.1,0.4,1.1,1c0,0.5-0.4,1-1,1h-6.1c-5.4,0-6.8-2.8-6.8-8.5L129.1,43.2z M140.9,43.1c0-3.2-1.7-4.9-4.9-4.9
		c-2.9,0-4.7,1.9-4.7,4.9v1.6h9.6V43.1z"/>
	<path class="st29" d="M159.9,53c0,0.8-0.8,1.6-1.7,1.6h-6.3c-4.4,0-5.9-4.1-5.9-6.8v-5.5c0-3.8,2.7-6,5.8-6h5.9v-5.8
		c0-0.6,0.5-1,1.1-1c0.6,0,1.1,0.4,1.1,1L159.9,53z M157.7,38.3h-5.9c-1.9,0-3.6,1.6-3.6,4.1v5.4c0,2.9,1.6,4.8,3.7,4.8h5.8
		L157.7,38.3z"/>
	<path class="st29" d="M164.9,54.6c-0.6,0-1.1-0.5-1.1-1c0-0.5,0.4-1.1,1-1.1l7.1,0c3.7,0,5.7-1.5,5.7-5.5c0-3.1-1.8-3.7-5.8-4.4
		c-4.2-0.8-8-1.6-8-6.8c0-4.6,3.1-6.4,8-6.4l6.2,0c1.1,0,1.2,0.6,1.2,1.1c0,0.5-0.5,1-1.1,1h-6.2c-3.8,0-5.9,1.1-5.9,4.3
		c0,3.6,2.4,4.1,6.2,4.8c4.7,0.8,7.5,2,7.5,6.5c0,5.3-2.8,7.5-7.8,7.5L164.9,54.6z"/>
	<path class="st29" d="M184.8,33.5c0-0.6,0.5-1,1.1-1c0.6,0,1.1,0.5,1.1,1l0,3l4.7,0c0.7,0,1.1,0.4,1.1,1c0,0.6-0.4,1-1,1l-4.8,0
		l0,10.4c0,2.6,1,3.9,3.5,3.9h1.3c0.6,0,1,0.5,1,1c0,0.5-0.4,1-1,1h-1.3c-3.9,0.1-5.7-2.1-5.7-5.9l0-10.4l-2,0c-0.6,0-1-0.4-1-1
		c0-0.6,0.4-1,1-1l2,0L184.8,33.5z"/>
	<path class="st29" d="M197.3,38.3c-0.7,0-1-0.4-1-1c0-0.5,0.4-1,1-1h6.3c3.5,0,5.4,2.3,5.4,5.2v11.6c0,0.9-0.5,1.5-2,1.5l-6.5,0
		c-3,0.1-5.1-2.4-5.1-5.2c0-2.8,1.9-5.3,5.2-5.2l6.3,0l0-2.4c0-1.9-1.1-3.4-3.3-3.4L197.3,38.3z M206.8,52.5l0-6.4h-6.4
		c-1.6,0-3.1,1.5-3.1,3.2c0,1.7,1.4,3.1,3.1,3.1L206.8,52.5z"/>
	<path class="st29" d="M224.2,36.3c0.6,0,1,0.6,1,1.1c0,0.4-0.4,0.8-1,0.8l-4,0c-3-0.4-5.3,2.1-5.2,5.5l0,3.4c0,3.8,2,5.7,5.2,5.5
		h3.9c0.6,0,1,0.4,1,1c0,0.5-0.4,1-1,1h-3.9c-5,0.3-7.4-2.5-7.4-7.6v-3.3c-0.3-5,2.9-7.7,7.4-7.4H224.2z"/>
	<path class="st29" d="M228.4,30.5c0-0.6,0.4-1,1.1-1c0.6,0,1.1,0.4,1.1,1v13.2h2.5c0.3,0,0.5-0.2,0.6-0.3L239,37
		c0.2-0.3,0.6-0.7,1-0.7c0.3,0,0.6,0.2,0.8,0.4c0.2,0.2,0.2,0.5,0.2,0.8c0,0.2-0.2,0.7-0.4,0.9l-5.5,6.4l6.2,8.2
		c0.1,0.2,0.2,0.4,0.2,0.6c0,0.3-0.1,0.5-0.4,0.8c-0.2,0.2-0.5,0.3-0.7,0.3c-0.3,0-0.7-0.2-0.9-0.4l-5.5-7.5
		c-0.3-0.4-0.5-0.8-0.9-0.8l-2.5,0l0,7.6c0,0.6-0.5,1.1-1.1,1.1c-0.6,0-1.1-0.5-1.1-1V30.5z"/>
	<g>
		<path class="st30" d="M73,74.2c-1.9,0-3.4-1.4-3.4-3.5v-3.1c0-2.1,1.5-3.7,3.4-3.7h1.2c2,0,3.4,1.6,3.4,3.7v3.1
			c0,2.1-1.5,3.5-3.4,3.5H73z M74.2,73.2c1.3,0,2.2-1,2.2-2.4v-3.3c0-1.4-0.9-2.6-2.2-2.6H73c-1.3,0-2.2,1.2-2.2,2.6v3.3
			c0,1.4,0.9,2.4,2.2,2.4H74.2z"/>
		<path class="st30" d="M80.2,64.7c0-0.5,0.4-0.9,0.9-0.9h3.5c2.4,0,3.3,2.4,3.3,3.9v3.1c0,2.1-1.5,3.4-3.2,3.4h-3.3v3.3
			c0,0.3-0.3,0.6-0.6,0.6c-0.3,0-0.6-0.2-0.6-0.6V64.7z M81.4,73h3.3c1.1,0,2-0.9,2-2.3v-3c0-1.6-0.9-2.7-2.1-2.7h-3.2V73z"/>
		<path class="st30" d="M90,67.7c0-2.5,1.7-3.9,3.9-3.9c2.5,0,4,1.4,4,3.9v1c0,0.5-0.4,0.8-0.9,0.8h-5.7c0,2.5,0.6,3.5,2.6,3.5h3.1
			c0.4,0,0.6,0.2,0.6,0.6c0,0.3-0.2,0.5-0.6,0.5h-3.1c-3,0-3.8-1.6-3.8-4.8L90,67.7z M96.5,67.7c0-1.8-0.9-2.7-2.7-2.7
			c-1.6,0-2.6,1.1-2.6,2.7v0.9h5.4V67.7z"/>
		<path class="st30" d="M104.5,63.8c1.7,0,3.2,1.3,3.2,3.4v6.4c0,0.3-0.3,0.6-0.6,0.6c-0.4,0-0.6-0.3-0.6-0.6v-6.4
			c0-1.4-0.8-2.3-2-2.3h-3.3v8.6c0,0.4-0.3,0.6-0.6,0.6c-0.4,0-0.6-0.3-0.6-0.6v-8.9c0-0.5,0.3-0.9,0.9-0.9L104.5,63.8z"/>
		<path class="st30" d="M116.4,63.8c0.4,0,0.6,0.2,0.6,0.5c0,0.3-0.3,0.6-0.6,0.6h-3.1c-1.3,0-2.3,0.5-2.3,1.7
			c0,1.1,0.7,1.5,2.5,1.7l0.7,0.1c2,0.3,3.2,1.1,3.2,2.8c0,2.3-1.6,3-3.9,3h-2.8c-0.3,0-0.6-0.2-0.6-0.5c0-0.3,0.2-0.6,0.6-0.6h2.8
			c1.6,0,2.7-0.5,2.7-1.8c0-0.9-0.8-1.5-2.2-1.7l-0.9-0.1c-2-0.2-3.3-0.9-3.3-2.8c0-2,1.6-2.8,3.5-2.8H116.4z"/>
		<path class="st30" d="M120.4,62.1c0-0.3,0.3-0.6,0.6-0.6c0.4,0,0.6,0.3,0.6,0.6v1.7h2.6c0.4,0,0.6,0.3,0.6,0.6
			c0,0.3-0.2,0.6-0.6,0.6h-2.6v6c0,1.5,0.4,2.2,1.9,2.2h0.8c0.4,0,0.6,0.3,0.6,0.6c0,0.3-0.2,0.6-0.6,0.6h-0.8
			c-2.2,0-3.1-1.2-3.1-3.4v-6h-1.1c-0.4,0-0.6-0.2-0.6-0.6c0-0.3,0.2-0.6,0.6-0.6h1.1V62.1z"/>
		<path class="st30" d="M127.5,64.9c-0.4,0-0.6-0.2-0.6-0.6c0-0.3,0.2-0.5,0.6-0.5h3.6c1.6,0,2.8,1.3,2.8,3v6.5
			c0,0.5-0.4,0.9-0.9,0.9h-3.8c-1.7,0-3-1.3-3-2.9c0-1.6,1.3-3,3-3h3.4v-1.4c0-1.1-0.7-1.9-1.7-1.9L127.5,64.9z M132.8,73v-3.6h-3.4
			c-1,0-1.8,0.8-1.8,1.8c0,1,0.8,1.8,1.8,1.8H132.8z"/>
		<path class="st30" d="M142.5,63.8c0.4,0,0.6,0.3,0.6,0.5c0,0.3-0.2,0.6-0.6,0.6h-2.3c-2,0-2.8,1-2.8,3v1.9c0,2.2,0.9,3.2,2.8,3.2
			h2.3c0.4,0,0.6,0.2,0.6,0.6c0,0.3-0.2,0.5-0.6,0.5h-2.3c-2.7,0-4-1.4-4-4.3V68c0-2.7,1.3-4.2,4-4.2H142.5z"/>
		<path class="st30" d="M145.4,60.5c0-0.3,0.2-0.6,0.6-0.6c0.4,0,0.6,0.3,0.6,0.6V68h1.4c0.2,0,0.3-0.1,0.3-0.2l3-3.6
			c0.1-0.2,0.3-0.2,0.5-0.2c0.1,0,0.3,0,0.4,0.1c0.1,0.1,0.2,0.3,0.2,0.4c0,0.1-0.1,0.3-0.2,0.4l-3.1,3.6l3.5,4.6
			c0.1,0.1,0.1,0.2,0.1,0.3c0,0.2-0.1,0.3-0.2,0.4c-0.1,0.1-0.3,0.2-0.4,0.2c-0.2,0-0.4-0.1-0.5-0.3l-3.1-4.2
			c-0.2-0.2-0.3-0.4-0.5-0.4h-1.4v4.3c0,0.4-0.3,0.6-0.6,0.6c-0.4,0-0.6-0.3-0.6-0.6V60.5z"/>
		<path class="st31" d="M161,60c0-0.5,0.4-0.9,0.9-0.9h2.6c0.4,0,0.6,0.2,0.6,0.6c0,0.3-0.2,0.6-0.6,0.6h-2.3v15.2h2.2
			c0.4,0,0.6,0.2,0.6,0.5c0,0.3-0.2,0.6-0.6,0.6h-2.6c-0.5,0-0.9-0.4-0.9-0.9V60z"/>
		<path class="st31" d="M173.4,63.8c0.4,0,0.6,0.3,0.6,0.5c0,0.3-0.2,0.6-0.6,0.6h-2.3c-2,0-2.8,1-2.8,3v1.9c0,2.2,0.9,3.2,2.8,3.2
			h2.3c0.4,0,0.6,0.2,0.6,0.6c0,0.3-0.2,0.5-0.6,0.5h-2.3c-2.7,0-4-1.4-4-4.3V68c0-2.7,1.3-4.2,4-4.2H173.4z"/>
		<path class="st31" d="M176.3,60.5c0-0.3,0.2-0.6,0.6-0.6c0.3,0,0.6,0.3,0.6,0.6v13c0,0.4-0.3,0.6-0.6,0.6c-0.4,0-0.6-0.3-0.6-0.6
			V60.5z"/>
		<path class="st31" d="M183.1,74.2c-1.9,0-3.4-1.4-3.4-3.5v-3.1c0-2.1,1.5-3.7,3.4-3.7h1.2c2,0,3.4,1.6,3.4,3.7v3.1
			c0,2.1-1.5,3.5-3.4,3.5H183.1z M184.4,73.2c1.3,0,2.2-1,2.2-2.4v-3.3c0-1.4-0.9-2.6-2.2-2.6h-1.2c-1.3,0-2.2,1.2-2.2,2.6v3.3
			c0,1.4,0.9,2.4,2.2,2.4H184.4z"/>
		<path class="st31" d="M196.6,64.4c0-0.3,0.2-0.6,0.6-0.6c0.4,0,0.6,0.3,0.6,0.6v8.9c0,0.5-0.4,0.9-0.9,0.9h-3.6
			c-1.7,0-3.2-1.3-3.2-3.4v-6.4c0-0.3,0.3-0.6,0.6-0.6c0.4,0,0.6,0.3,0.6,0.6v6.4c0,1.4,1,2.3,2,2.3h3.3V64.4z"/>
		<path class="st31" d="M207.7,73.2c0,0.5-0.4,0.9-0.9,0.9h-3.5c-2.4,0-3.3-2.3-3.3-3.8v-3.1c0-2.1,1.5-3.4,3.2-3.4h3.3v-3.3
			c0-0.3,0.3-0.6,0.6-0.6c0.3,0,0.6,0.2,0.6,0.6L207.7,73.2z M206.5,64.9h-3.3c-1.1,0-2,0.9-2,2.3v3c0,1.6,0.9,2.7,2.1,2.7h3.2
			L206.5,64.9z"/>
		<path class="st31" d="M214.1,75.7c0,0.5-0.4,0.9-0.9,0.9h-2.6c-0.3,0-0.6-0.2-0.6-0.6c0-0.3,0.3-0.5,0.6-0.5h2.2V60.2h-2.3
			c-0.3,0-0.6-0.3-0.6-0.6c0-0.3,0.3-0.6,0.6-0.6h2.6c0.5,0,0.9,0.4,0.9,0.9V75.7z"/>
		<path class="st30" d="M229.4,63.8c0.4,0,0.6,0.2,0.6,0.5c0,0.3-0.3,0.6-0.6,0.6h-3.1c-1.3,0-2.3,0.5-2.3,1.7
			c0,1.1,0.7,1.5,2.5,1.7l0.7,0.1c2,0.3,3.2,1.1,3.2,2.8c0,2.3-1.6,3-3.9,3h-2.8c-0.3,0-0.6-0.2-0.6-0.5c0-0.3,0.2-0.6,0.6-0.6h2.8
			c1.6,0,2.7-0.5,2.7-1.8c0-0.9-0.8-1.5-2.2-1.7l-0.9-0.1c-2-0.2-3.3-0.9-3.3-2.8c0-2,1.6-2.8,3.5-2.8H229.4z"/>
		<path class="st30" d="M232.2,67.7c0-2.5,1.7-3.9,3.9-3.9c2.5,0,4,1.4,4,3.9v1c0,0.5-0.4,0.8-0.9,0.8h-5.7c0,2.5,0.6,3.5,2.6,3.5
			h3.1c0.4,0,0.6,0.2,0.6,0.6c0,0.3-0.2,0.5-0.6,0.5H236c-3,0-3.8-1.6-3.8-4.8L232.2,67.7z M238.8,67.7c0-1.8-0.9-2.7-2.7-2.7
			c-1.6,0-2.6,1.1-2.6,2.7v0.9h5.4V67.7z"/>
		<path class="st30" d="M246.9,63.6c0.4,0,0.6,0.3,0.6,0.5c0,0.3-0.2,0.5-0.6,0.5h-0.7c-1.9,0-2.8,1.1-2.8,2.9v6
			c0,0.3-0.3,0.6-0.6,0.6c-0.4,0-0.6-0.2-0.6-0.6v-9.5c0-0.3,0.2-0.5,0.5-0.5c0.3,0,0.5,0.2,0.5,0.5l0,0.8c0.6-0.9,1.5-1.4,3-1.4
			L246.9,63.6z"/>
		<path class="st30" d="M255.3,64.2c0.1-0.3,0.3-0.5,0.6-0.4c0.4,0,0.6,0.3,0.6,0.6c0,0.1,0,0.2,0,0.2l-2.5,8.4
			c-0.2,0.6-0.8,1.1-1.5,1.1c-0.7,0-1.3-0.5-1.5-1.1l-2.5-8.6c0,0,0-0.1,0-0.1c0-0.3,0.2-0.5,0.6-0.5c0.3,0,0.6,0.2,0.6,0.4l2.4,8.4
			c0.1,0.2,0.2,0.4,0.5,0.4c0.3,0,0.4-0.1,0.5-0.4L255.3,64.2z"/>
		<path class="st30" d="M258.5,60.6c0-0.3,0.2-0.6,0.6-0.6c0.3,0,0.6,0.2,0.6,0.6V61c0,0.3-0.2,0.6-0.6,0.6c-0.4,0-0.6-0.2-0.6-0.6
			V60.6z M258.5,64.4c0-0.3,0.2-0.6,0.6-0.6c0.3,0,0.6,0.3,0.6,0.6v9.2c0,0.3-0.3,0.6-0.6,0.6c-0.4,0-0.6-0.2-0.6-0.6V64.4z"/>
		<path class="st30" d="M268.4,63.8c0.4,0,0.6,0.3,0.6,0.5c0,0.3-0.2,0.6-0.6,0.6h-2.3c-2,0-2.8,1-2.8,3v1.9c0,2.2,0.9,3.2,2.8,3.2
			h2.3c0.4,0,0.6,0.2,0.6,0.6c0,0.3-0.2,0.5-0.6,0.5h-2.3c-2.7,0-4-1.4-4-4.3V68c0-2.7,1.3-4.2,4-4.2H268.4z"/>
		<path class="st30" d="M270.8,67.7c0-2.5,1.7-3.9,3.9-3.9c2.5,0,4,1.4,4,3.9v1c0,0.5-0.4,0.8-0.9,0.8H272c0,2.5,0.6,3.5,2.6,3.5
			h3.1c0.4,0,0.6,0.2,0.6,0.6c0,0.3-0.2,0.5-0.6,0.5h-3.1c-3,0-3.8-1.6-3.8-4.8V67.7z M277.4,67.7c0-1.8-0.9-2.7-2.7-2.7
			c-1.6,0-2.6,1.1-2.6,2.7v0.9h5.4V67.7z"/>
		<path class="st30" d="M286.9,63.8c0.4,0,0.6,0.2,0.6,0.5c0,0.3-0.3,0.6-0.6,0.6h-3.1c-1.3,0-2.3,0.5-2.3,1.7
			c0,1.1,0.7,1.5,2.5,1.7l0.7,0.1c2,0.3,3.2,1.1,3.2,2.8c0,2.3-1.6,3-3.9,3h-2.8c-0.3,0-0.6-0.2-0.6-0.5c0-0.3,0.2-0.6,0.6-0.6h2.8
			c1.6,0,2.7-0.5,2.7-1.8c0-0.9-0.8-1.5-2.2-1.7l-0.9-0.1c-2-0.2-3.3-0.9-3.3-2.8c0-2,1.6-2.8,3.5-2.8H286.9z"/>
	</g>
</g>
</svg>
