<?xml version="1.0" encoding="utf-8"?>
<!-- Generator: Adobe Illustrator 21.1.0, SVG Export Plug-In . SVG Version: 6.00 Build 0)  -->
<svg version="1.1"
	 id="svg3751" xmlns:cc="http://creativecommons.org/ns#" xmlns:dc="http://purl.org/dc/elements/1.1/" xmlns:rdf="http://www.w3.org/1999/02/22-rdf-syntax-ns#" xmlns:svg="http://www.w3.org/2000/svg"
	 xmlns="http://www.w3.org/2000/svg" xmlns:xlink="http://www.w3.org/1999/xlink" x="0px" y="0px" viewBox="0 0 300 300.2"
	 style="enable-background:new 0 0 300 300.2;" xml:space="preserve">
<style type="text/css">
	.st0{fill:#231F20;}
	.st1{fill:url(#path3402_1_);}
	.st2{fill:url(#path3428_1_);}
	.st3{fill:url(#path3454_1_);}
	.st4{fill:url(#path3480_1_);}
	.st5{fill:url(#path3506_1_);}
	.st6{fill:url(#path3532_1_);}
	.st7{fill:url(#path3558_1_);}
	.st8{fill:url(#path3584_1_);}
</style>
<g id="layer1" transform="translate(-172.44358,-219.73387)">
	<g id="g3348" transform="matrix(7.0133699,0,0,-7.0133699,184.4516,489.91397)">
		<path id="path3350" class="st0" d="M0,0h3.5v2.8H5v-6.8H3.5v2.9H0v-2.9h-1.6v6.8H0V0z"/>
	</g>
	<g id="g3352" transform="matrix(7.0133699,0,0,-7.0133699,-22.64833,3618.6134)">
		<g>
			<g id="g3354">
				<g id="g3360" transform="translate(37.3755,444.7798)">
					<path id="path3362" class="st0" d="M0,0c0-1.2,0.4-1.7,1.7-1.7C3-1.7,3.3-1.2,3.3,0v4.1h1.6V0c0-0.9-0.1-1.5-0.4-1.8
						C3.8-2.5,3-2.8,1.7-2.8c-1.3,0-2.2,0.3-2.8,0.9c-0.3,0.4-0.4,1-0.4,1.8v4.1H0V0z"/>
				</g>
				<g id="g3364" transform="translate(45.3774,444.8823)">
					<path id="path3366" class="st0" d="M0,0h2.2L1.1,2.6L0,0z M2,4l3.2-6.8H3.4L2.7-1.2h-3.2l-0.7-1.6h-1.7L0.3,4C0.3,4,2,4,2,4z"
						/>
				</g>
				<g id="g3368" transform="translate(51.2056,448.8745)">
					<path id="path3370" class="st0" d="M0,0l1.7-5.3L3.2,0H5l1.7-5.3L8.2,0h1.6L7.6-6.8H5.7L4.1-1.7L2.7-6.8H0.8L-1.7,0H0z"/>
				</g>
				<g id="g3372" transform="translate(63.145,446.0962)">
					<path id="path3374" class="st0" d="M0,0h4.3v-1.2H0c0-1.2,0.5-1.7,1.8-1.7h2.5v-1.2H1.7C0.8-4.1,0.1-4-0.6-3.5
						C-1.4-2.9-1.8-2-1.8-0.8c0,2.4,1.1,3.5,3.5,3.5h2.6V1.6H1.8C0.6,1.6,0.1,1.1,0,0"/>
				</g>
				<path id="path3376" class="st0" d="M68.8,448.9h1.6V442h-1.6V448.9z"/>
			</g>
		</g>
	</g>
	<g id="g3378" transform="matrix(7.0133699,0,0,-7.0133699,-22.64833,3618.6134)">
		<g id="g3380">
			<g id="g3386">
				<g id="g3388">
					
						<radialGradient id="path3402_1_" cx="-47.685" cy="408.5003" r="1" gradientTransform="matrix(214.8762 0 0 -214.8762 10301.0918 88257.5391)" gradientUnits="userSpaceOnUse">
						<stop  offset="0" style="stop-color:#F9AB95"/>
						<stop  offset="0.4201" style="stop-color:#ED1C24"/>
						<stop  offset="0.427" style="stop-color:#ED1C24"/>
						<stop  offset="0.8726" style="stop-color:#ED1C24"/>
						<stop  offset="1" style="stop-color:#981015"/>
					</radialGradient>
					<path id="path3402" class="st1" d="M31,471.8c0.1-2.7,2.2-4.3,2.2-4.3l0,0c3.2-3.2,11.1-7.1,12.9-8l0,0c0,0,0.1,0,0.2,0l0,0
						c0,0,0.1,0.1,0,0.2l0,0c-5,10.9-11.8,19.2-11.8,19.2l0,0C34.5,478.8,30.7,475.3,31,471.8"/>
				</g>
			</g>
		</g>
	</g>
	<g id="g3404" transform="matrix(7.0133699,0,0,-7.0133699,-22.64833,3618.6134)">
		<g id="g3406">
			<g id="g3412">
				<g id="g3414">
					
						<radialGradient id="path3428_1_" cx="-47.685" cy="408.5003" r="1" gradientTransform="matrix(214.8986 0 0 -214.8986 10302.1768 88266.7188)" gradientUnits="userSpaceOnUse">
						<stop  offset="0" style="stop-color:#F9AB95"/>
						<stop  offset="0.4201" style="stop-color:#ED1C24"/>
						<stop  offset="0.427" style="stop-color:#ED1C24"/>
						<stop  offset="0.8726" style="stop-color:#ED1C24"/>
						<stop  offset="1" style="stop-color:#981015"/>
					</radialGradient>
					<path id="path3428" class="st2" d="M31.8,456.5c1.4-2.5,3.8-4.5,6.3-3.9l0,0c1.7,0.4,5.6,3.1,6.9,4.1l0,0l0,0
						c0.1,0.1,0.1,0.2,0.1,0.2l0,0c0,0.1-0.2,0.1-0.2,0.1l0,0v0L31.8,456.5L31.8,456.5z"/>
				</g>
			</g>
		</g>
	</g>
	<g id="g3430" transform="matrix(7.0133699,0,0,-7.0133699,-22.64833,3618.6134)">
		<g id="g3432">
			<g id="g3438">
				<g id="g3440">
					
						<radialGradient id="path3454_1_" cx="-47.6849" cy="408.5003" r="1" gradientTransform="matrix(214.8414 0 0 -214.8414 10299.4229 88243.3359)" gradientUnits="userSpaceOnUse">
						<stop  offset="0" style="stop-color:#F9AB95"/>
						<stop  offset="0.4201" style="stop-color:#ED1C24"/>
						<stop  offset="0.427" style="stop-color:#ED1C24"/>
						<stop  offset="0.8726" style="stop-color:#ED1C24"/>
						<stop  offset="1" style="stop-color:#981015"/>
					</radialGradient>
					<path id="path3454" class="st3" d="M28.7,462.3c1.4-3,4.1-3.9,4.1-3.9l0,0c1.2-0.5,2.5-0.5,2.5-0.5l0,0c0.2,0,7.8,0,9.8,0l0,0
						c0.1,0,0.1,0.1,0.1,0.1l0,0c0.1,0.1,0,0.2,0,0.2l0,0v0c-5.7,3.9-16.8,9.8-16.8,9.8l0,0C27.3,464.9,28.7,462.3,28.7,462.3"/>
				</g>
			</g>
		</g>
	</g>
	<g id="g3456" transform="matrix(7.0133699,0,0,-7.0133699,-22.64833,3618.6134)">
		<g id="g3458">
			<g id="g3464">
				<g id="g3466">
					
						<radialGradient id="path3480_1_" cx="-47.6849" cy="408.5003" r="1" gradientTransform="matrix(214.8431 0 0 -214.843 10299.5029 88243.9922)" gradientUnits="userSpaceOnUse">
						<stop  offset="0" style="stop-color:#F9AB95"/>
						<stop  offset="0.4201" style="stop-color:#ED1C24"/>
						<stop  offset="0.427" style="stop-color:#ED1C24"/>
						<stop  offset="0.8726" style="stop-color:#ED1C24"/>
						<stop  offset="1" style="stop-color:#981015"/>
					</radialGradient>
					<path id="path3480" class="st4" d="M44,484.1c-3.5-0.9-4.3-4-4.3-4l0,0c-0.6-2,0-4.1,0-4.1l0,0c1.2-5.1,6.8-13.5,8.1-15.3l0,0
						c0.1-0.1,0.2-0.1,0.2-0.1l0,0c0.1,0,0.1,0.1,0.1,0.2l0,0c1.9,18.8-2,23.8-2,23.8l0,0C45.5,484.4,44,484.1,44,484.1"/>
				</g>
			</g>
		</g>
	</g>
	<g id="g3482" transform="matrix(7.0133699,0,0,-7.0133699,-22.64833,3618.6134)">
		<g id="g3484">
			<g id="g3490">
				<g id="g3492">
					
						<radialGradient id="path3506_1_" cx="-47.6853" cy="408.5002" r="1" gradientTransform="matrix(215.089 0 0 -215.089 10311.3242 88344.4531)" gradientUnits="userSpaceOnUse">
						<stop  offset="0" style="stop-color:#F9AB95"/>
						<stop  offset="0.4201" style="stop-color:#ED1C24"/>
						<stop  offset="0.427" style="stop-color:#ED1C24"/>
						<stop  offset="0.8726" style="stop-color:#ED1C24"/>
						<stop  offset="1" style="stop-color:#981015"/>
					</radialGradient>
					<path id="path3506" class="st5" d="M50.3,460.7L50.3,460.7c0-0.1,0.1-0.1,0.1-0.1l0,0c0.1,0,0.2,0.1,0.2,0.1l0,0v0
						c1.3,1.8,6.9,10.2,8.1,15.3l0,0c0,0,0.6,2.5,0,4.1l0,0c0,0-0.8,3.2-4.3,4l0,0c0,0-1,0.3-2.1,0.4l0,0
						C52.3,484.5,48.4,479.5,50.3,460.7"/>
				</g>
			</g>
		</g>
	</g>
	<g id="g3508" transform="matrix(7.0133699,0,0,-7.0133699,-22.64833,3618.6134)">
		<g id="g3510">
			<g id="g3516">
				<g id="g3518">
					
						<radialGradient id="path3532_1_" cx="-47.6852" cy="408.5002" r="1" gradientTransform="matrix(215.0497 0 0 -215.0497 10309.4375 88328.4141)" gradientUnits="userSpaceOnUse">
						<stop  offset="0" style="stop-color:#F9AB95"/>
						<stop  offset="0.4201" style="stop-color:#ED1C24"/>
						<stop  offset="0.427" style="stop-color:#ED1C24"/>
						<stop  offset="0.8726" style="stop-color:#ED1C24"/>
						<stop  offset="1" style="stop-color:#981015"/>
					</radialGradient>
					<path id="path3532" class="st6" d="M53.5,456.9c0,0-0.1,0-0.1-0.1l0,0c0,0,0-0.1,0.1-0.2l0,0v0c1.2-0.9,5-3.5,6.9-4.1l0,0
						c0,0,3.4-1.1,6.3,3.9l0,0L53.5,456.9L53.5,456.9L53.5,456.9z"/>
				</g>
			</g>
		</g>
	</g>
	<g id="g3534" transform="matrix(7.0133699,0,0,-7.0133699,-22.64833,3618.6134)">
		<g id="g3536">
			<g id="g3542">
				<g id="g3544">
					
						<radialGradient id="path3558_1_" cx="-47.6853" cy="408.5002" r="1" gradientTransform="matrix(215.0786 0 0 -215.0786 10310.8281 88340.2188)" gradientUnits="userSpaceOnUse">
						<stop  offset="0" style="stop-color:#F9AB95"/>
						<stop  offset="0.4201" style="stop-color:#ED1C24"/>
						<stop  offset="0.427" style="stop-color:#ED1C24"/>
						<stop  offset="0.8726" style="stop-color:#ED1C24"/>
						<stop  offset="1" style="stop-color:#981015"/>
					</radialGradient>
					<path id="path3558" class="st7" d="M53.2,458.2L53.2,458.2c0,0-0.1-0.1-0.1-0.2l0,0c0,0,0.1-0.1,0.1-0.1l0,0v0
						c2.1,0,9.8,0,10,0l0,0c0,0,1,0,2.2,0.5l0,0c0,0,2.8,0.9,4.2,4l0,0c0,0,1.3,2.6,0.3,5.6l0,0C70.1,468,59,462.1,53.2,458.2"/>
				</g>
			</g>
		</g>
	</g>
	<g id="g3560" transform="matrix(7.0133699,0,0,-7.0133699,-22.64833,3618.6134)">
		<g id="g3562">
			<g id="g3568">
				<g id="g3570">
					
						<radialGradient id="path3584_1_" cx="-47.6853" cy="408.5002" r="1" gradientTransform="matrix(215.0923 0 0 -215.0923 10311.4844 88345.8125)" gradientUnits="userSpaceOnUse">
						<stop  offset="0" style="stop-color:#F9AB95"/>
						<stop  offset="0.4201" style="stop-color:#ED1C24"/>
						<stop  offset="0.427" style="stop-color:#ED1C24"/>
						<stop  offset="0.8726" style="stop-color:#ED1C24"/>
						<stop  offset="1" style="stop-color:#981015"/>
					</radialGradient>
					<path id="path3584" class="st8" d="M52.1,459.7L52.1,459.7c0,0-0.1-0.1,0-0.2l0,0c0,0,0.1-0.1,0.2,0l0,0
						c1.9,0.9,9.7,4.9,12.9,8l0,0c0,0,2,1.6,2.2,4.3l0,0c0.2,3.7-3.4,7-3.4,7l0,0C63.9,478.8,57.1,470.6,52.1,459.7"/>
				</g>
			</g>
		</g>
	</g>
</g>
</svg>
