<?xml version="1.0" encoding="utf-8"?>
<!-- Generator: Adobe Illustrator 21.1.0, SVG Export Plug-In . SVG Version: 6.00 Build 0)  -->
<svg version="1.1" id="Layer_1" xmlns="http://www.w3.org/2000/svg" xmlns:xlink="http://www.w3.org/1999/xlink" x="0px" y="0px"
	 viewBox="0 0 353 80.5" style="enable-background:new 0 0 353 80.5;" xml:space="preserve">
<style type="text/css">
	.st0{fill:url(#SVGID_1_);}
	.st1{fill:#606568;}
</style>
<g>
	
		<linearGradient id="SVGID_1_" gradientUnits="userSpaceOnUse" x1="-241.4618" y1="636.2224" x2="-240.7888" y2="636.2224" gradientTransform="matrix(149.6648 -76.258 -76.258 -149.6648 84664.0547 76882.6641)">
		<stop  offset="0" style="stop-color:#144485"/>
		<stop  offset="0.34" style="stop-color:#1E58A6"/>
		<stop  offset="0.78" style="stop-color:#3DB270"/>
		<stop  offset="1" style="stop-color:#3DB270"/>
	</linearGradient>
	<path class="st0" d="M65.6,80.1h4h3.6c2.2,0,4-1.8,4-4V69c0,0,0-0.1,0-0.1c0.1-2.2,1.8-3.9,4-3.9h0h3.6h4c0,0,0.1,0,0.1,0
		c2.1,0.1,3.9,1.8,3.9,4v0l0,0v7.2c0,2.2,1.8,4,4,4h7.6c2.2,0,4-1.8,4-4V69c0,0,0-0.1,0-0.1c0.1-2.2,1.8-3.9,4-3.9h0h3.6h4
		c2.2,0,4-1.8,4-4v-7.2c0-2.2-1.8-4-4-4H115h-2.8c-2.2,0-4-1.8-4-4v-3.6v-3.6c0-2.2-1.8-4-4-4h-7.6c-2.2,0-4,1.8-4,4v7.2
		c0,0,0,0.1,0,0.1c-0.1,2.1-1.8,3.9-4,3.9h-3.6v0h-4c-2.2,0-4,1.8-4,4V61c0,0,0,0.1,0,0.1c-0.1,2.1-1.8,3.9-4,3.9h-3.6v0h-1.2h-2.8
		c-2.2,0-4-1.8-4-4v-3.6v-3.6c0-2.2-1.8-4-4-4H50c-2.2,0-4,1.8-4,4V61c0,2.2,1.8,4,4,4h7.6c0,0,0.1,0,0.1,0c2.1,0.1,3.9,1.8,3.9,4v0
		l0,0v5.2H27.7c-12.1,0-21.9-9.8-21.9-21.9c0-12.1,9.8-21.9,21.9-21.9h7.6c1,0,2.5-1.2,2.4-2.4C37.7,15.8,47.5,6,59.6,6
		c12.1,0,21.9,9.8,21.9,21.9c0,0.1,0,0.2,0,0.4c0,1.3,1.6,2.4,3,2.4c1.4,0,2.9-1,3.2-2.4c0,0,0-0.3,0-0.4C87.7,12.5,75.2,0,59.8,0
		C45.6,0,33.9,10.6,32.1,24.3h-4.8v0C12.2,24.6,0,37,0,52.2C0,67.6,12.4,80,27.7,80.1v0H65.6z M96.7,49.8L96.7,49.8h3.6h4
		c0,0,0.1,0,0.1,0c2.1,0.1,3.9,1.8,3.9,4v0v0V61c0,0,0,0.1,0,0.1c-0.1,2.1-1.8,3.9-4,3.9h-3.6v0h-1.2h-2.8c-2.2,0-4-1.8-4-4v-3.6
		v-3.6c0,0,0-0.1,0-0.1C92.7,51.6,94.5,49.8,96.7,49.8z"/>
	<g>
		<path class="st1" d="M201,54.6v-18h-60.7v18v0h25.8v13.5c0,2.9-0.5,4.3-1.5,5.2c-1,0.9-2.5,1.3-4.5,1.4v4.8
			c5.2-0.2,9-1.3,11.4-3.4c2.4-2.1,3.6-5.3,3.6-9.6V54.7L201,54.6L201,54.6z M192.2,49.6h-43.2v-7.9h43.2V49.6z"/>
		<polygon class="st1" points="203.2,28.2 175.2,28.2 175.2,24.3 166.1,24.3 166.1,28.2 138.1,28.2 138.1,33.2 203.2,33.2 		"/>
		<polygon class="st1" points="138.1,79.5 143.3,79.5 155,59.9 145.8,59.9 		"/>
		<polygon class="st1" points="186.3,59.9 198,79.5 203.2,79.5 195.5,59.9 		"/>
		<polygon class="st1" points="261.2,60.2 272.9,79.8 278.1,79.8 270.4,60.2 		"/>
		<polygon class="st1" points="212.7,79.8 217.9,79.8 229.6,60.2 220.4,60.2 		"/>
		<path class="st1" d="M236.1,24.6H227l-1.5,3.8h-12.7v5.1h10.7L214.9,55h26.4v13.5c0,3-0.5,4.3-1.5,5.1c-1,0.9-2.5,1.3-4.5,1.4v4.8
			c5.2-0.2,9-1.3,11.4-3.4c2.4-2.1,3.6-5.3,3.6-9.6V55h25.1v-0.2v-4.8h-25.1V42h-9.1v7.9h-14.8l6.1-16.4h45.5v-5.1h-43.5L236.1,24.6
			z"/>
		<rect x="295" y="28.5" class="st1" width="51.2" height="5.4"/>
		<polygon class="st1" points="314.5,55.2 353,55.2 353,49.9 288.4,49.9 288.4,55.2 303,55.2 291.4,72.9 291.4,72.9 291.4,72.9 
			291.4,72.9 291.4,72.9 291.4,79.3 342.3,76.2 344.8,80.5 350.4,80.5 342.8,61.2 333.3,61.2 339.1,70.9 300,72.5 		"/>
	</g>
</g>
</svg>
