<?xml version="1.0" encoding="utf-8"?>
<!-- Generator: Adobe Illustrator 21.1.0, SVG Export Plug-In . SVG Version: 6.00 Build 0)  -->
<svg version="1.1" id="图层_1" xmlns="http://www.w3.org/2000/svg" xmlns:xlink="http://www.w3.org/1999/xlink" x="0px" y="0px"
	 viewBox="0 0 290.8 140.6" style="enable-background:new 0 0 290.8 140.6;" xml:space="preserve">
<style type="text/css">
	.st0{fill:#0087D1;}
</style>
<g>
	<path class="st0" d="M89.6,0H14.4l0,0C9.1,0,4.8,4.4,4.8,9.7c0,5.3,4.3,9.7,9.6,9.7v0H57c3.7,0,6.7,3.1,6.7,6.8
		c0,1.4-0.4,2.7-1.1,3.7c0,0.1-60.7,95.2-60.7,95.2c-0.2,0.3-0.6,0.9-0.6,0.9c-0.6,1-1.3,2.8-1.3,4.8c0,5.3,4.2,9.6,9.5,9.7v0h80.1
		v0c5.3-0.1,9.5-4.4,9.5-9.7c0-5.3-4.3-9.6-9.5-9.7l-0.2,0h-47c-3.7,0-6.8-3-6.8-6.8c0-1.1,0.3-2.3,0.8-3.1l61.5-96.5l0,0
		c0.9-1.5,1.4-3.2,1.4-5.1C99.3,4.3,94.9,0,89.6,0z"/>
	<path class="st0" d="M191.3,0c0,0-75,0-75,0l0,0c0,0,0,0,0,0c-5.4,0-9.7,4.3-9.7,9.7c0,5.4,4.3,9.7,9.7,9.7c0,0,0,0,0,0l0,0h17
		c5.3,0,9.7,4.3,9.7,9.7v100.5c0,0,0,0,0,0c0,6,4.9,10.9,10.9,10.9c6,0,10.9-4.9,10.9-10.9l0,0l0,0V29.1c0-5.3,4.3-9.7,9.7-9.7h16.9
		v0c5.4,0,9.7-4.3,9.7-9.7C201,4.3,196.6,0,191.3,0z"/>
	<path class="st0" d="M281.1,121.2c-0.1,0-41.4,0-41.4,0c-5.3,0-9.6-4.3-9.7-9.6V89.7c0,0,0-0.1,0-0.1c0-5.4,4.3-9.7,9.7-9.7
		c0,0,0,0,0,0H274l0,0l0,0c5.4,0,9.7-4.3,9.7-9.7c0-5.4-4.3-9.7-9.7-9.7l0,0l0,0h-34.3c-5.3-0.1-9.6-4.4-9.6-9.7c0,0,0-21.9,0-21.9
		c0.1-5.3,4.4-9.5,9.7-9.5c0,0,0,0,0,0h41.5v0c5.3-0.1,9.6-4.4,9.6-9.7c0-5.3-4.3-9.6-9.6-9.7v0h-63.3c-5.4,0-9.7,4.3-9.7,9.7
		c0,0.1,0,0.3,0,0.4c0,0,0,120.6,0,120.8c0,5.3,4.3,9.6,9.6,9.7v0h63.4l0,0c5.3-0.1,9.6-4.4,9.6-9.7
		C290.8,125.5,286.5,121.2,281.1,121.2z"/>
</g>
</svg>
