<?xml version="1.0" encoding="utf-8"?>
<!-- Generator: Adobe Illustrator 21.1.0, SVG Export Plug-In . SVG Version: 6.00 Build 0)  -->
<svg version="1.1" id="Layer_1" xmlns="http://www.w3.org/2000/svg" xmlns:xlink="http://www.w3.org/1999/xlink" x="0px" y="0px"
	 viewBox="0 0 926.6 137.3" style="enable-background:new 0 0 926.6 137.3;" xml:space="preserve">
<style type="text/css">
	.st0{fill:#00A1FF;}
	.st1{fill:#00C4D6;}
	.st2{fill:#006EFF;}
</style>
<g>
	<g>
		<path d="M707.7,87.9c0-0.5-0.6-0.8-1-0.4c-6.4,7.1-16.1,13-28.4,13c-18.3,0-30.1-12.6-30.1-32.2c0-19.9,11.3-32.3,29.4-32.3
			c10.5,0,21.5,5,28.1,11.9c0.4,0.4,1,0.1,1-0.4V37.4c-7.4-6.7-18.1-10.7-29.1-10.7c-11.4,0-21,4-27.9,11.5
			c-6.8,7.5-10.4,17.9-10.4,30.1c0,24.9,15.7,41.6,39,41.6c11.1,0,22-4.1,29.4-11V87.9z"/>
		<polygon points="210.6,28.8 210.6,37.5 237.9,37.5 237.9,107.9 247.3,107.9 247.3,37.5 274.7,37.5 274.7,28.8 		"/>
		<path d="M917.2,55.8c-4.9-5.3-13.1-7.2-18.9-7.2c-7.9,0-14.9,2.9-19.9,8.3c-5.1,5.5-7.8,13.1-7.8,22c0,21.1,14,30.5,27.9,30.5
			c8.1,0,14.8-2.9,18.7-8v6.7h9.4V28.9h-9.4V55.8z M916.9,79c0,10.8-6.3,21.7-18.2,21.7c-9,0-18.7-6.7-18.7-21.3
			c0-10.7,5.7-22.3,18.1-22.3C912,57.2,916.9,69,916.9,79z"/>
		<rect x="720.2" y="28.9" width="9.6" height="79.1"/>
		<path d="M444.7,93.4c0-0.5-0.6-0.8-1-0.4c-6.2,5.6-15.1,7.7-19,7.7c-12.7,0-20.9-8.5-20.9-21.7c0-13.2,8.2-21.7,20.9-21.7
			c3.9,0,12.6,1.1,19,6.6c0.4,0.3,0.9,0.1,0.9-0.4v-8.7c-3.9-2.4-12-6.2-20.5-6.2c-17.5,0-29.3,12.2-29.3,30.4
			c0,18.2,11.8,30.4,29.3,30.4c7.2,0,14.3-2,20.5-6.2V93.4z"/>
		<path d="M321,91.5c0-0.6-0.7-0.8-1-0.3c-4.2,5.5-14.3,10-20.4,10c-5.9,0-11.5-1.9-14.5-5.1c-3.7-3.8-5.7-9-5.6-14.4h44.2V81
			c0-12.5-2.1-19.6-7.6-25.2c-4.6-4.7-10.8-7.1-18.6-7.1c-16.6,0-27.2,11.8-27.2,30.2c0.6,19.1,11.5,30.5,29,30.5
			c8.4,0,15.5-2.8,21.8-8.4V91.5z M314.7,73.5h-35.3l0-0.2c0.4-5,2.6-9.4,6.4-12.5c3.1-2.5,7.1-3.9,11.3-3.9
			c10.3,0,17,6.3,17.5,16.5L314.7,73.5z"/>
		<path d="M850.4,79.5c0,15.8-9.1,21.3-16.9,21.3c-7.5,0-15.6-5.2-15.6-14.9V50h-9v35.8c0,13.9,9.9,23.6,24.1,23.6
			c7.9,0,14-2.6,17.9-7.7v6.3h8.6V50h-9.1V79.5z"/>
		<path d="M360.8,48.6c-7.2,0-13.4,2.4-17.5,6.9v-5.5h-8.9V108h9.1V74.9c0-5.5,1.7-10.1,4.7-13.1c3.3-3.2,7.3-4.7,12.3-4.5
			c7.2,0.2,14.4,5,14.4,15.1V108h9.1V71.9c0-7.2-2.3-13.1-6.6-17.2C373.4,50.7,367.6,48.6,360.8,48.6z"/>
		<path d="M504.3,91.5c0-0.6-0.7-0.8-1-0.3c-4.2,5.5-14.3,10-20.4,10c-5.9,0-11.5-1.9-14.5-5.1c-3.7-3.8-5.7-9-5.6-14.4H507V81
			c0-12.5-2.1-19.6-7.6-25.2c-4.6-4.7-10.8-7.1-18.6-7.1c-16.6,0-27.2,11.8-27.2,30.2c0.6,19.1,11.5,30.5,29,30.5
			c8.4,0,15.5-2.8,21.8-8.4V91.5z M498,73.5h-35.3l0-0.2c0.4-5,2.6-9.4,6.4-12.5c3.1-2.5,7.1-3.9,11.3-3.9c10.3,0,17,6.3,17.5,16.5
			L498,73.5z"/>
		<path d="M544,48.6c-7.2,0-13.4,2.4-17.5,6.9v-5.5h-8.9V108h9.1V74.9c0-5.5,1.7-10.1,4.7-13.1c3.3-3.2,7.3-4.7,12.3-4.5
			c7.2,0.2,14.4,5,14.4,15.1V108h9.1V71.9c0-7.2-2.3-13.1-6.6-17.2C556.6,50.7,550.8,48.6,544,48.6z"/>
		<path d="M597.1,108.8c5.5-0.3,11.9-2.7,11.9-2.7v-8.7c0-0.4-0.4-0.7-0.8-0.5c-2.2,0.8-7.2,2.3-9.8,2.7c-1,0.2-1.8,0.3-2.4-0.2
			c-0.4-0.4-0.6-0.8-0.6-1.8v-39h16.7v-8.5h-16.7V34.4h-9.5v15.5h-9.5v8.5h9.5v39.9c0,3.4,1,6.1,3.1,7.9
			C591,107.9,593.8,108.8,597.1,108.8z"/>
		<path d="M770.5,48.7c-16.8,0-28.2,12.2-28.2,30.3s11.3,30.3,28.2,30.3c16.8,0,28.2-12.2,28.2-30.3S787.3,48.7,770.5,48.7z
			 M751.1,79L751.1,79c0-12.9,7.8-21.5,19.4-21.5c11.6,0,19.4,8.7,19.4,21.6c0,12.9-7.8,21.6-19.4,21.6
			C758.9,100.6,751.1,91.9,751.1,79z"/>
	</g>
	<g>
		<path class="st0" d="M177.2,62.4c-7.9-8.1-19-13.2-31.3-13.2c-10.6,0-19.8,3.7-27.8,10.2c-3.5,2.8-7.1,6.2-11.7,10.7
			c-2.3,2.2-68.5,66.5-68.5,66.5c3.5,0.5,8.2,0.6,12.5,0.7c4,0,80.1,0,83.3,0c6.4,0,10.6,0,15.1-0.3c10.3-0.8,20-4.5,27.8-12.2
			C193.9,107.6,194.2,79.8,177.2,62.4 M164.4,112.4c-3.4,3.3-9.4,7.1-19.3,7.5c-4.6,0.2-9.9,0.2-12.4,0.2H79.6
			c19.3-18.8,36.2-35.2,38.1-37c1.8-1.7,5.7-5.5,9.1-8.5c7.5-6.7,14.2-8.1,18.9-8c7.4,0.1,14.2,3.1,19.1,8
			C175.2,85.1,175,102,164.4,112.4"/>
		<path class="st1" d="M70.3,58.3c-7.8-5.8-16.5-9.1-26.4-9.1c-12.3,0-23.4,5.1-31.3,13.2c-17,17.4-16.8,45.2,0.7,62.3
			c7,6.9,15.5,10.6,24.5,11.9l17.1-16.5c-2.8,0-6.7-0.1-10.2-0.2c-9.9-0.3-15.9-4.1-19.3-7.5C14.8,102,14.5,85.1,24.9,74.5
			c4.8-4.9,11.6-7.9,19.1-8c4.7,0,11,1.3,18.2,7.3c3.4,2.8,11,9.5,14.3,12.5c0.2,0.2,0.4,0.2,0.6,0l11.7-11.5c0.2-0.2,0.2-0.5,0-0.6
			C83.1,69,75.1,61.9,70.3,58.3"/>
		<path class="st2" d="M150.5,39.3C142.4,16.4,120.5,0,94.9,0C65.4,0,41,21.6,36.6,49.8c2.4-0.4,4.8-0.6,7.3-0.6
			c3.5,0,6.8,0.4,9.9,1.2c0.1,0,0.1,0,0.2,0c4-19,20.8-33.2,40.8-33.2c16.7,0,31.3,10.1,37.9,24.3c0.1,0.2,0.3,0.3,0.5,0.3
			c5-1.4,10.9-2.2,16.6-1.7C150.4,40.1,150.6,39.8,150.5,39.3"/>
	</g>
</g>
</svg>
