<?xml version="1.0" encoding="utf-8"?>
<!-- Generator: Adobe Illustrator 19.1.0, SVG Export Plug-In . SVG Version: 6.00 Build 0)  -->
<svg version="1.1" id="Layer_1" xmlns="http://www.w3.org/2000/svg" xmlns:xlink="http://www.w3.org/1999/xlink" x="0px" y="0px"
	 viewBox="0 0 662.6 121" enable-background="new 0 0 662.6 121" xml:space="preserve">
<g>
	<path fill="#231F20" d="M195.2,90.4c-3.5,0-6.4-0.3-8.7-0.9s-4.1-1.7-5.4-3.3c-1.3-1.6-2.3-3.7-2.8-6.3s-0.8-6.1-0.8-10.2v-5.4
		c0-4.1,0.3-7.5,0.8-10.2c0.5-2.7,1.4-4.8,2.8-6.4c1.3-1.6,3.1-2.6,5.4-3.3c2.3-0.6,5.2-0.9,8.7-0.9h9.9c9.1,0,13.6,4.4,13.6,13.3
		v2.5c0,1.4-0.7,2.1-2.2,2.1h-6c-1.4,0-2.1-0.7-2.1-2.1v-1c0-1.6-0.4-2.8-1.2-3.7c-0.8-0.9-2.4-1.4-4.8-1.4h-5.1
		c-1.8,0-3.3,0.1-4.4,0.4c-1.1,0.3-2,0.8-2.6,1.7c-0.6,0.8-1,2-1.1,3.6c-0.2,1.5-0.3,3.6-0.3,6.1v4.2c0,2.6,0.1,4.6,0.3,6.1
		c0.2,1.5,0.6,2.7,1.1,3.6c0.6,0.9,1.4,1.4,2.6,1.7c1.1,0.3,2.6,0.4,4.4,0.4h5.1c2.3,0,3.9-0.5,4.8-1.4c0.8-0.9,1.3-2.3,1.3-4.3
		v-0.9c0-1.5,0.7-2.2,2.2-2.2h5.9c1.5,0,2.2,0.7,2.2,2.2v1.3c0,9.9-4.5,14.9-13.6,14.9H195.2z"/>
	<path fill="#231F20" d="M229,38.9c-1.4,0-2.1-0.7-2.1-2.1v-6.6c0-1.5,0.7-2.2,2.1-2.2h7c1.4,0,2.1,0.7,2.1,2.2v6.6
		c0,1.4-0.7,2.1-2.1,2.1H229z M229,90c-1.4,0-2.1-0.7-2.1-2.1V46.2c0-1.5,0.7-2.2,2.1-2.2h7c1.4,0,2.1,0.7,2.1,2.2v41.6
		c0,1.4-0.7,2.1-2.1,2.1H229z"/>
	<path fill="#231F20" d="M260.8,90c-2.5,0-4.5-0.2-6.1-0.6s-2.8-1.1-3.7-2c-0.9-0.9-1.5-2.2-1.9-3.7c-0.3-1.5-0.5-3.5-0.5-5.8V38.7
		c0-1.5,0.7-2.2,2.1-2.2h7c1.4,0,2.1,0.7,2.1,2.2v6.1h10.5c1.5,0,2.2,0.7,2.2,2.2v4.9c0,1.4-0.7,2.1-2.2,2.1h-10.5v23
		c0,1.4,0.3,2.3,0.8,2.8c0.5,0.5,1.5,0.8,2.8,0.8h5.5c1.4,0,2.1,0.7,2.1,2.2v5c0,1.4-0.7,2.1-2.1,2.1H260.8z"/>
	<path fill="#231F20" d="M280,106.1c-1.4,0-2.1-0.7-2.1-2.2v-5c0-1.4,0.7-2.1,2.1-2.1h8c1.5,0,2.5-0.2,3.2-0.7
		c0.7-0.5,1.2-1.2,1.6-2.4l1.3-3.7H292c-0.5,0-0.8-0.2-0.9-0.7L276.3,46c0-1.3,0.6-2,1.9-2h7.6c0.8,0,1.5,0.1,1.9,0.4
		c0.4,0.3,0.7,0.8,0.9,1.5l9.1,30.8c0.1,0.3,0.3,0.4,0.6,0.4h0.9L309.3,46c0.2-0.7,0.5-1.2,0.9-1.5c0.4-0.3,1-0.4,1.8-0.4h7
		c1.4,0,2.1,0.7,2.1,2l-18.3,51.2c-0.6,1.6-1.3,3-2,4.2c-0.7,1.1-1.7,2.1-2.8,2.8c-1.1,0.7-2.4,1.2-4,1.5c-1.5,0.3-3.3,0.5-5.4,0.5
		H280z"/>
</g>
<g>
	<path fill="#595A5C" d="M367.6,90c-1,0-1.5-0.5-1.5-1.4V58c0-2.9-0.6-5-1.9-6.3c-1.3-1.3-3.2-2-5.7-2h-7.7c-3.5,0-6.1,0.5-7.8,1.5
		c-1.7,1-3.1,2.7-4.1,5.2v32.1c0,1-0.5,1.4-1.4,1.4h-4.2c-1,0-1.4-0.5-1.4-1.4V45.5c0-1,0.5-1.4,1.4-1.4h3.9c1,0,1.5,0.5,1.5,1.4
		v3.1c0.6-0.7,1.2-1.3,2-2c0.7-0.6,1.7-1.1,2.8-1.6s2.4-0.8,4-1c1.5-0.3,3.4-0.4,5.6-0.4h6.9c2.4,0,4.4,0.2,6.1,0.7
		c1.7,0.5,3.1,1.3,4.2,2.4c1.1,1.1,1.9,2.6,2.4,4.3c0.5,1.8,0.8,4,0.8,6.6v30.9c0,1-0.5,1.4-1.4,1.4H367.6z"/>
	<path fill="#595A5C" d="M400,90.4c-3.5,0-6.3-0.3-8.5-0.9c-2.2-0.6-4-1.7-5.3-3.3c-1.3-1.6-2.2-3.7-2.7-6.3s-0.8-6.1-0.8-10.2v-5.4
		c0-4.1,0.3-7.5,0.8-10.2c0.5-2.7,1.4-4.8,2.7-6.4s3-2.6,5.2-3.3c2.2-0.6,5-0.9,8.4-0.9h7.7c5.4,0,9.3,1.3,11.7,4
		c2.3,2.6,3.5,6.9,3.5,12.9v5.8c0,2.6-1.1,3.8-3.2,3.8h-30.1v0.4c0,3,0.1,5.4,0.4,7.3s0.8,3.3,1.6,4.4c0.8,1,1.9,1.8,3.3,2.1
		c1.4,0.4,3.2,0.6,5.3,0.6h10c2.1,0,3.6-0.5,4.5-1.4c0.9-0.9,1.4-2.6,1.4-4.9v-1.9c0-0.6,0.1-0.9,0.4-1.1c0.3-0.2,0.7-0.3,1.1-0.3
		h3.4c0.3,0,0.7,0.1,1,0.3c0.3,0.2,0.5,0.6,0.5,1.2v1.6c0,8.1-3.9,12.2-11.6,12.2H400z M416.4,60c0-2-0.1-3.7-0.4-5
		s-0.8-2.5-1.4-3.3c-0.7-0.8-1.6-1.5-2.8-1.8c-1.2-0.4-2.7-0.6-4.5-0.6h-7.1c-2.2,0-4,0.2-5.4,0.5c-1.4,0.3-2.5,1-3.3,1.9
		s-1.3,2.2-1.6,3.9c-0.3,1.7-0.4,3.8-0.4,6.4v2.6h25.8c0.8,0,1.2-0.5,1.2-1.4V60z"/>
	<path fill="#595A5C" d="M444.6,90c-2.3,0-4.2-0.2-5.7-0.6s-2.7-1-3.5-2c-0.9-0.9-1.4-2.1-1.8-3.6c-0.3-1.5-0.5-3.3-0.5-5.4V37.9
		c0-1,0.5-1.4,1.4-1.4h4.3c0.9,0,1.4,0.5,1.4,1.4v6.5h13.4c1,0,1.4,0.5,1.4,1.5v3c0,1-0.5,1.4-1.4,1.4h-13.4v28.1
		c0,1.1,0.1,2.1,0.3,2.8c0.2,0.7,0.5,1.3,0.9,1.7c0.5,0.4,1,0.7,1.7,0.9s1.6,0.2,2.8,0.2h6.4c1,0,1.4,0.5,1.4,1.5v3
		c0,1-0.5,1.4-1.4,1.4H444.6z"/>
	<path fill="#595A5C" d="M506.4,90c-1.6,0-2.5-0.7-2.9-2l-9.1-36.9c-0.1-0.4-0.3-0.6-0.6-0.6H493c-0.3,0-0.5,0.2-0.6,0.6L482.9,88
		c-0.2,0.8-0.5,1.3-0.9,1.6c-0.4,0.3-1,0.4-2,0.4h-7.4c-0.8,0-1.5-0.1-1.9-0.4s-0.7-0.8-0.9-1.6l-10.5-42.8c0-0.3,0.1-0.6,0.3-0.9
		c0.2-0.3,0.5-0.4,0.9-0.4h4.3c0.6,0,0.9,0.1,1.1,0.3c0.2,0.2,0.4,0.5,0.5,1l9,38.4c0.1,0.4,0.3,0.6,0.6,0.6h0.8
		c0.3,0,0.5-0.2,0.6-0.6l9.4-38.2c0.2-1,0.9-1.5,2-1.5h8.8c1,0,1.7,0.5,2,1.5l9.1,38.2c0.1,0.4,0.3,0.6,0.6,0.6h0.8
		c0.3,0,0.5-0.2,0.6-0.6l9.2-38.4c0.2-0.9,0.7-1.3,1.6-1.3h3.8c0.3,0,0.6,0.1,0.9,0.3c0.3,0.2,0.4,0.5,0.4,0.9L516.3,88
		c-0.2,0.8-0.5,1.3-0.9,1.6c-0.4,0.3-1,0.4-2,0.4H506.4z"/>
	<path fill="#595A5C" d="M549.8,90.4c-3.4,0-6.2-0.3-8.4-0.9s-4-1.7-5.3-3.2c-1.3-1.5-2.2-3.6-2.7-6.2c-0.5-2.6-0.8-6-0.8-10.1v-6
		c0-4.1,0.3-7.4,0.8-10.1c0.5-2.6,1.4-4.7,2.7-6.2c1.3-1.5,3.1-2.6,5.3-3.2s5-0.9,8.4-0.9h7.3c3.4,0,6.2,0.3,8.4,0.9s4,1.7,5.3,3.2
		c1.3,1.5,2.2,3.6,2.7,6.2c0.5,2.6,0.8,6,0.8,10.1v6c0,4.1-0.3,7.4-0.8,10.1c-0.5,2.6-1.4,4.7-2.7,6.2c-1.3,1.5-3.1,2.6-5.3,3.2
		s-5,0.9-8.4,0.9H549.8z M567.3,64.1c0-3.2-0.1-5.8-0.4-7.7c-0.3-1.9-0.8-3.4-1.5-4.4c-0.7-1-1.8-1.6-3.1-1.9
		c-1.3-0.3-3.1-0.4-5.3-0.4h-7.3c-2.2,0-4,0.1-5.3,0.4c-1.3,0.3-2.4,0.9-3.1,1.9s-1.2,2.5-1.5,4.4c-0.3,1.9-0.4,4.5-0.4,7.7v5.9
		c0,3.2,0.1,5.8,0.4,7.7c0.3,1.9,0.7,3.4,1.5,4.4c0.7,1,1.8,1.6,3.1,1.9c1.3,0.3,3.1,0.4,5.3,0.4h7.3c2.2,0,4-0.1,5.3-0.4
		c1.3-0.3,2.4-0.9,3.1-1.9c0.7-1,1.2-2.4,1.5-4.4c0.3-1.9,0.4-4.5,0.4-7.7V64.1z"/>
	<path fill="#595A5C" d="M586,90c-0.6,0-1-0.1-1.2-0.4s-0.3-0.6-0.3-1.1V45.5c0-0.4,0.1-0.7,0.3-1c0.2-0.3,0.6-0.4,1.1-0.4h4
		c1,0,1.4,0.5,1.4,1.4v4.2c0.7-1,1.6-1.8,2.5-2.5c0.9-0.7,2-1.3,3.3-1.8c1.2-0.5,2.7-0.8,4.4-1.1c1.7-0.2,3.7-0.3,6-0.3h6.5
		c0.4,0,0.7,0.1,1,0.4c0.3,0.3,0.4,0.7,0.4,1.1V49c0,1-0.5,1.5-1.4,1.5H603c-3,0-5.3,0.6-7,1.7c-1.7,1.1-3.1,3-4.4,5.6v30.7
		c0,1-0.5,1.4-1.4,1.4H586z"/>
	<path fill="#595A5C" d="M656.2,90c-0.8,0-1.4-0.3-1.8-1l-14-21.2H630v20.8c0,1-0.5,1.4-1.4,1.4h-4.3c-1,0-1.4-0.5-1.4-1.4V29.4
		c0-1,0.5-1.4,1.4-1.4h4.3c0.9,0,1.4,0.5,1.4,1.4v33.1h10.4L654,44.9c0.3-0.3,0.5-0.5,0.8-0.6c0.2-0.1,0.6-0.2,1.1-0.2h5.2
		c0.5,0,0.8,0.2,0.8,0.7c0,0.3-0.1,0.5-0.3,0.8l-15,19.4l15.8,23.6c0.2,0.3,0.3,0.5,0.3,0.8c0,0.5-0.3,0.8-0.9,0.8H656.2z"/>
</g>
<g>
	<path fill="#F49823" d="M148.5,69.3c-1.1-1.8-2.4-3.3-4-4.5l0,0c0,0-3.4-2.4-7.4-6c-3.4-3.1-7.3-7.2-9.8-11.4
		c-2.5-4.3-4-9.6-5-14.2c-1.1-5.2-1.5-9.4-1.5-9.4l0,0c-0.2-2-0.8-3.9-1.9-5.7c-1-1.8-2.3-3.2-3.9-4.4c-0.8-0.6-1.6-1.1-2.4-1.5
		c-0.9-0.4-1.7-0.7-2.7-1c-0.9-0.2-1.8-0.4-2.8-0.5c-0.9-0.1-1.9,0-2.9,0.1c-1.9,0.2-3.8,0.8-5.6,1.9c-0.5,0.3-0.9,0.5-1.3,0.8
		c-0.1,0-0.1,0.1-0.2,0.1c-0.4,0.3-0.7,0.5-1,0.8c0,0,0,0-0.1,0c-0.7,0.7-1.4,1.4-2,2.2l0,0l0,0c0,0-8.2,11.8-17.4,17.1
		c-7.5,4.1-18.6,5-24.3,6.4c-2.8,0.7-4.4,1.6-5,2c-7.1,4.1-9.5,13.1-5.4,20.2c4.1,7.1,13.1,9.5,20.2,5.4c0.6-0.4,2.2-1.3,4.2-3.3
		c4-4.2,10.4-13.4,17.6-17.8c0.8-0.5,1.7-0.9,2.7-1.4c5-2.1,10.5-2.1,15.4-0.5c4.1,1.4,7.8,3.9,10.6,7.5c0.6,0.8,1.1,1.7,1.6,2.5
		c0.5,0.8,0.9,1.7,1.4,2.7c1.7,4.2,2,8.7,1.2,12.9c-1.1,5.1-3.8,9.7-8.1,13c-0.8,0.6-1.7,1.2-2.5,1.6c-7.5,4.1-18.6,5-24.3,6.4
		c-2.8,0.7-4.4,1.6-5,2c-7.1,4.1-9.5,13.1-5.4,20.2c4.1,7.1,13.1,9.5,20.2,5.4c1.8-1.1,3.3-2.4,4.5-4l0,0c0,0,8.2-11.8,17.4-17.1
		c9.2-5.3,23.5-6.5,23.5-6.5l0,0c2-0.2,3.9-0.8,5.7-1.9C150.2,85.4,152.6,76.4,148.5,69.3z"/>
	<path fill="#F49823" d="M96.4,80.9c0,0,3.6-0.6,6.4-2.3c7.1-4.1,9.5-13.1,5.4-20.2c-4.1-7.1-13.1-9.5-20.2-5.4
		c-2.8,1.6-5.2,4.4-5.2,4.4c-6.1,6.7-8.3,11.2-16.7,16.7c-0.8,0.5-1.7,0.9-2.7,1.4c-5,2.1-10.5,2.1-15.4,0.5
		c-4.1-1.4-7.8-3.9-10.6-7.5c-0.6-0.8-1.1-1.7-1.6-2.5s-0.9-1.7-1.4-2.7c-1.7-4.2-2-8.7-1.2-12.9c1.1-5.1,3.9-9.8,8.1-13.1
		c0.8-0.6,1.7-1.2,2.5-1.6c7.5-4.1,18.6-5,24.3-6.4c2.8-0.7,4.4-1.6,5-2c7.1-4.1,9.5-13.1,5.4-20.2C74.6,0.3,65.6-2.1,58.5,2
		C56.7,3,55.2,4.4,54,6l0,0c0,0-8.2,11.8-17.4,17.1c-9.2,5.3-23.5,6.5-23.5,6.5l0,0c-2,0.2-3.9,0.8-5.7,1.9
		C0.3,35.6-2.1,44.6,2,51.7C3,53.5,4.4,55,6,56.2l0,0c0,0,3.4,2.4,7.4,6c3.4,3.1,7.3,7.2,9.8,11.4c2.5,4.3,4,9.6,5,14.2
		c1.1,5.2,1.5,9.4,1.5,9.4l0,0c0,0.1,0,0.1,0,0.2c0.2,1.9,0.8,3.8,1.9,5.6c4.1,7.1,13.1,9.5,20.2,5.4c0.5-0.3,0.9-0.5,1.3-0.8
		c0.1,0,0.1-0.1,0.2-0.1c0.4-0.3,0.7-0.5,1-0.8c0,0,0,0,0.1-0.1c0.7-0.7,1.4-1.4,2-2.2l0,0l0,0c0,0,7.9-12.3,17.4-17.1
		C82.5,82.5,87.5,82.8,96.4,80.9z"/>
</g>
<g>
</g>
<g>
</g>
<g>
</g>
<g>
</g>
<g>
</g>
<g>
</g>
</svg>
