<?xml version="1.0" encoding="utf-8"?>
<!-- Generator: Adobe Illustrator 21.1.0, SVG Export Plug-In . SVG Version: 6.00 Build 0)  -->
<svg version="1.1" id="Layer_1" xmlns="http://www.w3.org/2000/svg" xmlns:xlink="http://www.w3.org/1999/xlink" x="0px" y="0px"
	 viewBox="0 0 245.3 41.4" style="enable-background:new 0 0 245.3 41.4;" xml:space="preserve">
<style type="text/css">
	.st0{clip-path:url(#XMLID_3_);fill:#547DBF;}
	.st1{clip-path:url(#XMLID_3_);fill:#FFCE40;}
	.st2{clip-path:url(#XMLID_3_);}
	.st3{clip-path:url(#XMLID_4_);}
	.st4{clip-path:url(#XMLID_3_);fill:#DB4436;}
	.st5{clip-path:url(#XMLID_6_);}
	.st6{clip-path:url(#XMLID_7_);}
	.st7{clip-path:url(#XMLID_8_);fill:#EEEEEE;}
	.st8{clip-path:url(#XMLID_8_);fill:#547DBF;}
	.st9{clip-path:url(#XMLID_9_);}
	.st10{clip-path:url(#XMLID_10_);fill:#EEEEEE;}
	.st11{clip-path:url(#XMLID_11_);fill:#EEEEEE;}
	.st12{clip-path:url(#XMLID_12_);}
	.st13{clip-path:url(#XMLID_14_);}
	.st14{clip-path:url(#XMLID_17_);}
	.st15{clip-path:url(#XMLID_19_);}
	.st16{clip-path:url(#XMLID_34_);}
	.st17{clip-path:url(#XMLID_36_);}
	.st18{clip-path:url(#XMLID_38_);}
	.st19{clip-path:url(#XMLID_40_);}
	.st20{clip-path:url(#XMLID_42_);}
	.st21{clip-path:url(#XMLID_45_);}
	.st22{clip-path:url(#XMLID_50_);}
	.st23{clip-path:url(#XMLID_52_);}
	.st24{clip-path:url(#XMLID_58_);}
	.st25{clip-path:url(#XMLID_60_);}
	.st26{clip-path:url(#XMLID_62_);}
	.st27{clip-path:url(#XMLID_64_);}
	.st28{clip-path:url(#XMLID_66_);}
	.st29{clip-path:url(#XMLID_68_);}
	.st30{clip-path:url(#XMLID_70_);}
	.st31{clip-path:url(#XMLID_72_);}
	.st32{clip-path:url(#XMLID_74_);}
	.st33{clip-path:url(#XMLID_76_);}
	.st34{clip-path:url(#XMLID_78_);}
	.st35{clip-path:url(#XMLID_80_);}
	.st36{clip-path:url(#XMLID_82_);}
	.st37{clip-path:url(#XMLID_84_);}
	.st38{clip-path:url(#XMLID_86_);}
	.st39{clip-path:url(#XMLID_88_);}
	.st40{fill:#6C6D6D;}
</style>
<g id="XMLID_1_">
	<g id="XMLID_25_">
		<defs>
			<path id="XMLID_24_" d="M44.9,19.2L38.9,8.7l-3.7-6.4c-0.5-0.8-1.4-1.4-2.6-1.4H13.3c-1,0-2.1,0.5-2.6,1.5L4.8,12.9l-3.7,6.4
				c-0.5,0.9-0.5,2.1,0,3L10.7,39c0.5,0.9,1.5,1.5,2.6,1.5h19.3c1,0,2.1-0.5,2.6-1.5l9.7-16.9C45.4,21.2,45.4,20.2,44.9,19.2
				 M22.8,26.6c-3.2,0-5.9-2.7-5.9-5.9c0-3.2,2.7-5.9,5.9-5.9c3.2,0,5.9,2.7,5.9,5.9C28.8,23.9,26.2,26.6,22.8,26.6"/>
		</defs>
		<clipPath id="XMLID_3_">
			<use xlink:href="#XMLID_24_"  style="overflow:visible;"/>
		</clipPath>
		<path id="XMLID_26_" class="st0" d="M16.1,8.9h22.8l-3.7-6.4c-0.5-0.9-1.4-1.5-2.6-1.5H13.3c-1,0-2.1,0.5-2.6,1.5L4.8,12.9
			l11.3,19.7V8.9"/>
		<path id="XMLID_28_" class="st1" d="M16.1,32.6L4.8,12.9l-3.7,6.4c-0.5,0.9-0.5,2.1,0,3L10.7,39c0.5,0.9,1.5,1.5,2.6,1.5h12
			l11.5-19.8L16.1,32.6"/>
		<g id="XMLID_31_" class="st2">
			<defs>
				<path id="XMLID_30_" d="M0.7,20.8L0.7,20.8c0,0.5,0.1,1,0.4,1.5L10.7,39c0.5,0.9,1.5,1.5,2.6,1.5h12h-0.1h-1H13.3
					c-1,0-2.1-0.6-2.6-1.5L1.1,22.3C0.8,21.8,0.7,21.3,0.7,20.8L0.7,20.8L0.7,20.8"/>
			</defs>
			<clipPath id="XMLID_4_">
				<use xlink:href="#XMLID_30_"  style="overflow:visible;"/>
			</clipPath>
			<g id="XMLID_168_" class="st3">
				<defs>
					<rect id="XMLID_167_" y="19.8" width="26" height="21.6"/>
				</defs>
				<clipPath id="XMLID_5_">
					<use xlink:href="#XMLID_167_"  style="overflow:visible;"/>
				</clipPath>
				<g style="clip-path:url(#XMLID_5_);">
					
						<image style="overflow:visible;" width="42" height="35" id="XMLID_169_" xlink:href="155DEFECB46BE2CD.jpg"  transform="matrix(0.6184 0 0 -0.6184 0 41.4346)">
					</image>
				</g>
			</g>
		</g>
		<path id="XMLID_29_" class="st4" d="M38.9,8.9H16.1l20.5,11.9L25.1,40.6h7.5c1,0,2.1-0.5,2.6-1.5l9.7-16.9c0.5-0.9,0.5-2.1,0-3
			L38.9,8.9"/>
	</g>
	<g id="XMLID_172_">
		<defs>
			<path id="XMLID_171_" d="M44.9,19.2L38.9,8.7l-3.7-6.4c-0.5-0.8-1.4-1.4-2.6-1.4H13.3c-1,0-2.1,0.5-2.6,1.5L4.8,12.9l-3.7,6.4
				c-0.5,0.9-0.5,2.1,0,3L10.7,39c0.5,0.9,1.5,1.5,2.6,1.5h19.3c1,0,2.1-0.5,2.6-1.5l9.7-16.9C45.4,21.2,45.4,20.2,44.9,19.2
				 M22.8,26.6c-3.2,0-5.9-2.7-5.9-5.9c0-3.2,2.7-5.9,5.9-5.9c3.2,0,5.9,2.7,5.9,5.9C28.8,23.9,26.2,26.6,22.8,26.6"/>
		</defs>
		<clipPath id="XMLID_6_">
			<use xlink:href="#XMLID_171_"  style="overflow:visible;"/>
		</clipPath>
		<g id="XMLID_175_" class="st5">
			<defs>
				<path id="XMLID_174_" d="M38.9,8.9H16.1l20.5,11.9L25.1,40.6h7.5c1,0,2.1-0.5,2.6-1.5l9.7-16.9c0.5-0.9,0.5-2.1,0-3L38.9,8.9"/>
			</defs>
			<clipPath id="XMLID_7_">
				<use xlink:href="#XMLID_174_"  style="overflow:visible;"/>
			</clipPath>
			<g id="XMLID_178_" class="st6">
				<defs>
					<path id="XMLID_177_" d="M38.9,8.9H16.1l20.5,11.9L25.1,40.6h7.5c1,0,2.1-0.5,2.6-1.5l9.7-16.9c0.5-0.9,0.5-2.1,0-3L38.9,8.9"
						/>
				</defs>
				<clipPath id="XMLID_8_">
					<use xlink:href="#XMLID_177_"  style="overflow:visible;"/>
				</clipPath>
				<polyline id="XMLID_179_" class="st7" points="29.8,8.9 36.6,20.7 29.8,32.6 16.1,32.6 9.3,20.7 16.1,8.9 29.8,8.9 				"/>
				<path id="XMLID_180_" class="st8" d="M16.1,8.9h22.8l-3.7-6.4c-0.5-0.9-1.4-1.5-2.6-1.5H13.3c-1,0-2.1,0.5-2.6,1.5L4.8,12.9
					l11.3,19.7V8.9"/>
			</g>
		</g>
		<g id="XMLID_183_" class="st5">
			<defs>
				<path id="XMLID_182_" d="M44.9,19.2L38.9,8.7l-3.7-6.4c-0.5-0.8-1.4-1.4-2.6-1.4H13.3c-1,0-2.1,0.5-2.6,1.5L4.8,12.9l-3.7,6.4
					c-0.5,0.9-0.5,2.1,0,3L10.7,39c0.5,0.9,1.5,1.5,2.6,1.5h19.3c1,0,2.1-0.5,2.6-1.5l9.7-16.9C45.4,21.2,45.4,20.2,44.9,19.2
					 M22.8,26.6c-3.2,0-5.9-2.7-5.9-5.9c0-3.2,2.7-5.9,5.9-5.9c3.2,0,5.9,2.7,5.9,5.9C28.8,23.9,26.2,26.6,22.8,26.6"/>
			</defs>
			<clipPath id="XMLID_9_">
				<use xlink:href="#XMLID_182_"  style="overflow:visible;"/>
			</clipPath>
			<g id="XMLID_186_" class="st9">
				<defs>
					<path id="XMLID_185_" d="M16.1,32.6L4.8,12.9l-3.7,6.4c-0.5,0.9-0.5,2.1,0,3L10.7,39c0.5,0.9,1.5,1.5,2.6,1.5h12l11.5-19.8
						L16.1,32.6"/>
				</defs>
				<clipPath id="XMLID_10_">
					<use xlink:href="#XMLID_185_"  style="overflow:visible;"/>
				</clipPath>
				<polyline id="XMLID_187_" class="st10" points="29.8,8.9 36.6,20.7 29.8,32.6 16.1,32.6 9.3,20.7 16.1,8.9 29.8,8.9 				"/>
			</g>
			<g id="XMLID_191_" class="st9">
				<defs>
					<path id="XMLID_190_" d="M44.9,19.2L38.9,8.7l-3.7-6.4c-0.5-0.8-1.4-1.4-2.6-1.4H13.3c-1,0-2.1,0.5-2.6,1.5L4.8,12.9l-3.7,6.4
						c-0.5,0.9-0.5,2.1,0,3L10.7,39c0.5,0.9,1.5,1.5,2.6,1.5h19.3c1,0,2.1-0.5,2.6-1.5l9.7-16.9C45.4,21.2,45.4,20.2,44.9,19.2
						 M22.8,26.6c-3.2,0-5.9-2.7-5.9-5.9c0-3.2,2.7-5.9,5.9-5.9c3.2,0,5.9,2.7,5.9,5.9C28.8,23.9,26.2,26.6,22.8,26.6"/>
				</defs>
				<clipPath id="XMLID_11_">
					<use xlink:href="#XMLID_190_"  style="overflow:visible;"/>
				</clipPath>
				<polyline id="XMLID_192_" class="st11" points="29.8,8.9 36.6,20.7 29.8,32.6 16.1,32.6 9.3,20.7 16.1,8.9 29.8,8.9 				"/>
			</g>
			<g id="XMLID_194_" class="st9">
				<defs>
					<path id="XMLID_193_" d="M32.7,0.9L32.7,0.9c1.2,0,2,0.7,2.5,1.5l3.7,6.4l5.9,10.3L38.9,8.7l-3.7-6.4
						C34.7,1.5,33.8,0.9,32.7,0.9"/>
				</defs>
				<clipPath id="XMLID_12_">
					<use xlink:href="#XMLID_193_"  style="overflow:visible;"/>
				</clipPath>
				<g id="XMLID_197_" class="st12">
					<defs>
						<rect id="XMLID_196_" x="31.5" y="0" width="14.2" height="19.8"/>
					</defs>
					<clipPath id="XMLID_13_">
						<use xlink:href="#XMLID_196_"  style="overflow:visible;"/>
					</clipPath>
					<g style="clip-path:url(#XMLID_13_);">
						
							<image style="overflow:visible;" width="23" height="32" id="XMLID_198_" xlink:href="155DEFECB46BE2CF.jpg"  transform="matrix(0.6184 0 0 -0.6184 31.5397 19.7897)">
						</image>
					</g>
				</g>
			</g>
			<g id="XMLID_199_" class="st9">
				<defs>
					<path id="XMLID_195_" d="M32.7,0.9c1.1,0,2,0.7,2.5,1.7l3.7,6.3h0.1l-3.7-6.4C34.7,1.5,33.8,0.9,32.7,0.9"/>
				</defs>
				<clipPath id="XMLID_14_">
					<use xlink:href="#XMLID_195_"  style="overflow:visible;"/>
				</clipPath>
				<g id="XMLID_202_" class="st13">
					<defs>
						<rect id="XMLID_201_" x="31.5" y="0" width="8" height="9.9"/>
					</defs>
					<clipPath id="XMLID_16_">
						<use xlink:href="#XMLID_201_"  style="overflow:visible;"/>
					</clipPath>
					<g style="clip-path:url(#XMLID_16_);">
						
							<image style="overflow:visible;" width="13" height="16" id="XMLID_203_" xlink:href="155DEFECB46BE2CA.jpg"  transform="matrix(0.6184 0 0 -0.6184 31.5397 9.8949)">
						</image>
					</g>
				</g>
			</g>
			<g id="XMLID_204_" class="st9">
				<defs>
					<path id="XMLID_200_" d="M38.9,8.9L38.9,8.9V9l5.9,10.4c0.2,0.3,0.4,0.9,0.4,1.3l0-0.1c0-0.5-0.1-1-0.4-1.5L38.9,8.9"/>
				</defs>
				<clipPath id="XMLID_17_">
					<use xlink:href="#XMLID_200_"  style="overflow:visible;"/>
				</clipPath>
				<g id="XMLID_207_" class="st14">
					<defs>
						<rect id="XMLID_206_" x="37.7" y="8" width="8.7" height="13.6"/>
					</defs>
					<clipPath id="XMLID_18_">
						<use xlink:href="#XMLID_206_"  style="overflow:visible;"/>
					</clipPath>
					<g style="clip-path:url(#XMLID_18_);">
						
							<image style="overflow:visible;" width="14" height="22" id="XMLID_208_" xlink:href="155DEFECB46BE2CB.jpg"  transform="matrix(0.6184 0 0 -0.6184 37.724 21.645)">
						</image>
					</g>
				</g>
			</g>
			<g id="XMLID_209_" class="st9">
				<defs>
					<path id="XMLID_205_" d="M32.6,1.1H13.3c-1,0-2.1,0.6-2.6,1.5L4.9,13l5.7,5.6l5.6-9.6h13.7h9l-3.6-6.2
						C34.7,1.6,33.7,1.1,32.6,1.1"/>
				</defs>
				<clipPath id="XMLID_19_">
					<use xlink:href="#XMLID_205_"  style="overflow:visible;"/>
				</clipPath>
				<g id="XMLID_212_" class="st15">
					<defs>
						<rect id="XMLID_211_" x="3.7" y="0" width="35.9" height="19.2"/>
					</defs>
					<clipPath id="XMLID_33_">
						<use xlink:href="#XMLID_211_"  style="overflow:visible;"/>
					</clipPath>
					<g style="clip-path:url(#XMLID_33_);">
						
							<image style="overflow:visible;" width="58" height="31" id="XMLID_213_" xlink:href="155DEFECB46BE2D5.jpg"  transform="matrix(0.6184 0 0 -0.6184 3.7106 19.1713)">
						</image>
					</g>
				</g>
			</g>
			<g id="XMLID_214_" class="st9">
				<defs>
					<polyline id="XMLID_210_" points="4.9,13 4.9,13 9.3,20.7 10.6,18.5 4.9,13 					"/>
				</defs>
				<clipPath id="XMLID_34_">
					<use xlink:href="#XMLID_210_"  style="overflow:visible;"/>
				</clipPath>
				<g id="XMLID_217_" class="st16">
					<defs>
						<rect id="XMLID_216_" x="3.7" y="11.8" width="8" height="9.9"/>
					</defs>
					<clipPath id="XMLID_35_">
						<use xlink:href="#XMLID_216_"  style="overflow:visible;"/>
					</clipPath>
					<g style="clip-path:url(#XMLID_35_);">
						
							<image style="overflow:visible;" width="13" height="16" id="XMLID_218_" xlink:href="155DEFECB46BE2D7.jpg"  transform="matrix(0.6184 0 0 -0.6184 3.7106 21.645)">
						</image>
					</g>
				</g>
			</g>
			<g id="XMLID_219_" class="st9">
				<defs>
					<path id="XMLID_215_" d="M4.9,13l-0.1,0.1l-3.7,6.3c-0.2,0.4-0.4,0.8-0.4,1.2c0,0.4,0.2,0.9,0.4,1.2l3.7,6.4l5.9,10.4
						c0.5,1,1.5,1.5,2.6,1.5h10.6l-7.7-7.7L9.3,20.7l0,0L4.9,13"/>
				</defs>
				<clipPath id="XMLID_36_">
					<use xlink:href="#XMLID_215_"  style="overflow:visible;"/>
				</clipPath>
				<g id="XMLID_222_" class="st17">
					<defs>
						<rect id="XMLID_221_" y="11.8" width="24.7" height="29.7"/>
					</defs>
					<clipPath id="XMLID_37_">
						<use xlink:href="#XMLID_221_"  style="overflow:visible;"/>
					</clipPath>
					<g style="clip-path:url(#XMLID_37_);">
						
							<image style="overflow:visible;" width="40" height="48" id="XMLID_223_" xlink:href="155DEFECB46BE2DA.jpg"  transform="matrix(0.6184 0 0 -0.6184 0 41.4346)">
						</image>
					</g>
				</g>
			</g>
			<g id="XMLID_224_" class="st9">
				<defs>
					<path id="XMLID_220_" d="M38.8,8.9h-9l14.4,14.4l0.7-1.2c0.2-0.4,0.4-0.8,0.4-1.2c0-0.4-0.2-0.9-0.4-1.2L38.9,9.1L38.8,8.9"/>
				</defs>
				<clipPath id="XMLID_38_">
					<use xlink:href="#XMLID_220_"  style="overflow:visible;"/>
				</clipPath>
				<g id="XMLID_227_" class="st18">
					<defs>
						<rect id="XMLID_226_" x="29.1" y="8" width="17.3" height="16.1"/>
					</defs>
					<clipPath id="XMLID_39_">
						<use xlink:href="#XMLID_226_"  style="overflow:visible;"/>
					</clipPath>
					<g style="clip-path:url(#XMLID_39_);">
						
							<image style="overflow:visible;" width="28" height="26" id="XMLID_228_" xlink:href="155DEFECB46BE2DB.jpg"  transform="matrix(0.6184 0 0 -0.6184 29.066 24.1187)">
						</image>
					</g>
				</g>
			</g>
			<g id="XMLID_229_" class="st9">
				<defs>
					<path id="XMLID_225_" d="M29.8,8.9l6.8,11.9l-6.8,11.9l-4.5,8h0.1l0.1-0.1h7.2c1,0,2.1-0.6,2.6-1.5l3.7-6.4l5.2-9.2L29.8,8.9"
						/>
				</defs>
				<clipPath id="XMLID_40_">
					<use xlink:href="#XMLID_225_"  style="overflow:visible;"/>
				</clipPath>
				<g id="XMLID_232_" class="st19">
					<defs>
						<rect id="XMLID_231_" x="24.1" y="8" width="21" height="33.4"/>
					</defs>
					<clipPath id="XMLID_41_">
						<use xlink:href="#XMLID_231_"  style="overflow:visible;"/>
					</clipPath>
					<g style="clip-path:url(#XMLID_41_);">
						
							<image style="overflow:visible;" width="34" height="54" id="XMLID_233_" xlink:href="155DEFECB46BE2DD.jpg"  transform="matrix(0.6184 0 0 -0.6184 24.1186 41.4346)">
						</image>
					</g>
				</g>
			</g>
			<g id="XMLID_234_" class="st9">
				<defs>
					<polyline id="XMLID_230_" points="36.6,20.7 36.6,20.7 36.6,20.8 29.8,32.6 36.6,20.7 					"/>
				</defs>
				<clipPath id="XMLID_42_">
					<use xlink:href="#XMLID_230_"  style="overflow:visible;"/>
				</clipPath>
				<g id="XMLID_237_" class="st20">
					<defs>
						<rect id="XMLID_236_" x="29.1" y="19.8" width="8.7" height="13.6"/>
					</defs>
					<clipPath id="XMLID_44_">
						<use xlink:href="#XMLID_236_"  style="overflow:visible;"/>
					</clipPath>
					<g style="clip-path:url(#XMLID_44_);">
						
							<image style="overflow:visible;" width="14" height="22" id="XMLID_238_" xlink:href="1693AD361397C7A6.jpg"  transform="matrix(0.6184 0 0 -0.6184 29.066 33.3951)">
						</image>
					</g>
				</g>
			</g>
			<g id="XMLID_239_" class="st9">
				<defs>
					<path id="XMLID_235_" d="M1.1,19.3c-0.2,0.4-0.4,0.9-0.4,1.3l0,0C0.7,20.2,0.8,19.8,1.1,19.3"/>
				</defs>
				<clipPath id="XMLID_45_">
					<use xlink:href="#XMLID_235_"  style="overflow:visible;"/>
				</clipPath>
				<g id="XMLID_242_" class="st21">
					<defs>
						<rect id="XMLID_241_" y="18.6" width="1.9" height="3.1"/>
					</defs>
					<clipPath id="XMLID_46_">
						<use xlink:href="#XMLID_241_"  style="overflow:visible;"/>
					</clipPath>
					<g style="clip-path:url(#XMLID_46_);">
						
							<image style="overflow:visible;" width="3" height="5" id="XMLID_243_" xlink:href="1693AD361397C7A1.jpg"  transform="matrix(0.6184 0 0 -0.6184 0 21.645)">
						</image>
					</g>
				</g>
			</g>
			<g id="XMLID_244_" class="st9">
				<defs>
					<polyline id="XMLID_240_" points="0.7,20.6 0.7,20.8 0.7,20.8 0.7,20.7 0.7,20.6 					"/>
				</defs>
				<clipPath id="XMLID_50_">
					<use xlink:href="#XMLID_240_"  style="overflow:visible;"/>
				</clipPath>
				<g id="XMLID_247_" class="st22">
					<defs>
						<rect id="XMLID_246_" y="19.8" width="1.9" height="1.9"/>
					</defs>
					<clipPath id="XMLID_51_">
						<use xlink:href="#XMLID_246_"  style="overflow:visible;"/>
					</clipPath>
					<g style="clip-path:url(#XMLID_51_);">
						
							<image style="overflow:visible;" width="3" height="3" id="XMLID_248_" xlink:href="1693AD361397C7A2.jpg"  transform="matrix(0.6184 0 0 -0.6184 0 21.645)">
						</image>
					</g>
				</g>
			</g>
			<g id="XMLID_249_" class="st9">
				<defs>
					<polyline id="XMLID_245_" points="45.2,20.7 45.2,20.8 45.2,20.8 45.2,20.7 45.2,20.7 					"/>
				</defs>
				<clipPath id="XMLID_52_">
					<use xlink:href="#XMLID_245_"  style="overflow:visible;"/>
				</clipPath>
				<g id="XMLID_252_" class="st23">
					<defs>
						<rect id="XMLID_251_" x="44.5" y="19.8" width="1.9" height="1.9"/>
					</defs>
					<clipPath id="XMLID_53_">
						<use xlink:href="#XMLID_251_"  style="overflow:visible;"/>
					</clipPath>
					<g style="clip-path:url(#XMLID_53_);">
						
							<image style="overflow:visible;" width="3" height="3" id="XMLID_253_" xlink:href="1693AD361397C7A0.jpg"  transform="matrix(0.6184 0 0 -0.6184 44.5267 21.645)">
						</image>
					</g>
				</g>
			</g>
			<g id="XMLID_254_" class="st9">
				<defs>
					<polyline id="XMLID_250_" points="45.2,20.6 45.2,20.8 45.2,20.8 45.2,20.7 45.2,20.6 					"/>
				</defs>
				<clipPath id="XMLID_58_">
					<use xlink:href="#XMLID_250_"  style="overflow:visible;"/>
				</clipPath>
				<g id="XMLID_257_" class="st24">
					<defs>
						<rect id="XMLID_256_" x="44.5" y="19.8" width="1.9" height="1.9"/>
					</defs>
					<clipPath id="XMLID_59_">
						<use xlink:href="#XMLID_256_"  style="overflow:visible;"/>
					</clipPath>
					<g style="clip-path:url(#XMLID_59_);">
						
							<image style="overflow:visible;" width="3" height="3" id="XMLID_258_" xlink:href="1693AD361397C7BE.jpg"  transform="matrix(0.6184 0 0 -0.6184 44.5267 21.645)">
						</image>
					</g>
				</g>
			</g>
			<g id="XMLID_259_" class="st9">
				<defs>
					<path id="XMLID_255_" d="M0.7,20.7l0,0.2c0,0.5,0.1,1,0.4,1.4L10.7,39L4.8,28.4L1.1,22C0.8,21.7,0.7,21.1,0.7,20.7"/>
				</defs>
				<clipPath id="XMLID_60_">
					<use xlink:href="#XMLID_255_"  style="overflow:visible;"/>
				</clipPath>
				<g id="XMLID_262_" class="st25">
					<defs>
						<rect id="XMLID_261_" y="19.8" width="11.8" height="20.4"/>
					</defs>
					<clipPath id="XMLID_61_">
						<use xlink:href="#XMLID_261_"  style="overflow:visible;"/>
					</clipPath>
					<g style="clip-path:url(#XMLID_61_);">
						
							<image style="overflow:visible;" width="19" height="33" id="XMLID_263_" xlink:href="1693AD361397C7A3.jpg"  transform="matrix(0.6184 0 0 -0.6184 0 40.1977)">
						</image>
					</g>
				</g>
			</g>
			<g id="XMLID_264_" class="st9">
				<defs>
					<path id="XMLID_260_" d="M45.2,20.8c0,0.2,0,0.4-0.1,0.6l0,0.1C45.2,21.3,45.2,21.1,45.2,20.8L45.2,20.8"/>
				</defs>
				<clipPath id="XMLID_62_">
					<use xlink:href="#XMLID_260_"  style="overflow:visible;"/>
				</clipPath>
				<g id="XMLID_267_" class="st26">
					<defs>
						<rect id="XMLID_266_" x="43.9" y="19.8" width="2.5" height="2.5"/>
					</defs>
					<clipPath id="XMLID_63_">
						<use xlink:href="#XMLID_266_"  style="overflow:visible;"/>
					</clipPath>
					<g style="clip-path:url(#XMLID_63_);">
						
							<image style="overflow:visible;" width="4" height="4" id="XMLID_268_" xlink:href="1693AD361397C7A7.jpg"  transform="matrix(0.6184 0 0 -0.6184 43.9082 22.2634)">
						</image>
					</g>
				</g>
			</g>
			<g id="XMLID_269_" class="st9">
				<defs>
					<path id="XMLID_265_" d="M45.2,20.8c0,0.2,0,0.4-0.1,0.6C45.2,21.2,45.2,21,45.2,20.8L45.2,20.8"/>
				</defs>
				<clipPath id="XMLID_64_">
					<use xlink:href="#XMLID_265_"  style="overflow:visible;"/>
				</clipPath>
				<g id="XMLID_272_" class="st27">
					<defs>
						<rect id="XMLID_271_" x="44.5" y="19.8" width="1.9" height="2.5"/>
					</defs>
					<clipPath id="XMLID_65_">
						<use xlink:href="#XMLID_271_"  style="overflow:visible;"/>
					</clipPath>
					<g style="clip-path:url(#XMLID_65_);">
						
							<image style="overflow:visible;" width="3" height="4" id="XMLID_273_" xlink:href="1693AD361397C7A5.jpg"  transform="matrix(0.6184 0 0 -0.6184 44.5267 22.2634)">
						</image>
					</g>
				</g>
			</g>
			<g id="XMLID_276_" class="st9">
				<defs>
					<path id="XMLID_275_" d="M16.9,20.5c0-3.2,2.7-5.9,5.9-5.9c3.3,0,6.1,2.7,5.9,5.9h0l0,0.3l0,0.3h0c0,3.2-2.7,5.9-5.9,5.9
						c-3.2,0-5.9-2.7-5.9-5.9h0l0-0.3V20.5L16.9,20.5 M29.8,8.9H16.1l-5.6,9.6l-1.3,2.2l0,0l6.8,11.9h13.7l6.8-11.7l0.1-0.1
						L29.8,8.9"/>
				</defs>
				<clipPath id="XMLID_66_">
					<use xlink:href="#XMLID_275_"  style="overflow:visible;"/>
				</clipPath>
				<g id="XMLID_279_" class="st28">
					<defs>
						<rect id="XMLID_278_" x="8.7" y="8" width="29.1" height="25.4"/>
					</defs>
					<clipPath id="XMLID_67_">
						<use xlink:href="#XMLID_278_"  style="overflow:visible;"/>
					</clipPath>
					<g style="clip-path:url(#XMLID_67_);">
						
							<image style="overflow:visible;" width="47" height="41" id="XMLID_280_" xlink:href="1693AD361397C7AC.jpg"  transform="matrix(0.6184 0 0 -0.6184 8.658 33.3951)">
						</image>
					</g>
				</g>
			</g>
			<g id="XMLID_283_" class="st9">
				<defs>
					<path id="XMLID_282_" d="M28.8,21L28.8,21c-0.1,3.1-2.7,5.7-5.9,5.7c-3.1,0-5.8-2.6-5.9-5.7h0c0,3.2,2.7,5.9,5.9,5.9
						C26.1,26.9,28.8,24.2,28.8,21 M22.8,14.5c-3.2,0-5.9,2.7-5.9,5.9h0c0.1-3.1,2.8-5.7,5.9-5.7c3.1,0,5.8,2.6,5.9,5.7h0
						C28.9,17.2,26.2,14.5,22.8,14.5"/>
				</defs>
				<clipPath id="XMLID_68_">
					<use xlink:href="#XMLID_282_"  style="overflow:visible;"/>
				</clipPath>
				<g id="XMLID_286_" class="st29">
					<defs>
						<rect id="XMLID_285_" x="16.1" y="13.6" width="13.6" height="14.2"/>
					</defs>
					<clipPath id="XMLID_69_">
						<use xlink:href="#XMLID_285_"  style="overflow:visible;"/>
					</clipPath>
					<g transform="matrix(1 0 0 1 0 1.907349e-06)" style="clip-path:url(#XMLID_69_);">
						
							<image style="overflow:visible;" width="22" height="23" id="XMLID_287_" xlink:href="1693AD361397C7AD.jpg"  transform="matrix(0.6184 0 0 -0.6184 16.0791 27.8292)">
						</image>
					</g>
				</g>
			</g>
			<g id="XMLID_288_" class="st9">
				<defs>
					<polyline id="XMLID_284_" points="29.8,32.6 16.1,32.6 23.9,40.3 25.3,40.3 29.8,32.6 					"/>
				</defs>
				<clipPath id="XMLID_70_">
					<use xlink:href="#XMLID_284_"  style="overflow:visible;"/>
				</clipPath>
				<g id="XMLID_291_" class="st30">
					<defs>
						<rect id="XMLID_290_" x="15.5" y="31.5" width="15.5" height="9.9"/>
					</defs>
					<clipPath id="XMLID_71_">
						<use xlink:href="#XMLID_290_"  style="overflow:visible;"/>
					</clipPath>
					<g style="clip-path:url(#XMLID_71_);">
						
							<image style="overflow:visible;" width="25" height="16" id="XMLID_292_" xlink:href="1693AD361397C7C5.jpg"  transform="matrix(0.6184 0 0 -0.6184 15.4607 41.4346)">
						</image>
					</g>
				</g>
			</g>
			<g id="XMLID_293_" class="st9">
				<defs>
					<polyline id="XMLID_289_" points="29.8,32.6 29.8,32.6 25.3,40.3 25.4,40.3 25.3,40.6 29.8,32.6 					"/>
				</defs>
				<clipPath id="XMLID_72_">
					<use xlink:href="#XMLID_289_"  style="overflow:visible;"/>
				</clipPath>
				<g id="XMLID_296_" class="st31">
					<defs>
						<rect id="XMLID_295_" x="24.1" y="31.5" width="6.8" height="9.9"/>
					</defs>
					<clipPath id="XMLID_73_">
						<use xlink:href="#XMLID_295_"  style="overflow:visible;"/>
					</clipPath>
					<g style="clip-path:url(#XMLID_73_);">
						
							<image style="overflow:visible;" width="11" height="16" id="XMLID_297_" xlink:href="1693AD361397C7C7.jpg"  transform="matrix(0.6184 0 0 -0.6184 24.1186 41.4346)">
						</image>
					</g>
				</g>
			</g>
			<g id="XMLID_300_" class="st9">
				<defs>
					<path id="XMLID_299_" d="M45.2,21.4c-0.1,0.3-0.2,0.5-0.3,0.8c0.1-0.2,0.2-0.4,0.3-0.7L45.2,21.4 M45.2,20.8L45.2,20.8
						L45.2,20.8L45.2,20.8L45.2,20.8"/>
				</defs>
				<clipPath id="XMLID_74_">
					<use xlink:href="#XMLID_299_"  style="overflow:visible;"/>
				</clipPath>
				<g id="XMLID_303_" class="st32">
					<defs>
						<rect id="XMLID_302_" x="43.9" y="19.8" width="2.5" height="3.1"/>
					</defs>
					<clipPath id="XMLID_75_">
						<use xlink:href="#XMLID_302_"  style="overflow:visible;"/>
					</clipPath>
					<g transform="matrix(1 0 0 1 0 1.907349e-06)" style="clip-path:url(#XMLID_75_);">
						
							<image style="overflow:visible;" width="4" height="5" id="XMLID_304_" xlink:href="1693AD361397C7C4.jpg"  transform="matrix(0.6184 0 0 -0.6184 43.9082 22.8818)">
						</image>
					</g>
				</g>
			</g>
			<g id="XMLID_305_" class="st9">
				<defs>
					<path id="XMLID_301_" d="M32.6,0.9H13.3c-1,0-2.1,0.5-2.6,1.5L4.8,12.9L4.9,13l5.8-10.3c0.5-0.9,1.5-1.5,2.6-1.5h19.3
						c1,0,2.1,0.5,2.6,1.5l3.6,6.2h0.1l-3.7-6.3C34.7,1.5,33.8,0.9,32.6,0.9L32.6,0.9L32.6,0.9"/>
				</defs>
				<clipPath id="XMLID_76_">
					<use xlink:href="#XMLID_301_"  style="overflow:visible;"/>
				</clipPath>
				<g id="XMLID_308_" class="st33">
					<defs>
						<rect id="XMLID_307_" x="3.7" y="0" width="35.9" height="13.6"/>
					</defs>
					<clipPath id="XMLID_77_">
						<use xlink:href="#XMLID_307_"  style="overflow:visible;"/>
					</clipPath>
					<g style="clip-path:url(#XMLID_77_);">
						
							<image style="overflow:visible;" width="58" height="22" id="XMLID_309_" xlink:href="1693AD361397C7C3.jpg"  transform="matrix(0.6184 0 0 -0.6184 3.7106 13.6054)">
						</image>
					</g>
				</g>
			</g>
			<g id="XMLID_310_" class="st9">
				<defs>
					<polyline id="XMLID_306_" points="4.8,12.9 4.9,13 4.9,13 4.8,12.9 					"/>
				</defs>
				<clipPath id="XMLID_78_">
					<use xlink:href="#XMLID_306_"  style="overflow:visible;"/>
				</clipPath>
				<g id="XMLID_313_" class="st34">
					<defs>
						<rect id="XMLID_312_" x="3.7" y="11.8" width="1.9" height="1.9"/>
					</defs>
					<clipPath id="XMLID_79_">
						<use xlink:href="#XMLID_312_"  style="overflow:visible;"/>
					</clipPath>
					<g style="clip-path:url(#XMLID_79_);">
						
							<image style="overflow:visible;" width="3" height="3" id="XMLID_314_" xlink:href="1693AD361397C7CD.jpg"  transform="matrix(0.6184 0 0 -0.6184 3.7106 13.6054)">
						</image>
					</g>
				</g>
			</g>
			<g id="XMLID_315_" class="st9">
				<defs>
					<path id="XMLID_311_" d="M4.8,12.9L4.8,12.9l-3.7,6.4c-0.2,0.5-0.4,0.9-0.4,1.4l0,0l0,0l0,0l0,0.2v0l0-0.2c0,0.5,0.2,1,0.4,1.3
						l3.7,6.4L10.7,39c0.5,0.9,1.5,1.5,2.6,1.5h10.8l-0.3-0.3H13.3c-1,0-2.1-0.5-2.6-1.5L4.8,28.3l-3.7-6.4
						c-0.2-0.3-0.4-0.8-0.4-1.2c0-0.4,0.2-0.8,0.4-1.2l3.7-6.3L4.9,13L4.8,12.9"/>
				</defs>
				<clipPath id="XMLID_80_">
					<use xlink:href="#XMLID_311_"  style="overflow:visible;"/>
				</clipPath>
				<g id="XMLID_318_" class="st35">
					<defs>
						<rect id="XMLID_317_" y="11.8" width="24.7" height="29.7"/>
					</defs>
					<clipPath id="XMLID_81_">
						<use xlink:href="#XMLID_317_"  style="overflow:visible;"/>
					</clipPath>
					<g style="clip-path:url(#XMLID_81_);">
						
							<image style="overflow:visible;" width="40" height="48" id="XMLID_319_" xlink:href="1693AD361397C7CF.jpg"  transform="matrix(0.6184 0 0 -0.6184 0 41.4346)">
						</image>
					</g>
				</g>
			</g>
			<g id="XMLID_320_" class="st9">
				<defs>
					<path id="XMLID_316_" d="M38.9,8.9L38.9,8.9l0.1,0.3l5.9,10.4c0.2,0.3,0.4,0.8,0.4,1.2c0,0.4-0.2,0.8-0.4,1.2l-0.7,1.2l0,0
						l0.7-1.1c0.1-0.2,0.2-0.5,0.3-0.8c0-0.2,0.1-0.4,0.1-0.6l0,0l0,0l0,0l0-0.1v0l0,0.1c0-0.5-0.2-1-0.4-1.3L38.9,9L38.9,8.9"/>
				</defs>
				<clipPath id="XMLID_82_">
					<use xlink:href="#XMLID_316_"  style="overflow:visible;"/>
				</clipPath>
				<g id="XMLID_323_" class="st36">
					<defs>
						<rect id="XMLID_322_" x="37.7" y="8" width="8.7" height="16.1"/>
					</defs>
					<clipPath id="XMLID_83_">
						<use xlink:href="#XMLID_322_"  style="overflow:visible;"/>
					</clipPath>
					<g style="clip-path:url(#XMLID_83_);">
						
							<image style="overflow:visible;" width="14" height="26" id="XMLID_324_" xlink:href="1693AD361397C7CC.jpg"  transform="matrix(0.6184 0 0 -0.6184 37.724 24.1187)">
						</image>
					</g>
				</g>
			</g>
			<g id="XMLID_325_" class="st9">
				<defs>
					<path id="XMLID_321_" d="M44.2,23.2l-5.2,9.2l-3.7,6.4c-0.5,0.9-1.5,1.5-2.6,1.5h-7.2l-0.1,0.1h7.3c1,0,2.1-0.5,2.6-1.5
						L44.2,23.2L44.2,23.2"/>
				</defs>
				<clipPath id="XMLID_84_">
					<use xlink:href="#XMLID_321_"  style="overflow:visible;"/>
				</clipPath>
				<g id="XMLID_328_" class="st37">
					<defs>
						<rect id="XMLID_327_" x="24.1" y="22.3" width="21" height="19.2"/>
					</defs>
					<clipPath id="XMLID_85_">
						<use xlink:href="#XMLID_327_"  style="overflow:visible;"/>
					</clipPath>
					<g style="clip-path:url(#XMLID_85_);">
						
							<image style="overflow:visible;" width="34" height="31" id="XMLID_329_" xlink:href="1693AD361397C7C6.jpg"  transform="matrix(0.6184 0 0 -0.6184 24.1186 41.4346)">
						</image>
					</g>
				</g>
			</g>
			<g id="XMLID_330_" class="st9">
				<defs>
					<polyline id="XMLID_326_" points="25.3,40.3 23.9,40.3 24.1,40.6 25.1,40.6 25.3,40.3 					"/>
				</defs>
				<clipPath id="XMLID_86_">
					<use xlink:href="#XMLID_326_"  style="overflow:visible;"/>
				</clipPath>
				<g id="XMLID_333_" class="st38">
					<defs>
						<rect id="XMLID_332_" x="22.9" y="39.6" width="3.1" height="1.9"/>
					</defs>
					<clipPath id="XMLID_87_">
						<use xlink:href="#XMLID_332_"  style="overflow:visible;"/>
					</clipPath>
					<g transform="matrix(1 0 0 1 -1.907349e-06 0)" style="clip-path:url(#XMLID_87_);">
						
							<image style="overflow:visible;" width="5" height="3" id="XMLID_334_" xlink:href="1693AD361397C7F9.jpg"  transform="matrix(0.6184 0 0 -0.6184 22.8818 41.4346)">
						</image>
					</g>
				</g>
			</g>
			<g id="XMLID_335_" class="st9">
				<defs>
					<polyline id="XMLID_331_" points="25.4,40.3 25.3,40.3 25.1,40.6 25.3,40.6 25.4,40.3 					"/>
				</defs>
				<clipPath id="XMLID_88_">
					<use xlink:href="#XMLID_331_"  style="overflow:visible;"/>
				</clipPath>
				<g id="XMLID_338_" class="st39">
					<defs>
						<rect id="XMLID_337_" x="24.1" y="39.6" width="2.5" height="1.9"/>
					</defs>
					<clipPath id="XMLID_89_">
						<use xlink:href="#XMLID_337_"  style="overflow:visible;"/>
					</clipPath>
					<g style="clip-path:url(#XMLID_89_);">
						
							<image style="overflow:visible;" width="4" height="3" id="XMLID_339_" xlink:href="1693AD361397C7FA.jpg"  transform="matrix(0.6184 0 0 -0.6184 24.1186 41.4346)">
						</image>
					</g>
				</g>
			</g>
		</g>
	</g>
	<path id="XMLID_354_" class="st40" d="M167.3,21.2c0-6.7,5.2-11.9,11.9-11.9c3.5,0,6.3,1.4,8.4,3.7l-2.1,1.9
		c-1.5-1.9-3.7-2.8-6.3-2.8c-4.8,0-8.8,3.5-8.8,9c0,5.5,4,9,8.8,9c2.8,0,5.3-1.3,7-3.3l2.1,2.1c-1.9,2.3-5.2,4-9,4
		C172.4,33.1,167.3,28.1,167.3,21.2z M190.3,32.6V9.9h3v22.7H190.3z M211.5,24.8c0,4.8-3.3,8.2-8,8.2s-8-3.6-8-8.2
		c0-4.8,3.3-8.2,8-8.2S211.5,20.1,211.5,24.8z M208.5,24.8c0-3.6-2.4-5.7-5-5.7c-2.6,0-5,2.1-5,5.7c0,3.6,2.4,5.7,5,5.7
		C206,30.4,208.5,28.3,208.5,24.8z M224.6,32.6v-2.2h-0.1c-0.9,1.4-2.8,2.7-4.9,2.7c-4,0-5.9-2.7-5.9-6.6V17h3v9
		c0,3.2,1.7,4.4,3.9,4.4c2.6,0,4.1-2.4,4.1-4.8v-8.5h3v15.6h-3V32.6z M229.7,24.8c0-4.8,3.5-8.2,7.3-8.2c2.4,0,4.4,1.3,5.3,2.7h0.1
		l-0.1-2.2V9.9h3v22.7h-2.7v-2.2h-0.1c-0.9,1.4-2.8,2.7-5.3,2.7C233.2,33.1,229.7,29.6,229.7,24.8z M242.6,24.8
		c0-3.6-2.3-5.7-4.9-5.7c-2.6,0-4.9,2.1-4.9,5.7c0,3.5,2.3,5.7,4.9,5.7C240.2,30.4,242.6,28.3,242.6,24.8z"/>
	<path id="XMLID_362_" class="st40" d="M57.4,20.1c0-7.2,6-13,13.2-13c4,0,6.8,1.6,8.9,3.6l-2.5,2.5c-1.5-1.4-3.6-2.6-6.4-2.6
		c-5.2,0-9.3,4.2-9.3,9.4c0,5.2,4.1,9.4,9.3,9.4c3.4,0,5.3-1.4,6.6-2.6c1-1,1.7-2.5,1.9-4.5h-8.5v-3.5h12c0.1,0.6,0.2,1.4,0.2,2.2
		c0,2.7-0.7,6-3.1,8.3c-2.3,2.4-5.2,3.6-9.1,3.6C63.4,33.1,57.4,27.3,57.4,20.1z M92.3,16.4c-4.6,0-8.4,3.5-8.4,8.4
		c0,4.8,3.8,8.4,8.4,8.4c4.6,0,8.4-3.5,8.4-8.4C100.7,19.9,97,16.4,92.3,16.4z M92.3,29.8c-2.5,0-4.7-2.1-4.7-5.1
		c0-3,2.2-5.1,4.7-5.1c2.5,0,4.7,2.1,4.7,5.1C97.1,27.7,94.9,29.8,92.3,29.8z M110.7,16.4c-4.6,0-8.4,3.5-8.4,8.4
		c0,4.8,3.8,8.4,8.4,8.4c4.6,0,8.4-3.5,8.4-8.4C119.1,19.9,115.3,16.4,110.7,16.4z M110.7,29.8c-2.5,0-4.7-2.1-4.7-5.1
		c0-3,2.2-5.1,4.7-5.1c2.6,0,4.7,2.1,4.7,5.1C115.4,27.7,113.2,29.8,110.7,29.8z M133.2,16.9v1.4H133c-0.8-1-2.4-1.9-4.4-1.9
		c-4.2,0-8,3.7-8,8.4c0,4.7,3.8,8.3,8,8.3c2,0,3.6-0.9,4.4-1.9h0.1v1.2c0,3.2-1.7,4.9-4.5,4.9c-2.3,0-3.6-1.6-4.2-3l-3.2,1.3
		c0.9,2.2,3.4,5,7.4,5c4.3,0,7.9-2.5,7.9-8.7v-15H133.2z M128.9,29.8c-2.5,0-4.7-2.1-4.7-5.1c0-2.9,2.1-5.1,4.7-5.1
		c2.5,0,4.5,2.2,4.5,5.1C133.4,27.7,131.4,29.8,128.9,29.8z"/>
	<rect id="XMLID_363_" x="139.2" y="8" class="st40" width="3.7" height="24.6"/>
	<path id="XMLID_366_" class="st40" d="M152.9,29.8c-1.9,0-3.2-0.9-4.1-2.5l11.2-4.6l-0.4-0.9c-0.7-1.9-2.8-5.3-7.2-5.3
		c-4.3,0-7.9,3.4-7.9,8.4c0,4.7,3.5,8.4,8.3,8.4c3.8,0,6-2.4,7-3.7l-2.8-1.9C156.1,28.9,154.8,29.8,152.9,29.8z M152.7,19.6
		c1.5,0,2.7,0.7,3.1,1.8l-7.5,3.1C148.2,21.2,150.8,19.6,152.7,19.6z"/>
</g>
</svg>
