<?xml version="1.0" encoding="utf-8"?>
<!-- Generator: Adobe Illustrator 22.0.1, SVG Export Plug-In . SVG Version: 6.00 Build 0)  -->
<svg version="1.1" id="Layer_1" xmlns="http://www.w3.org/2000/svg" xmlns:xlink="http://www.w3.org/1999/xlink" x="0px" y="0px"
	 viewBox="0 0 330.7 84" style="enable-background:new 0 0 330.7 84;" xml:space="preserve">
<style type="text/css">
	.st0{fill:#FFFFFF;}
	.st1{fill:#F15B3E;}
</style>
<g>
	<g>
		<path class="st0" d="M156.1,53.3c-1.2-0.7-2.1-1.7-2.8-3c-0.7-1.3-1-2.7-1-4.3c0-1.6,0.3-3,1-4.3c0.7-1.3,1.6-2.3,2.7-3
			c1.2-0.7,2.5-1.1,4-1.1c1.3,0,2.4,0.3,3.3,0.8c0.9,0.5,1.8,1.3,2.6,2.3l-1.7,1.3c-1.1-1.6-2.5-2.4-4.2-2.4c-1,0-2,0.3-2.8,0.8
			c-0.8,0.5-1.5,1.3-2,2.2c-0.5,1-0.7,2-0.7,3.2c0,1.2,0.2,2.3,0.7,3.2c0.5,1,1.1,1.7,2,2.2c0.8,0.5,1.8,0.8,2.8,0.8
			c1.1,0,1.9-0.2,2.6-0.6c0.7-0.4,1.3-0.9,1.9-1.6l1.8,1.2c-0.7,0.9-1.6,1.6-2.7,2.2c-1.1,0.5-2.2,0.8-3.5,0.8
			C158.6,54.4,157.3,54,156.1,53.3"/>
		<path class="st0" d="M180.7,51.5c0.8-0.5,1.5-1.3,1.9-2.2c0.5-1,0.7-2,0.7-3.2c0-1.2-0.2-2.3-0.7-3.2c-0.5-1-1.1-1.7-1.9-2.2
			c-0.8-0.5-1.8-0.8-2.9-0.8c-1,0-2,0.3-2.8,0.8c-0.8,0.5-1.5,1.3-1.9,2.2c-0.5,0.9-0.7,2-0.7,3.2c0,1.2,0.2,2.3,0.7,3.3
			c0.5,1,1.1,1.7,1.9,2.2c0.8,0.5,1.8,0.8,2.8,0.8C178.9,52.3,179.9,52,180.7,51.5 M173.9,53.3c-1.2-0.7-2.1-1.7-2.8-3
			c-0.7-1.3-1-2.7-1-4.3c0-1.6,0.3-3,1-4.3c0.7-1.3,1.6-2.2,2.7-3c1.2-0.7,2.5-1.1,4-1.1c1.5,0,2.8,0.4,4,1.1c1.2,0.7,2.1,1.7,2.8,3
			c0.7,1.3,1,2.7,1,4.3c0,1.6-0.3,3-1,4.3c-0.7,1.3-1.6,2.2-2.7,3c-1.2,0.7-2.5,1.1-4,1.1C176.4,54.4,175.1,54,173.9,53.3"/>
		<path class="st0" d="M201.1,38.4c0.9,0.4,1.7,1.1,2.2,2c0.5,0.9,0.8,1.9,0.8,3.1v10.4h-2.3v-9.4c0-3.1-1.4-4.6-4.1-4.6
			c-1.6,0-2.8,0.6-3.6,1.7c-0.8,1.1-1.2,2.7-1.2,4.6v7.8h-2.3V38.2h2.3v2.6c0.5-1,1.2-1.8,2.1-2.3c0.9-0.5,1.9-0.8,3-0.8
			C199.2,37.7,200.2,37.9,201.1,38.4"/>
		<polygon class="st0" points="211.2,53.8 211.2,40.3 208.6,40.3 208.6,38.2 211.2,38.2 211.2,33.1 213.5,33.1 213.5,38.2 
			217.1,38.2 217.1,40.3 213.5,40.3 213.5,53.8 		"/>
		<path class="st0" d="M231,51.5c0.8-0.5,1.5-1.3,1.9-2.2c0.5-1,0.7-2,0.7-3.2c0-1.2-0.2-2.3-0.7-3.2c-0.5-1-1.1-1.7-1.9-2.2
			c-0.8-0.5-1.8-0.8-2.9-0.8c-1,0-2,0.3-2.8,0.8c-0.8,0.5-1.5,1.3-1.9,2.2c-0.5,0.9-0.7,2-0.7,3.2c0,1.2,0.2,2.3,0.7,3.3
			c0.5,1,1.1,1.7,1.9,2.2c0.8,0.5,1.8,0.8,2.8,0.8C229.2,52.3,230.2,52,231,51.5 M235.9,38.2v15.6h-2.3v-2.3
			c-0.6,0.9-1.4,1.6-2.4,2.1c-0.9,0.5-2,0.8-3.1,0.8c-1.5,0-2.8-0.4-4-1.1c-1.2-0.7-2.1-1.7-2.8-3c-0.7-1.3-1-2.7-1-4.3
			c0-1.6,0.3-3,1-4.3c0.7-1.3,1.6-2.2,2.7-3c1.2-0.7,2.5-1.1,4-1.1c1.1,0,2.2,0.2,3.1,0.8c0.9,0.5,1.7,1.2,2.4,2.1v-2.3H235.9z"/>
		<path class="st0" d="M243.2,38.2h2.3v15.6h-2.3V38.2z M243,34.7c-0.3-0.4-0.5-0.8-0.5-1.3c0-0.5,0.2-0.9,0.5-1.3
			c0.4-0.4,0.8-0.5,1.3-0.5c0.5,0,0.9,0.2,1.3,0.5c0.4,0.3,0.5,0.8,0.5,1.3c0,0.5-0.2,0.9-0.5,1.3c-0.4,0.4-0.8,0.5-1.3,0.5
			C243.8,35.2,243.4,35,243,34.7"/>
		<path class="st0" d="M263.2,38.4c0.9,0.4,1.7,1.1,2.2,2c0.5,0.9,0.8,1.9,0.8,3.1v10.4h-2.3v-9.4c0-3.1-1.4-4.6-4.1-4.6
			c-1.6,0-2.8,0.6-3.6,1.7c-0.8,1.1-1.2,2.7-1.2,4.6v7.8h-2.3V38.2h2.3v2.6c0.5-1,1.2-1.8,2.1-2.3c0.9-0.5,1.9-0.8,3-0.8
			C261.2,37.7,262.2,37.9,263.2,38.4"/>
		<path class="st0" d="M284.3,44.6c-0.2-1.6-0.8-2.8-1.6-3.7c-0.9-0.8-2.1-1.2-3.5-1.2c-1.4,0-2.6,0.5-3.6,1.4
			c-0.9,0.9-1.5,2.1-1.7,3.5H284.3z M283,38.7c1.1,0.7,2,1.6,2.7,2.8c0.7,1.2,1,2.5,1,4c0,0.4,0,0.8,0,1h-12.8
			c0.1,1.6,0.6,3,1.6,4.1c1,1.1,2.3,1.7,3.9,1.7c1.3,0,2.4-0.3,3.3-0.8c0.9-0.5,1.6-1.2,2.1-2.1l1.8,1.2c-0.7,1.2-1.7,2.1-2.9,2.7
			c-1.2,0.7-2.6,1-4.3,1c-1.5,0-2.9-0.4-4-1.1c-1.2-0.7-2.1-1.7-2.8-3c-0.7-1.3-1-2.7-1-4.3c0-1.6,0.3-3,1-4.3
			c0.7-1.3,1.6-2.3,2.7-3c1.2-0.7,2.5-1.1,4-1.1C280.6,37.7,281.8,38,283,38.7"/>
		<path class="st0" d="M301,37.9V40c-0.5-0.2-1-0.3-1.5-0.3c-1,0-1.8,0.3-2.7,0.8c-0.8,0.5-1.5,1.3-2,2.3c-0.5,1-0.8,2.2-0.8,3.6
			v7.5h-2.3V38.2h2.3v3.1c0.6-1.2,1.4-2.1,2.3-2.7c0.9-0.6,2-1,3.1-1C300,37.7,300.5,37.8,301,37.9"/>
		<path class="st0" d="M306.4,53.4c-1.1-0.6-2-1.6-2.6-2.7l2-1c0.8,1.7,2.4,2.6,4.8,2.6c1.2,0,2.1-0.2,2.9-0.6
			c0.8-0.4,1.1-1.1,1.1-2c0-0.9-0.3-1.6-0.9-2c-0.6-0.4-1.7-0.7-3.2-0.9c-2.1-0.2-3.7-0.7-4.6-1.4c-0.9-0.8-1.4-1.8-1.4-3.1
			c0-1.4,0.5-2.6,1.6-3.4c1-0.8,2.5-1.2,4.3-1.2c3.1,0,5.2,1.2,6.3,3.7l-2,1c-0.4-0.9-0.9-1.5-1.7-2c-0.7-0.4-1.6-0.6-2.8-0.6
			c-1.2,0-2,0.2-2.6,0.6c-0.6,0.4-0.9,1-0.9,1.8c0,0.7,0.3,1.3,1,1.8c0.7,0.4,1.8,0.7,3.4,0.9c2,0.2,3.4,0.7,4.4,1.5
			c1,0.8,1.4,1.8,1.4,3.1c0,1-0.3,1.9-0.9,2.7c-0.6,0.7-1.4,1.3-2.4,1.7c-1,0.4-2.1,0.6-3.2,0.6C308.9,54.4,307.6,54,306.4,53.4"/>
	</g>
	<g>
		<g>
			<polygon class="st1" points="94.3,54.4 89,46.7 87.8,47.9 87.8,54.4 84.3,54.4 84.3,29 87.8,29 87.8,43.4 93.8,37.6 98.4,37.6 
				91.4,44.4 98.2,54.4 			"/>
			<polygon class="st1" points="94.4,54.2 89,46.4 87.6,47.8 87.6,54.2 84.5,54.2 84.5,29.2 87.6,29.2 87.6,43.8 93.9,37.8 98,37.8 
				91.2,44.4 97.8,54.2 			"/>
			<polygon class="st1" points="94.5,54 89.1,46.1 87.4,47.7 87.4,54 84.7,54 84.7,29.4 87.4,29.4 87.4,44.3 94,38 97.4,38 
				90.9,44.3 97.4,54 			"/>
			<polygon class="st1" points="94.6,53.8 89.1,45.8 87.2,47.6 87.2,53.8 84.9,53.8 84.9,29.6 87.2,29.6 87.2,44.8 94,38.2 97,38.2 
				90.7,44.3 97.1,53.8 			"/>
			<path class="st1" d="M108.1,55c-1.6,0-3-0.4-4.3-1.2c-1.3-0.8-2.3-1.8-3-3.2c-0.7-1.4-1.1-2.9-1.1-4.6c0-1.7,0.4-3.2,1.1-4.6
				c0.7-1.4,1.7-2.4,3-3.2c1.2-0.8,2.7-1.2,4.3-1.2c1.2,0,2.4,0.3,3.4,0.8c0.5,0.3,1.1,0.7,1.5,1.1v-1.4h3.4v16.8h-3.4v-1.3
				c-0.5,0.4-1,0.8-1.5,1.1C110.4,54.7,109.3,55,108.1,55z M108,40.4c-0.9,0-1.8,0.2-2.5,0.7c-0.7,0.5-1.3,1.1-1.7,2
				c-0.4,0.8-0.6,1.8-0.6,3c0,1.1,0.2,2.1,0.6,3c0.4,0.9,1,1.5,1.7,2c0.7,0.5,1.6,0.7,2.5,0.7c1,0,1.8-0.2,2.5-0.7
				c0.7-0.5,1.3-1.2,1.7-2c0.4-0.9,0.6-1.9,0.6-3c0-1.1-0.2-2.1-0.6-3c-0.4-0.8-1-1.5-1.7-2C109.8,40.6,109,40.4,108,40.4z"/>
			<path class="st1" d="M108.1,54.8c-1.6,0-3-0.4-4.2-1.1c-1.2-0.8-2.2-1.8-2.9-3.1c-0.7-1.3-1.1-2.9-1.1-4.5c0-1.7,0.3-3.2,1-4.5
				c0.7-1.3,1.7-2.4,2.9-3.1c1.2-0.7,2.6-1.1,4.2-1.1c1.2,0,2.3,0.3,3.3,0.8c0.7,0.4,1.3,0.8,1.8,1.4v-1.6h3.1v16.4h-3.1v-1.6
				c-0.5,0.5-1.1,1-1.8,1.3C110.4,54.5,109.3,54.8,108.1,54.8z M108,40.2c-1,0-1.8,0.2-2.6,0.7c-0.8,0.5-1.4,1.2-1.8,2.1
				c-0.4,0.9-0.7,1.9-0.7,3c0,1.2,0.2,2.2,0.7,3.1c0.4,0.9,1,1.6,1.8,2.1c0.8,0.5,1.6,0.7,2.6,0.7c1,0,1.9-0.2,2.6-0.7
				c0.8-0.5,1.4-1.2,1.8-2.1c0.4-0.9,0.7-1.9,0.7-3.1c0-1.1-0.2-2.2-0.7-3.1c-0.4-0.9-1-1.6-1.8-2.1C109.9,40.4,109,40.2,108,40.2z"
				/>
			<path class="st1" d="M108.1,54.6c-1.5,0-2.9-0.4-4.1-1.1c-1.2-0.7-2.2-1.8-2.8-3c-0.7-1.3-1-2.8-1-4.4c0-1.6,0.3-3.1,1-4.4
				c0.7-1.3,1.6-2.3,2.8-3c1.2-0.7,2.6-1.1,4.1-1.1c1.2,0,2.3,0.3,3.2,0.8c0.8,0.4,1.5,1,2.1,1.7v-2h2.6v16h-2.6v-1.9
				c-0.6,0.7-1.3,1.3-2.1,1.7C110.3,54.3,109.2,54.6,108.1,54.6z M108,40c-1,0-1.9,0.3-2.7,0.8c-0.8,0.5-1.4,1.2-1.9,2.1
				c-0.5,0.9-0.7,2-0.7,3.1c0,1.2,0.2,2.3,0.7,3.2c0.4,0.9,1.1,1.6,1.9,2.2c0.8,0.5,1.7,0.8,2.7,0.8c1,0,1.9-0.3,2.8-0.8
				c0.8-0.5,1.4-1.2,1.9-2.2c0.5-0.9,0.7-2,0.7-3.2c0-1.2-0.2-2.2-0.7-3.1c-0.4-0.9-1.1-1.6-1.9-2.2C110,40.2,109.1,40,108,40z"/>
			<path class="st1" d="M110.9,51.5c0.8-0.5,1.5-1.3,1.9-2.2c0.5-1,0.7-2,0.7-3.2c0-1.2-0.2-2.3-0.7-3.2c-0.5-1-1.1-1.7-1.9-2.2
				c-0.8-0.5-1.8-0.8-2.9-0.8c-1,0-2,0.3-2.8,0.8c-0.8,0.5-1.5,1.3-1.9,2.2c-0.5,0.9-0.7,2-0.7,3.2c0,1.2,0.2,2.3,0.7,3.3
				c0.5,1,1.1,1.7,1.9,2.2c0.8,0.5,1.8,0.8,2.8,0.8C109.1,52.3,110,52,110.9,51.5 M115.8,38.2v15.6h-2.3v-2.3
				c-0.6,0.9-1.4,1.6-2.4,2.1c-0.9,0.5-2,0.8-3.1,0.8c-1.5,0-2.8-0.4-4-1.1c-1.2-0.7-2.1-1.7-2.8-3c-0.7-1.3-1-2.7-1-4.3
				c0-1.6,0.3-3,1-4.3c0.7-1.3,1.6-2.2,2.7-3c1.2-0.7,2.5-1.1,4-1.1c1.1,0,2.2,0.2,3.1,0.8c0.9,0.5,1.7,1.2,2.4,2.1v-2.3H115.8z"/>
			<polygon class="st1" points="122.1,54.4 122.1,40.9 119.4,40.9 119.4,37.6 122.1,37.6 122.1,32.5 125.5,32.5 125.5,37.6 
				129.1,37.6 129.1,40.9 125.5,40.9 125.5,54.4 			"/>
			<polygon class="st1" points="122.3,54.2 122.3,40.7 119.6,40.7 119.6,37.8 122.3,37.8 122.3,32.7 125.3,32.7 125.3,37.8 
				128.9,37.8 128.9,40.7 125.3,40.7 125.3,54.2 			"/>
			<polygon class="st1" points="122.5,54 122.5,40.5 119.8,40.5 119.8,38 122.5,38 122.5,32.9 125.1,32.9 125.1,38 128.7,38 
				128.7,40.5 125.1,40.5 125.1,54 			"/>
			<polygon class="st1" points="122.7,53.8 122.7,40.3 120,40.3 120,38.2 122.7,38.2 122.7,33.1 124.9,33.1 124.9,38.2 128.5,38.2 
				128.5,40.3 124.9,40.3 124.9,53.8 			"/>
			<path class="st1" d="M139.6,55c-1.6,0-3-0.4-4.3-1.2c-1.3-0.8-2.3-1.8-3-3.2c-0.7-1.4-1.1-2.9-1.1-4.6s0.4-3.2,1.1-4.6
				c0.7-1.4,1.7-2.4,3-3.2c1.2-0.8,2.7-1.2,4.3-1.2c1.2,0,2.4,0.3,3.4,0.8c0.5,0.3,1.1,0.7,1.5,1.1v-1.4h3.4v16.8h-3.4v-1.3
				c-0.5,0.4-1,0.8-1.5,1.1C142,54.7,140.8,55,139.6,55z M139.6,40.4c-0.9,0-1.8,0.2-2.5,0.7c-0.7,0.5-1.3,1.1-1.7,2
				c-0.4,0.8-0.6,1.8-0.6,3c0,1.1,0.2,2.1,0.6,3c0.4,0.9,1,1.5,1.7,2c0.7,0.5,1.6,0.7,2.5,0.7c1,0,1.8-0.2,2.5-0.7
				c0.7-0.5,1.3-1.2,1.7-2c0.4-0.9,0.6-1.9,0.6-3c0-1.1-0.2-2.1-0.6-3c-0.4-0.8-1-1.5-1.7-2C141.4,40.6,140.5,40.4,139.6,40.4z"/>
			<path class="st1" d="M139.6,54.8c-1.6,0-3-0.4-4.2-1.1c-1.2-0.8-2.2-1.8-2.9-3.1c-0.7-1.3-1.1-2.9-1.1-4.5c0-1.7,0.3-3.2,1-4.5
				c0.7-1.3,1.7-2.4,2.9-3.1c1.2-0.7,2.6-1.1,4.2-1.1c1.2,0,2.3,0.3,3.3,0.8c0.7,0.4,1.3,0.8,1.8,1.4v-1.6h3.1v16.4h-3.1v-1.6
				c-0.5,0.5-1.1,1-1.8,1.3C141.9,54.5,140.8,54.8,139.6,54.8z M139.6,40.2c-1,0-1.8,0.2-2.6,0.7c-0.8,0.5-1.4,1.2-1.8,2.1
				c-0.4,0.9-0.7,1.9-0.7,3c0,1.2,0.2,2.2,0.7,3.1c0.4,0.9,1,1.6,1.8,2.1c0.8,0.5,1.6,0.7,2.6,0.7c1,0,1.9-0.2,2.6-0.7
				c0.8-0.5,1.4-1.2,1.8-2.1c0.4-0.9,0.7-1.9,0.7-3.1c0-1.1-0.2-2.2-0.7-3.1c-0.4-0.9-1-1.6-1.8-2.1
				C141.4,40.4,140.6,40.2,139.6,40.2z"/>
			<path class="st1" d="M139.6,54.6c-1.5,0-2.9-0.4-4.1-1.1c-1.2-0.7-2.2-1.8-2.8-3c-0.7-1.3-1-2.8-1-4.4c0-1.6,0.3-3.1,1-4.4
				c0.7-1.3,1.6-2.3,2.8-3c1.2-0.7,2.6-1.1,4.1-1.1c1.2,0,2.3,0.3,3.2,0.8c0.8,0.4,1.5,1,2.1,1.7v-2h2.6v16h-2.6v-1.9
				c-0.6,0.7-1.3,1.3-2.1,1.7C141.8,54.3,140.8,54.6,139.6,54.6z M139.6,40c-1,0-1.9,0.3-2.7,0.8c-0.8,0.5-1.4,1.2-1.9,2.1
				c-0.5,0.9-0.7,2-0.7,3.1c0,1.2,0.2,2.3,0.7,3.2c0.4,0.9,1.1,1.6,1.9,2.2c0.8,0.5,1.7,0.8,2.7,0.8c1,0,1.9-0.3,2.8-0.8
				c0.8-0.5,1.4-1.2,1.9-2.2c0.5-0.9,0.7-2,0.7-3.2c0-1.2-0.2-2.2-0.7-3.1c-0.4-0.9-1.1-1.6-1.9-2.2C141.5,40.2,140.6,40,139.6,40z"
				/>
			<path class="st1" d="M142.4,51.5c0.8-0.5,1.5-1.3,1.9-2.2c0.5-1,0.7-2,0.7-3.2c0-1.2-0.2-2.3-0.7-3.2c-0.5-1-1.1-1.7-1.9-2.2
				c-0.8-0.5-1.8-0.8-2.9-0.8c-1,0-2,0.3-2.8,0.8c-0.8,0.5-1.5,1.3-1.9,2.2c-0.5,0.9-0.7,2-0.7,3.2c0,1.2,0.2,2.3,0.7,3.3
				c0.5,1,1.1,1.7,1.9,2.2c0.8,0.5,1.8,0.8,2.8,0.8C140.6,52.3,141.6,52,142.4,51.5 M147.3,38.2v15.6h-2.3v-2.3
				c-0.6,0.9-1.4,1.6-2.4,2.1c-0.9,0.5-2,0.8-3.1,0.8c-1.5,0-2.8-0.4-4-1.1c-1.2-0.7-2.1-1.7-2.8-3c-0.7-1.3-1-2.7-1-4.3
				c0-1.6,0.3-3,1-4.3c0.7-1.3,1.6-2.2,2.7-3c1.2-0.7,2.5-1.1,4-1.1c1.1,0,2.2,0.2,3.1,0.8c0.9,0.5,1.7,1.2,2.4,2.1v-2.3H147.3z"/>
		</g>
		<path class="st1" d="M68,48.8L43.2,73.5L18.5,48.8l4.4-4.4l20.3,20.3l20.3-20.3L68,48.8z M54.8,48.4L48.4,42l6.4-6.4l6.4,6.4
			L54.8,48.4z M44.9,43.3l7.5,7.5l-7.5,7.5V43.3z M41.5,58.2L25.3,42l16.2-16.2V58.2z M44.9,25.8l7.4,7.4l-7.4,7.4V25.8z M18.5,35.2
			l24.7-24.7L68,35.2l-4.4,4.4L43.2,19.3L22.9,39.6L18.5,35.2z M72.7,35.2L43.2,5.7L13.7,35.2l6.8,6.8l-6.8,6.8l29.5,29.5l29.5-29.5
			L66,42L72.7,35.2z"/>
	</g>
</g>
</svg>
