<?xml version="1.0" encoding="utf-8"?>
<!-- Generator: Adobe Illustrator 21.1.0, SVG Export Plug-In . SVG Version: 6.00 Build 0)  -->
<svg version="1.1" id="图层_1" xmlns="http://www.w3.org/2000/svg" xmlns:xlink="http://www.w3.org/1999/xlink" x="0px" y="0px"
	 viewBox="0 0 142.9 46" style="enable-background:new 0 0 142.9 46;" xml:space="preserve">
<style type="text/css">
	.st0{fill:#EA5506;}
	.st1{fill:#004098;}
</style>
<g>
	<g>
		<path class="st0" d="M96.1,0.5c25.2-2.1,46.2,2.6,46.8,10.5c0.4,5.1-7.8,10.3-20.4,13.9c7.5-3.8,11.8-8.2,11.4-12.2
			C133,4.2,111,0.2,84.9,3.8C74.8,5.2,60.2,9.2,52.6,12C60.5,7.3,79.9,1.9,96.1,0.5z"/>
		<g>
			<polygon class="st1" points="21.7,23.7 21.7,23.6 21.8,23.5 21.7,23.5 20.9,23.5 17.7,23.5 15.2,36.2 14.3,40.9 13.4,45.5 
				14.3,45.5 15.2,45.5 17.4,45.5 20.9,28 			"/>
			<path class="st1" d="M31.6,23c-0.6,0-1.3,0.2-1.9,0.6c-0.6,0.5-1.1,1.1-1.7,2l2.1-10.5H28h-2l-4.3,21.7v0.1l-0.9,4.3L20,45.5h0.8
				h0.9h2.1l0.7-3.2c0.2,1.4,0.5,2.3,0.9,2.8c0.5,0.7,1.1,0.9,1.7,0.9c0.3,0,0.6-0.1,0.9-0.2c0.5-0.2,1.1-0.6,1.6-1.1
				c0.8-0.9,1.6-2.3,2.3-4.1c0.8-1.8,1.4-3.9,1.9-6.3c0.7-3.6,0.8-6.4,0.4-8.4C33.7,23.9,32.9,23,31.6,23z M29.8,34.4
				c-0.4,2-0.8,3.4-1.3,4.2c-0.1,0.3-0.3,0.5-0.4,0.7c-0.3,0.4-0.7,0.6-1,0.6c-0.5,0-0.8-0.4-1-1.3c-0.2-0.9-0.1-2.2,0.3-4.1
				c0.3-1.7,0.8-3.1,1.3-3.9c0.2-0.2,0.3-0.4,0.5-0.7c0.3-0.4,0.7-0.6,1.1-0.6c0.4,0,0.8,0.4,0.9,1.2C30.2,31.3,30.1,32.6,29.8,34.4
				z"/>
			<polygon class="st1" points="8.1,26.9 9.2,21.6 14.3,21.6 15.2,21.6 15.8,21.6 17.1,15.1 15.2,15.1 14.3,15.1 6,15.1 0,45.5 
				4.5,45.5 6.9,33.1 12.6,33.1 13.8,26.9 			"/>
			<polygon class="st1" points="21.7,20.8 22.3,20.8 23.4,15.1 21.7,15.1 20.9,15.1 19.4,15.1 18.2,20.8 20.9,20.8 			"/>
			<path class="st1" d="M41.8,36.6H47l0.2-1c0.1-0.7,0.2-1.3,0.3-1.9c0.1-0.5,0.2-0.9,0.2-1.4c0.2-1.4,0.3-2.7,0.2-3.7
				c-0.1-0.6-0.1-1.1-0.2-1.6c0-0.3-0.1-0.5-0.2-0.8c-0.2-0.7-0.5-1.3-0.8-1.7c-0.7-1-1.8-1.4-3.3-1.4c-0.6,0-1.1,0.1-1.6,0.3
				c-1.2,0.4-2.3,1.4-3.4,2.9c-1.5,2.1-2.5,4.9-3.2,8.4c-0.5,2.4-0.7,4.5-0.5,6.3c0.2,1.8,0.6,3.1,1.2,3.9c0.7,0.8,1.7,1.2,3.1,1.2
				c1,0,2-0.2,2.8-0.6c0.4-0.2,0.8-0.5,1.2-0.8c1-0.9,2.1-2.5,3.1-4.8l-3.8-0.8c-0.2,0.3-0.3,0.6-0.5,0.8c-0.2,0.2-0.3,0.4-0.4,0.5
				c-0.4,0.4-0.9,0.7-1.3,0.7c-0.7,0-1.1-0.5-1.3-1.4c-0.2-0.7-0.1-1.7,0.1-3.1H41.8z M40.7,29.6c0.3-0.6,0.7-1,1-1.3
				c0.3-0.2,0.5-0.3,0.8-0.3c0.5,0,0.9,0.3,1.1,1c0.2,0.7,0.2,1.9-0.1,3.6h-1.9h-2.1C40,31.2,40.4,30.3,40.7,29.6z"/>
			<path class="st1" d="M57.2,30.2l0.8-2l0.8-2l0.8-2c-0.3-0.3-0.5-0.6-0.8-0.8C58.5,23.1,58.3,23,58,23c-0.1,0-0.1,0-0.1,0
				c-0.3,0-0.5,0.1-0.7,0.1c-0.3,0.2-0.6,0.4-0.9,0.7c-0.5,0.6-1.1,1.7-1.8,3.3l0.7-3.6h-3.8l-3.8,19.1l-0.2,1l-0.4,2h0.4h0.2h3.5
				l1.5-7.4c0.7-3.5,1.4-6,2-7.2c0.5-0.9,1-1.4,1.5-1.4C56.5,29.6,56.8,29.7,57.2,30.2z"/>
			<path class="st1" d="M105.3,23c-0.8,0-1.5,0.2-2.1,0.8c-0.7,0.5-1.4,1.5-2.3,2.9c-0.1-1.2-0.3-2.1-0.7-2.8
				c-0.3-0.6-0.9-0.9-1.8-0.9c-0.8,0-1.5,0.3-2.1,0.8c-0.7,0.5-1.4,1.5-2.2,2.8l0.7-3.2h-3.8l-3.8,19.3l-0.2,0.9l-0.2,0.9l-0.2,0.9
				h0.2h0.2h0.2h3.5l2.2-11.2c0.3-1.7,0.7-2.8,1.1-3.6c0.5-0.7,0.9-1.1,1.4-1.1c0.3,0,0.5,0.2,0.7,0.5c0.1,0.3,0.2,0.8,0.2,1.4
				c0,0.3-0.1,1-0.3,2l-2.3,12.1h4l2.2-11.4c0.3-1.6,0.7-2.7,1.1-3.5c0.4-0.7,0.9-1,1.4-1s0.7,0.4,0.8,1.1c0.1,0.4,0,1.2-0.2,2.2
				l-2.5,12.6h4l2.7-13.8c0.5-3,0.7-5.2,0.3-6.6C107.1,23.7,106.4,23,105.3,23z"/>
			<path class="st1" d="M121.2,28.6c-0.1-1.8-0.5-3.2-1.2-4.2c-0.7-1-1.7-1.4-3.3-1.4c-0.6,0-1.1,0.1-1.6,0.3
				c-1.2,0.4-2.3,1.4-3.4,2.9c-1.5,2.1-2.5,4.9-3.2,8.4c-0.4,2.4-0.6,4.5-0.4,6.3c0.2,1.8,0.6,3.1,1.2,3.9c0.7,0.8,1.6,1.2,3.1,1.2
				c1,0,2-0.2,2.8-0.6c0.4-0.2,0.8-0.5,1.2-0.8c1-0.9,2.1-2.5,3.1-4.8l-3.8-0.8c-0.2,0.3-0.3,0.6-0.5,0.8c-0.2,0.2-0.3,0.4-0.4,0.5
				c-0.5,0.4-0.9,0.7-1.3,0.7c-0.6,0-1-0.5-1.2-1.4c-0.2-0.7-0.2-1.7,0.1-3.1h2.9h5.2l0.2-1C121.1,32.7,121.3,30.4,121.2,28.6z
				 M117,32.6h-1.9H113c0.3-1.4,0.7-2.3,1-3c0.3-0.6,0.7-1,1-1.3c0.3-0.2,0.5-0.3,0.8-0.3c0.5,0,0.9,0.3,1.1,1
				C117.2,29.7,117.2,30.9,117,32.6z"/>
			<path class="st1" d="M86.8,34.5c0.1-0.3,0.1-0.5,0.2-0.8c0.1-0.4,0.1-0.8,0.2-1.2c0.3-1.9,0.2-3.5,0-5C87,27.3,87,27.1,87,26.8
				c0-0.1-0.1-0.2-0.1-0.2c-0.1-0.2-0.1-0.4-0.2-0.6c-0.7-2-1.9-3-3.8-3c-0.8,0-1.5,0.2-2.2,0.5c-1,0.5-1.9,1.4-2.8,2.7
				c-1.1,1.7-2,3.7-2.7,6c-0.2,0.7-0.4,1.4-0.5,2.2c0,0.1,0,0.1-0.1,0.2C74,38,74,40.7,74.7,42.9c0.1,0.2,0.1,0.3,0.2,0.4
				c0.1,0.3,0.2,0.5,0.4,0.8C76,45.4,77,46,78.4,46c0.8,0,1.6-0.2,2.3-0.5c1-0.5,2-1.4,2.8-2.7c1.5-2.1,2.6-4.9,3.2-8.2V34.5z
				 M82.7,34.5c-0.4,2-0.9,3.5-1.4,4.4c-0.2,0.3-0.4,0.6-0.6,0.8c-0.4,0.4-0.7,0.6-1.1,0.6c-0.5,0-0.9-0.5-1.1-1.4
				c-0.2-0.9-0.1-2.4,0.3-4.4c0.4-1.9,0.9-3.4,1.5-4.3c0.2-0.3,0.4-0.6,0.5-0.8c0.4-0.4,0.8-0.6,1.2-0.6c0.5,0,0.9,0.5,1.1,1.4
				C83.2,31.1,83.1,32.6,82.7,34.5z"/>
			<polygon class="st1" points="75.2,20.4 76.3,15.1 75.2,15.1 74.7,15.1 71.7,15.1 69.7,25.7 64.8,25.7 66.8,15.1 62.4,15.1 
				58.8,33.2 58,37.3 57.2,41.4 56.4,45.5 57.2,45.5 58,45.5 58.8,45.5 60.8,45.5 63.3,33.2 68.2,33.2 65.8,45.5 70.3,45.5 
				74.7,23.1 			"/>
		</g>
	</g>
</g>
</svg>
