<?xml version="1.0" encoding="utf-8"?>
<!-- Generator: Adobe Illustrator 21.1.0, SVG Export Plug-In . SVG Version: 6.00 Build 0)  -->
<svg version="1.1"
	 id="Layer_1" xmlns:cc="http://creativecommons.org/ns#" xmlns:dc="http://purl.org/dc/elements/1.1/" xmlns:rdf="http://www.w3.org/1999/02/22-rdf-syntax-ns#"
	 xmlns="http://www.w3.org/2000/svg" xmlns:xlink="http://www.w3.org/1999/xlink" x="0px" y="0px" viewBox="0 0 259.8 45.3"
	 style="enable-background:new 0 0 259.8 45.3;" xml:space="preserve">
<style type="text/css">
	.st0{fill:#0067C5;}
	.st1{fill:#211E1E;}
</style>
<g>
	<path class="st0" d="M0,0v37.3h17.4V14.9h10v22.4h17.4V0H0"/>
	<g>
		<path class="st1" d="M60.7,0h7.5l17.2,22.8V0h8v36.9h-6.9L68.7,13.6v23.3h-8V0"/>
		<path class="st1" d="M117.1,20.7c-0.5-3.5-2.6-6-5.9-6c-3.3,0-5.5,2.4-6.1,6H117.1z M97.3,23v-0.1c0-8,5.7-14.6,13.9-14.6
			c9.4,0,13.7,7.3,13.7,15.2c0,0.6-0.1,1.4-0.1,2.1h-19.6c0.8,3.6,3.3,5.5,6.9,5.5c2.7,0,4.6-0.8,6.8-2.9l4.5,4
			c-2.6,3.2-6.4,5.2-11.5,5.2C103.5,37.5,97.3,31.6,97.3,23"/>
		<path class="st1" d="M129.9,29V15.7h-3.4V8.9h3.4V1.7h8v7.2h6.6v6.8h-6.6v12c0,1.8,0.8,2.7,2.6,2.7c1.5,0,2.8-0.4,4-1v6.4
			c-1.7,1-3.6,1.6-6.3,1.6C133.2,37.4,129.9,35.5,129.9,29"/>
		<path class="st1" d="M207.9,22.9v-0.1c0-4.7-3.2-7.8-6.9-7.8s-6.8,3.1-6.8,7.8v0.1c0,4.7,3.1,7.8,6.8,7.8S207.9,27.6,207.9,22.9z
			 M186.4,8.9h8v4c1.9-2.6,4.6-4.5,8.8-4.5c6.6,0,12.8,5.1,12.8,14.5v0.1c0,9.4-6.1,14.5-12.8,14.5c-4.3,0-6.9-1.9-8.8-4.2v12h-8
			V8.9"/>
		<path class="st1" d="M240.7,22.9v-0.1c0-4.7-3.2-7.8-6.9-7.8s-6.8,3.1-6.8,7.8v0.1c0,4.7,3.1,7.8,6.8,7.8S240.7,27.6,240.7,22.9z
			 M219.2,8.9h8v4c1.9-2.6,4.6-4.5,8.8-4.5c6.6,0,12.8,5.1,12.8,14.5v0.1c0,9.4-6.1,14.5-12.8,14.5c-4.3,0-6.9-1.9-8.8-4.2v12h-8
			V8.9"/>
		<path class="st1" d="M170.1,21.6l-4.9-11.9l-4.9,11.9H170.1z M161.7,0h7.3l15.3,36.9h-8.4l-3.4-8.2H158l-3.4,8.2h-8.2L161.7,0"/>
		<path class="st1" d="M259.8,15.1h-1V9.9h0l-1.8,5.2h-0.6l-1.8-5.2h0v5.2h-1V8.9h1.5l1.7,4.8l1.7-4.8h1.4L259.8,15.1z M252.4,9.7
			h-1.8v5.4h-1V9.7h-1.8V8.9h4.5V9.7"/>
	</g>
</g>
</svg>
