<?xml version="1.0" encoding="utf-8"?>
<!-- Generator: Adobe Illustrator 21.1.0, SVG Export Plug-In . SVG Version: 6.00 Build 0)  -->
<svg version="1.1" id="Layer_1" xmlns="http://www.w3.org/2000/svg" xmlns:xlink="http://www.w3.org/1999/xlink" x="0px" y="0px"
	 viewBox="118.7 289.5 734.6 214.9" style="enable-background:new 118.7 289.5 734.6 214.9;" xml:space="preserve">
<style type="text/css">
	.st0{fill:#53A3DA;}
	.st1{fill:#F1606D;}
	.st2{fill:#FFFFFF;}
	.st3{fill:#231F20;}
	.st4{fill:#53A4D9;}
</style>
<g>
	<g>
		<path class="st0" d="M226.2,289.5c-59.3,0-107.5,48.2-107.5,107.5c0,59.3,48.2,107.5,107.5,107.5c59.3,0,107.5-48.2,107.5-107.5
			C333.6,337.7,285.4,289.5,226.2,289.5z"/>
		<path class="st1" d="M226.2,299.4c-17.3,0-31.9,27.6-37.2,66.1c-0.2,1.2-0.3,2.5-0.5,3.7c-0.7,6-1.2,12.3-1.5,18.8
			c-0.1,3-0.2,6-0.2,9c0,3,0.1,6,0.2,9c0.2,6.5,0.7,12.8,1.5,18.8c8.1,1,16.8,1.8,25.8,2.1c3.9,0.1,7.9,0.2,11.9,0.2
			c4,0,8-0.1,11.9-0.2c9-0.3,17.7-1,25.8-2.1c0.9-0.1,1.8-0.2,2.7-0.4c33.8-4.7,57.2-15.2,57.2-27.4
			C323.8,343.1,280.1,299.4,226.2,299.4z"/>
		<path class="st2" d="M266.5,369.6c-1-1.4-2-2.8-3.1-4.1c-9-10.6-22.3-17.3-37.2-17.3c-4.8,0-9.1,7.4-11.9,18.9
			c-1.1,4.6-1.9,9.8-2.5,15.5c-0.4,4.6-0.7,9.4-0.7,14.4s0.2,9.8,0.7,14.4c4.6,0.4,9.4,0.7,14.4,0.7c5,0,9.8-0.2,14.4-0.7
			c10-0.9,18.7-2.9,24.8-5.4c6-2.5,9.6-5.6,9.6-9C275,386.8,271.9,377.4,266.5,369.6z"/>
	</g>
	<g>
		<path class="st3" d="M434.9,344.1c12.6,0,22.8,6.1,29.3,13.1l-10.1,11.3c-5.4-5.2-11.2-8.5-19-8.5c-16.8,0-29,14.2-29,37.3
			c0,23.4,11.2,37.6,28.3,37.6c9.1,0,15.9-3.8,21.7-10.2l10.1,11.2c-8.3,9.6-19,15-32.1,15c-26.1,0-46.7-18.9-46.7-53
			C387.4,364,408.5,344.1,434.9,344.1z"/>
		<path class="st3" d="M507,369.7c19.4,0,36.8,14.8,36.8,40.6c0,25.6-17.5,40.4-36.8,40.4c-19.2,0-36.7-14.8-36.7-40.4
			C470.3,384.5,487.8,369.7,507,369.7z M507,435.9c11.3,0,18.2-10.2,18.2-25.6c0-15.6-6.9-25.8-18.2-25.8
			c-11.3,0-18.1,10.2-18.1,25.8C488.9,425.7,495.6,435.9,507,435.9z"/>
		<path class="st3" d="M549.8,371.6h14.9l1.3,13.7h0.6c5.5-10.1,13.7-15.6,21.9-15.6c3.9,0,6.5,0.5,8.8,1.6l-3.1,15.7
			c-2.7-0.8-4.7-1.3-8-1.3c-6.1,0-13.5,4.2-18.3,15.9v47.2h-18.1L549.8,371.6L549.8,371.6z"/>
		<path class="st3" d="M631.1,369.7c20.9,0,31.9,15.1,31.9,36.7c0,3.5-0.3,6.6-0.8,8.5h-49.1c1.6,14,10.4,21.9,22.8,21.9
			c6.6,0,12.3-2,17.9-5.7l6.1,11.3c-7.4,4.9-16.7,8.3-26.4,8.3c-21.4,0-38.1-14.9-38.1-40.4C595.6,385.1,613,369.7,631.1,369.7z
			 M647.3,403.4c0-12.3-5.2-19.7-15.7-19.7c-9.1,0-17,6.8-18.6,19.7H647.3z"/>
		<path class="st1" d="M690.6,396.6c0-32.7,17.8-53.3,42.8-53.3c24.9,0,42.6,20.6,42.6,53.3c0,32.9-17.8,54.1-42.6,54.1
			C708.4,450.7,690.6,429.5,690.6,396.6z M768.5,396.6c0-28.6-14.2-46.7-35.1-46.7c-21.1,0-35.2,18.1-35.2,46.7
			c0,28.8,14.2,47.5,35.2,47.5C754.3,444.1,768.5,425.4,768.5,396.6z"/>
		<path class="st4" d="M789.7,430.1c7.6,8.5,18.4,14,30.5,14c15.7,0,25.8-8.5,25.8-20.8c0-12.9-8.5-17.2-18.7-21.7l-15.7-7.1
			c-9-3.9-20.9-10.4-20.9-25.8c0-14.9,12.9-25.5,30.1-25.5c12.6,0,22.7,5.7,28.9,12.4l-4.2,4.9c-6-6.5-14.3-10.7-24.7-10.7
			c-13.7,0-22.8,7.2-22.8,18.6c0,12,10.4,16.5,17.9,20l15.7,6.9c11.5,5.2,21.7,11.6,21.7,27.5s-13.1,27.9-33.2,27.9
			c-15.1,0-26.8-6.5-34.9-15.6L789.7,430.1z"/>
	</g>
</g>
</svg>
