<?xml version="1.0" encoding="utf-8"?>
<!-- Generator: Adobe Illustrator 21.1.0, SVG Export Plug-In . SVG Version: 6.00 Build 0)  -->
<svg version="1.1" id="Layer_1" xmlns="http://www.w3.org/2000/svg" xmlns:xlink="http://www.w3.org/1999/xlink" x="0px" y="0px"
	 viewBox="0 0 294 32.5" style="enable-background:new 0 0 294 32.5;" xml:space="preserve">
<style type="text/css">
	.st0{fill:#471C38;}
	.st1{fill:#DF2C3B;}
</style>
<g>
	<g>
		<polygon class="st0" points="117.4,0.4 107,14.1 96.6,0.4 91.7,0.4 91.7,32.1 96.2,32.1 96.2,7.1 107,21.3 117.8,7.1 117.8,32.1 
			122.2,32.1 122.2,0.4 		"/>
		<rect x="128.9" y="0.4" class="st0" width="4.4" height="31.8"/>
		<path class="st0" d="M144.4,15.9h7.1c2.8,0,4.6-0.5,5.7-1.6s1.5-2.5,1.5-4.2c0-3.9-2.5-5.8-7.4-5.8h-6.9V15.9z M140,32.1V0.4h11.7
			c3.5,0,6.3,0.8,8.4,2.5c2,1.7,3.1,4,3.1,7.1c0,2.6-0.7,4.7-2,6.2c-1.4,1.5-3,2.6-5.1,3.2l8.4,12.8h-5.2L151.6,20h-7.1v12.1H140z"
			/>
		<path class="st0" d="M181.5,5.9l5,13.2h-10.1L181.5,5.9z M179.4,0.4l-12.7,31.8h4.8l3.4-8.9h13.3l3.4,8.9h4.8L183.7,0.4H179.4z"/>
		<polygon class="st0" points="222.4,0.4 222.4,25.6 204.7,0.4 199.6,0.4 199.6,32.1 204.1,32.1 204.1,6.7 222,32.1 226.9,32.1 
			226.9,0.4 		"/>
		<polygon class="st0" points="232,0.4 232,4.5 242.6,4.5 242.6,32.1 247.1,32.1 247.1,4.5 257.8,4.5 257.8,0.4 		"/>
		<rect x="262.9" y="0.4" class="st0" width="4.4" height="31.8"/>
		<path class="st0" d="M272.6,8.9c0-2.5,0.9-4.6,2.7-6.3c1.8-1.7,4.6-2.6,8.4-2.6c2.9,0,5.6,0.6,8.2,1.9v4.3
			c-2.3-1.4-4.9-2.1-7.6-2.1c-4.8,0-7.2,1.6-7.2,4.8c0,0.9,0.4,1.6,1.3,2.3c0.8,0.6,1.9,1.2,3.1,1.5c1.2,0.4,2.6,0.9,4.1,1.5
			c1.5,0.6,2.8,1.3,4.1,1.9c1.2,0.7,2.3,1.7,3.1,3c0.8,1.3,1.3,2.9,1.3,4.6c0,2.7-1,4.8-3,6.4c-2,1.5-4.8,2.3-8.4,2.3
			c-3.2,0-6.3-0.8-9.4-2.3v-4.6c2.9,1.8,6,2.7,9.1,2.7c4.9,0,7.4-1.5,7.4-4.5c0-1.3-0.4-2.4-1.3-3.3c-0.8-0.9-1.9-1.6-3.1-2
			l-4.1-1.4c-1.5-0.5-2.8-1-4.1-1.6c-1.2-0.5-2.3-1.4-3.1-2.5C273,12,272.6,10.6,272.6,8.9"/>
	</g>
	<g>
		<path class="st0" d="M21.4,12.3c4.9,1.4,8.4,4.4,11.9,7.4c3.2-1.8,6.3-3.6,9.4-5.3c1.1-0.6,2.1-1.2,3.2-1.7
			c-1.1-0.9-2.2-1.9-3.3-2.8c-4.3-3.3-9.1-5.2-14.5-5.6C18.1,3.5,7.3,7.6,0,14.7C6.4,10.8,14.3,10.3,21.4,12.3"/>
		<path class="st0" d="M54.3,18.6c-1.8-0.8-3.5-1.9-5-3.1c-3.4,1.9-6.8,3.9-10.2,5.7c-0.8,0.4-1.6,0.8-2.3,1.2
			c0.9,0.7,1.9,1.3,2.9,1.9c12.7,7.6,30.2,3.4,40.5-6.6C72.3,22.6,62.5,22.2,54.3,18.6"/>
		<path class="st1" d="M75.5,5.4c-12.2-0.6-22.7,1.9-33.7,8C30,20,18.1,28.1,4.6,28.3c12.2,0.6,22.7-1.9,33.7-8
			C50.1,13.7,62,5.6,75.5,5.4"/>
	</g>
</g>
</svg>
