<?xml version="1.0" encoding="utf-8"?>
<!-- Generator: Adobe Illustrator 21.1.0, SVG Export Plug-In . SVG Version: 6.00 Build 0)  -->
<svg version="1.1" id="Layer_1" xmlns="http://www.w3.org/2000/svg" xmlns:xlink="http://www.w3.org/1999/xlink" x="0px" y="0px"
	 viewBox="0 0 72 12.5" style="enable-background:new 0 0 72 12.5;" xml:space="preserve">
<style type="text/css">
	.st0{fill:#007DB8;}
	.st1{fill:#808080;}
</style>
<path class="st0" d="M16.2,0L9.9,4.9C9.2,2.4,7.1,0.6,4.5,0.6H0v11.2h4.5c2.6,0,4.9-1.8,5.3-4.2l6.3,4.9l6.3-4.9v4.2h7.1V9.5h-4.7
	V0.6h-2.6v4.2l-6,4.9L15,8.6L18,6.3L21,3.9l-1.8-1.5l-6,4.7L12,6l6-4.5L16.2,0L16.2,0L16.2,0z M2.4,2.9h1.9c0.4,0,0.8,0.1,1.2,0.3
	c0.4,0.2,0.7,0.4,1,0.7C6.8,4.2,7,4.5,7.2,5c0.2,0.4,0.3,0.9,0.3,1.4c0,0.4-0.1,0.9-0.2,1.3C7.1,8,6.8,8.4,6.6,8.7
	C6.3,9,6,9.2,5.6,9.4C5.2,9.6,4.8,9.7,4.4,9.7H2.4C2.4,9.7,2.4,2.9,2.4,2.9z M37.7,9.5v2.3h-7.1V0.6h2.6v8.9L37.7,9.5L37.7,9.5z"/>
<path class="st1" d="M67.7,12c2.2,0,4-1.1,4.3-3.5l-0.1-0.1h-0.6l-0.1,0.1c-0.3,1.7-1.4,2.7-3.4,2.7c-2.4,0-4.1-1.8-4.1-4.9
	s1.8-4.9,4.1-4.9c1.9,0,3,1,3.4,2.5L71.2,4h0.6L72,3.9c-0.3-2.2-2.1-3.4-4.3-3.4c-2.7,0-5.1,1.9-5.1,5.7C62.6,10.1,65,12,67.7,12
	L67.7,12z M60.7,11.7V0.9l-0.1-0.1h-1.1l-0.1,0.1l-4.1,9.7h-0.1l-4.2-9.7l-0.1-0.1h-1.1l-0.1,0.1v10.8l0.1,0.1h0.6l0.1-0.1V2.5h0.1
	l4,9.2l0.1,0.1h0.8l0.1-0.1l4-9.2h0.2v9.2l0.1,0.1h0.6L60.7,11.7L60.7,11.7z M47.4,11.7v-0.5l-0.1-0.1h-5.9l-0.1-0.1V6.8l0.1-0.1
	h5.5L47,6.5V6l-0.1-0.1h-5.5l-0.1-0.1v-4l0.1-0.1h5.9l0.1-0.1V0.9l-0.1-0.1h-6.8l-0.1,0.1v10.8l0.1,0.1h6.8L47.4,11.7L47.4,11.7z"/>
</svg>
